<svg height="325.060091" viewBox="0 0 545.1 576" width="307.635428" xmlns="http://www.w3.org/2000/svg"><path d="m272.7 576a218.057 218.057 0 0 1 -215.7-185.9l-57-390.1h545.1l-56.8 389.9a218.232 218.232 0 0 1 -215.6 186.1z" fill="#fff"/><path d="m272.7 564.5a206.66563 206.66563 0 0 1 -204.3-176.1l-55-376.9h518.5l-54.9 376.8a206.635 206.635 0 0 1 -204.3 176.2z" fill="#9ea2a2"/><path d="m272.7 547.8a189.86608 189.86608 0 0 1 -187.7-161.9l-52.3-357.7h479.9l-52.1 357.7a189.86607 189.86607 0 0 1 -187.8 161.9z" fill="#363b37"/><path d="m242.4 394.3v-.8h-14.5v.8a57.3239 57.3239 0 0 1 -27.3 49.1 112.64318 112.64318 0 0 1 -23.8-28h-16.5c21.3 41.7 64.9 69 112.2 69 47.4 0 90.9-27.3 112.1-69h-16.6a108.90293 108.90293 0 0 1 -23.6 27.8 57.44393 57.44393 0 0 1 -27.1-49v-.9h-14.5v.9a71.62758 71.62758 0 0 0 29.3 58.1 111.27368 111.27368 0 0 1 -52.2 17.3v-94.8h-14.5v94.8a111.17551 111.17551 0 0 1 -52.4-17.2 71.4438 71.4438 0 0 0 29.4-58.1z" fill="#4891ce"/><g fill="#e3173e"><path d="m272.7 511.8a153.19637 153.19637 0 0 1 -142.2-96.3h-15.5a167.55489 167.55489 0 0 0 315.3 0h-15.5a153.16262 153.16262 0 0 1 -142.1 96.3z"/><path d="m154.3 257.1 2.1-5.4 22-57.4-6.8-45.8 19.1 13.9 5.4-14-91.1-66.4 27.9 190.5-19.7 51.4-38.3-258.6h153.1l5.6-14.5h-175.5l48.8 330.1zm-30-143 30.8 22.4 8.3 56.2-19.9 52.1z"/><path d="m311.6 50.7 5.6 14.5h153.1l-38.3 258.6-19.4-50.8 28-191.1-91.4 66.5 5.4 14 19.2-14-6.9 45.7 20.8 54.5 3.2 8.3 47.3 123.6 48.9-330.1h-175.5zm70.2 142 8.4-56.1 31-22.6-19.3 131.3z"/></g><path d="m174.6 98 31.9 23.2 16.5 12 7.1 5.2-97.4 255.4 70.3-.1 13.5-39.4h112.1l13.7 39 70.3-.1-98.2-254.3 7.8-5.7 16.5-12 32-23.2h-72.1l-18.1-46.9-7.9-24.3-.7 2.1v-.1l-26.4 69.2zm97.6 93.9 36.3 104.3h-72.1z" fill="#fff"/></svg>