<?xml version="1.0" encoding="UTF-8" standalone="no"?>
<svg xmlns:rdf="http://www.w3.org/1999/02/22-rdf-syntax-ns#" xmlns="http://www.w3.org/2000/svg" height="231.55195" width="201.68331" version="1.1" xmlns:cc="http://creativecommons.org/ns#" xmlns:dc="http://purl.org/dc/elements/1.1/" viewBox="0 0 201.68331 231.55195"><path d="M201.68331,106.26463l-8.08019.01206,2.93862-5.51946-7.38071.01206-.05629-.03215c.21707-2.52456.33367-5.07324.33367-7.634A88.17412,88.17412,0,0,0,164.426,31.40825l-.46632-.47838,1.77282-1.77282-3.8592-3.8592a86.366,86.366,0,0,0-122.14363,0l-3.8592,3.8592,1.77282,1.77282-.46632.47838A88.17026,88.17026,0,0,0,12.16854,93.10316q0,3.96774.35376,7.88323l-.04422.02412-7.36464.01206,1.63212,3.0552-.01608.008,1.33464,2.49642-.12462.06834L0,106.66262,1.76076,109.955h0l30.15,56.38853H39.995l3.16776,5.92146H48.5254L80.19093,231.4836l4.615-9.86507q1.77282-3.78685,3.50947-7.56162c.50652-1.10147,1.21-2.617,1.99391-4.29335L101.09492,231.552l4.80391-10.26306q1.68839-3.5999,3.37679-7.19981c.53466-1.13364,1.2462-2.66526,2.02608-4.34964l10.09824,21.78839L153.09763,172.261h5.35464l3.16776-5.92146h8.09226l23.81045-44.75866h.0201Z" fill="#fff"/><path d="M183.935,102.85166a84.75772,84.75772,0,0,0,.43417-8.49827A83.24105,83.24105,0,0,0,160.8,36.21618l-.796.79595a77.97226,77.97226,0,0,1,17.37846,65.83552h-5.66015a72.52673,72.52673,0,0,0-19.61358-66.51891l6.1908-6.1908a81.266,81.266,0,0,0-114.91569.004l6.1908,6.18677a72.52677,72.52677,0,0,0-19.61357,66.51892H24.30089A77.92865,77.92865,0,0,1,41.67533,37.01212l-.796-.796a83.476,83.476,0,0,0-23.13509,66.63549H11.89116L46.19783,168.257h5.3667c.03216.06432.06432.13265.08442.16884.01608.02814.03618.05629.05226.08041a1.15044,1.15044,0,0,1,.08844.18894L79.805,221.07579q1.77282-3.78686,3.51347-7.56564,2.47833-5.37875,4.94862-10.76957L84.5245,195.183q-2.43612,5.39685-4.8642,10.76154-3.64813-7.447-7.5576-14.92223c3.212-7.445,6.4521-14.95841,9.83693-22.61651H96.86589Q93.28407,175.93725,89.9113,183.32q-2.78586-5.57773-5.7285-11.20775-1.74268,3.90141-3.44112,7.75859l14.00567,28.27667,6.239,12.60268q1.69443-3.624,3.3969-7.24,2.56275-5.45111,5.19384-10.91028L106.0516,194.99q-2.64114,5.48728-5.21394,10.94645c-2.33964-4.96871-4.70741-9.95352-7.14756-14.95841q3.49134-7.51938,7.15156-15.14333,1.77886-3.69639,3.622-7.42493h14.99058q-3.99789,7.50735-7.68623,14.91419-2.55672-5.58979-5.21394-11.248-1.93563,3.89538-3.79891,7.75056l14.89008,32.12381,4.229,9.12942,28.1199-52.56952s.04824-.10453.12462-.25326h5.29032l35.07047-65.40538ZM68.02641,183.41645q-4.1004-7.48323-8.61083-15.00666H74.35389Q71.12784,175.99553,68.02641,183.41645Zm65.63452,0q-2.3336-5.5657-4.71546-11.21178-2.13462,3.85317-4.17678,7.69026,2.43009,5.60187,4.80791,11.13137-3.93155,7.47722-7.56162,14.92223c-2.24717-4.96871-4.48631-9.94547-6.75761-14.95841q3.74462-7.50132,7.77467-15.083,1.99593-3.7386,4.07629-7.49729h15.16746Q137.75329,175.93523,133.66093,183.41645Z"/><polygon points="100.838 108.693 6.211 108.693 34.938 162.416 100.838 162.416 166.741 162.416 195.472 108.693 100.838 108.693" fill="#418fde"/><path d="M78.32565,134.46894a14.17234,14.17234,0,0,0-4.217-2.50847,14.8423,14.8423,0,0,0-5.39885-.95274H53.04388l-.13266-.008a2.64935,2.64935,0,0,1,.04824-5.29434l28.11989-.004v-8.96059H54.55942a16.45251,16.45251,0,0,0-5.43906.88038,14.60428,14.60428,0,0,0-4.39385,2.408,11.5503,11.5503,0,0,0-3.02706,3.74262,10.63989,10.63989,0,0,0-.201,9.10127,11.15509,11.15509,0,0,0,2.64516,3.66624,12.87075,12.87075,0,0,0,4.07226,2.50847,14.52807,14.52807,0,0,0,5.31845.9246H69.60226a2.71149,2.71149,0,0,1,0,5.423H34.10567l4.68732,8.96058H70.48666a10.48623,10.48623,0,0,0,4.87625-1.12962,12.69207,12.69207,0,0,0,3.63006-2.76576,12.20274,12.20274,0,0,0,2.32356-3.74664,11.02921,11.02921,0,0,0,.812-3.9999,10.67225,10.67225,0,0,0-.98892-4.50642,11.0633,11.0633,0,0,0-2.814-3.73857" fill="#ffcd00"/><polygon points="110.204 116.737 95.254 131.277 95.254 116.737 84.641 116.737 84.641 154.352 95.254 154.352 95.254 139.808 110.204 154.352 123.169 154.352 104.351 135.41 123.213 116.737 110.204 116.737" fill="#ffcd00"/><path d="M158.55678,116.73674v14.21471H136.82467a2.38761,2.38761,0,0,1-1.89744-2.3115V116.73674h-9.02088v11.81478a10.47122,10.47122,0,0,0,.48241,3.13962,11.68385,11.68385,0,0,0,11.12334,8.3214h21.04469v3.007a2.37274,2.37274,0,0,1-2.36778,2.3718H119.23718l9.06108,8.96058h27.5209a10.46777,10.46777,0,0,0,4.91244-1.16179,12.49294,12.49294,0,0,0,3.67026-2.86626,13.55043,13.55043,0,0,0,2.32758-3.73458,10.39365,10.39365,0,0,0,.84822-3.93959V116.73675Z" fill="#ffcd00"/><path d="M100.83764,24.09587a63.53831,63.53831,0,0,0-61.6507,78.75579H78.82815V89.13543l6.53652-1.2261v14.94233h77.12768a63.53831,63.53831,0,0,0-61.65471-78.75579ZM92.54037,80.93061,86.032,82.04415V56.89906l6.50838-2.3115Z" fill="#418fde"/><path d="M109.1309,49.41382l-3.24012-1.03314V27.59729c-.89647-.07236-1.801-.13266-2.70547-.16483V47.5204l-2.34767-.74772h0v61.92405h15.473v-26.532l-7.17971-1.23012Z" fill="#fff"/><path d="M100.83764,46.76866Z" fill="#ffd520"/><path d="M151.4655,44.87926q-1.9477-2.30346-4.08835-4.422a66.23231,66.23231,0,0,0-93.075-.004q-2.14668,2.11652-4.08834,4.422A65.98254,65.98254,0,0,0,34.5961,87.59175q0,2.51451.18493,4.9848a66.08282,66.08282,0,0,0,.85626,6.78977c.209,1.17384.45426,2.33159.7236,3.48132h6.20688a60.27358,60.27358,0,0,1-1.43514-7.31238A109.11085,109.11085,0,0,1,58.298,86.38976q4.68531-1.98387,9.50327-3.50142c.1206,1.55574.1809,3.12756.1809,4.7034a60.4207,60.4207,0,0,1-1.9497,15.2559h6.19482a66.24268,66.24268,0,0,0,1.77281-15.2559c0-2.15873-.10853-4.29336-.30953-6.39983a107.49094,107.49094,0,0,1,12.33335-2.36778V72.762a114.00435,114.00435,0,0,0-13.1856,2.4522,65.97994,65.97994,0,0,0-14.45591-30.3349,59.743,59.743,0,0,1,37.394-17.282V48.38068l-3.24012,1.03314V80.92659l-7.17971,1.23012v26.532h15.481v-61.924L98.49,47.51236V27.42442c.77988-.02814,1.56378-.05628,2.34768-.05628A59.83249,59.83249,0,0,1,143.2848,44.87122a65.99912,65.99912,0,0,0-14.45591,30.3349,115.08078,115.08078,0,0,0-19.694-3.11951v6.034a108.9879,108.9879,0,0,1,18.84173,3.06726c-.201,2.10648-.30954,4.2411-.30954,6.39984a66.2426,66.2426,0,0,0,1.77282,15.25589h6.19482a60.44392,60.44392,0,0,1-1.9497-15.25589c0-1.57584.06432-3.14766.18091-4.7034q4.81194,1.52559,9.50328,3.50142a108.77914,108.77914,0,0,1,17.1654,9.14551,59.96979,59.96979,0,0,1-1.43515,7.31237h6.20688q.41-1.72456.7236-3.48132a67.224,67.224,0,0,0,.86028-6.78977q.1809-2.46626.18492-4.98479A65.89744,65.89744,0,0,0,151.4655,44.87926Zm-84.432,31.94693A114.74362,114.74362,0,0,0,40.63414,88.73744c-.008-.3819-.01206-.75978-.01206-1.1457A59.785,59.785,0,0,1,54.30616,49.36155,59.646,59.646,0,0,1,67.03347,76.82619Zm94.0157,11.91125a114.57346,114.57346,0,0,0-26.39933-11.91126,59.64608,59.64608,0,0,1,12.72731-27.46463,59.785,59.785,0,0,1,13.68408,38.23019Q161.06123,88.17064,161.04917,88.73744Z" fill="#ffcd00"/><path d="M55.19056,28.11989c-1.16982-1.73262-.47436-2.7939,1.16178-3.8994l2.1306-1.43916c2.58084-1.74066,3.29238-1.411,4.40592.27336l-1.813,1.2261L60.9673,24.116c-.28542-.42612-.67938-.33768-1.21806.02412L57.7714,25.47473c-.95676.64722-.83214,1.214-.33767,1.9497l.43014.63516c.57888.86028.97686,1.0653,1.83714.48642l1.93362-1.3065c.81606-.55074,1.009-.8.51054-1.53564l1.813-1.2261.37386.55476c.67535.997.8442,2.02205-.98089,3.25217l-2.92655,1.97382c-1.63212,1.10148-2.88234,1.35072-4.05216-.3819Z" fill="#fff"/><polygon points="67.93 17.455 69.96 16.643 70.909 19.003 75.186 17.286 74.241 14.926 76.271 14.114 78.925 20.735 76.895 21.547 75.89 19.043 71.612 20.759 72.617 23.264 70.587 24.08 67.93 17.455" fill="#fff"/><rect x="83.84885" y="11.98758" width="2.18688" height="7.13146" transform="translate(-1.35876 18.59101) rotate(-12.39209)" fill="#fff"/><path d="M92.21072,13.11725c-.10853-2.08638,1.03315-2.64114,3.00294-2.74164l2.56879-.13668c3.10746-.16482,3.54965.4824,3.63408,2.50044l-2.18287.11659-.008-.197c-.02815-.51054-.41-.63918-1.05727-.607l-2.37984.12462c-1.14971.0603-1.33865.61505-1.29444,1.49946l.0402.76782c.05629,1.03314.29347,1.415,1.3266,1.36278l2.33159-.12462c.98491-.05226,1.27435-.16482,1.2261-1.04922l2.18285-.11658.03618.66732c.06432,1.202-.32159,2.16678-2.5125,2.28336l-3.52152.18492c-1.96579.10452-3.16374-.32562-3.2763-2.412Z" fill="#fff"/><path d="M111.73987,11.0148l2.81.45024,2.74164,7.66613-2.404-.38592-.47034-1.35474-4.37779-.7035-.83214,1.1457-2.412-.38592Zm-.64319,4.28531,2.76576.4422-.97686-2.87028Z" fill="#fff"/><path d="M123.84812,16.22069c.76379-1.94568,2.03411-1.97381,3.87126-1.25424l3.06323,1.202c2.3115.90852,2.30347,1.8693,1.79694,3.16374l-.08441.209-1.99794-.7839c.25728-.65928-.08442-.88842-.73566-1.1457l-2.211-.86832c-1.02912-.402-1.39091-.2613-1.83714.87636l-.32562.8241c-.44621,1.13766-.27738,1.4874.75174,1.89342l2.1708.85224c.53064.209,1.09746.33366,1.35071-.30552l.07638-.193-2.53259-.99294.53867-1.37484,4.56672,1.79292-.73968,1.8894c-.74771,1.9095-1.77685,1.612-4.06824.71154l-2.44818-.96078c-1.83311-.71958-2.74565-1.608-1.98185-3.54966Z" fill="#fff"/><path d="M138.3603,22.65671c1.16179-1.73664,2.412-1.49142,4.04814-.398l2.9145,1.9497c1.63614,1.09746,2.33964,2.15874,1.17786,3.89136l-1.18188,1.7688c-1.16179,1.73664-2.412,1.49142-4.04815.398l-2.91449-1.9497c-1.63615-1.09746-2.33562-2.15874-1.17786-3.89136Zm1.06129,2.4522c-.57486.86028-.61506,1.3065.24521,1.88136l2.32356,1.55574c.86028.57486,1.25826.36984,1.83312-.49044l.42611-.63918c.49447-.73566.61506-1.3065-.3417-1.9497l-2.12658-1.42308c-.95676-.6432-1.43915-.31356-1.93362.42612Z" fill="#fff"/></svg>