<?xml version="1.0" encoding="UTF-8" standalone="no"?><svg xmlns:rdf="http://www.w3.org/1999/02/22-rdf-syntax-ns#" xmlns="http://www.w3.org/2000/svg" height="294.98454" width="267.88422" version="1.1" xmlns:cc="http://creativecommons.org/ns#" xmlns:dc="http://purl.org/dc/elements/1.1/" viewBox="0 0 267.88422 294.98454"><defs><style>.cls-1{fill:#fff;}.cls-2{fill:#f05023;}.cls-3{fill:#0a2240;}</style></defs><title>Connecticut Sun logo</title><path class="cls-1" d="M262.67618,142.02048c-5.3924-2.27372-18.85037-6.49854-32.77435-10.30856.16387-5.63309.30213-11.80389.15362-18.06686,9.21779-11.71684,13.43237-20.74,12.51058-26.83913a7.27334,7.27334,0,0,0-2.80631-5.03905l-1.70017-1.14711-1.8538.81937a104.18815,104.18815,0,0,1-16.58688,5.57676,207.84434,207.84434,0,0,0-23.35173-7.68149c5.14659-18.23073,5.76111-30.726,1.81794-37.19377a8.25306,8.25306,0,0,0-5.19269-4.09679l-1.99719-.36359-1.38778,1.48A130.32963,130.32963,0,0,1,155.86763,65.052c-.7067-4.5116-2.32493-11.809-5.54091-23.92016-3.3645-12.66421-8.2704-29.31256-11.09208-35.95449l-.28164-.67085-.24582-.2458a6.9232,6.9232,0,0,0-.9525-1.77187A4.78033,4.78033,0,0,0,133.8064,0a4.95284,4.95284,0,0,0-4.22993,2.95993L128.6086,4.911c-2.76533,6.27834-7.39983,22.75257-10.75409,36.2976-3.03162,12.21356-4.54231,19.60828-5.17732,24.19157A126.36948,126.36948,0,0,1,78.44336,38.64813l-1.398-1.5363-2.0484.379c-.71181.128-3.19037.80911-5.17732,4.06094-3.96877,6.48318-3.40034,19.06034,1.68993,37.41909A201.92707,201.92707,0,0,0,48.46507,86.468a148.45953,148.45953,0,0,1-16.03382-5.73551l-1.82308-.77839-1.66944,1.07541a7.20774,7.20774,0,0,0-2.9036,4.99809c-1.0242,5.94035,2.92921,14.73822,11.681,26.16315-.30726,6.80579-.17411,13.5399,0,19.70558-13.46821,3.72809-26.72134,7.94778-32.39028,10.32905C2.85751,143.04981,0,144.67317,0,147.73553c0,3.1494,2.99066,4.38356,4.26579,4.91615.17923.0717.34822.13826.48649.20484l.21508.10242c6.0479,2.5605,22.50164,7.10282,35.74453,10.49291.71182,4.43478,1.5363,8.82859,2.5605,13.31458-11.75268,10.44683-17.78009,19.004-17.89787,25.47694a7.37891,7.37891,0,0,0,2.0484,5.70991l1.5363,1.41851,2.00743-.55306a99.18784,99.18784,0,0,1,20.35082-3.344,186.70607,186.70607,0,0,0,16.89928,35.23755l.79375,1.28537,1.46972.36359a267.05568,267.05568,0,0,0,46.70345,7.492c3.70248,15.29642,8.73642,33.63982,11.77829,40.3995l.89617,1.7821a4.97531,4.97531,0,0,0,4.22481,2.9497,4.79932,4.79932,0,0,0,3.9739-2.49392,7.06651,7.06651,0,0,0,.94738-1.7821l.23045-.23045.28165-.6555c2.878-6.65729,8.22432-24.47834,12.04457-40.01032a268.80021,268.80021,0,0,0,44.8855-7.12843l1.4646-.35848.804-1.27512a195.2304,195.2304,0,0,0,17.0273-35.06856,107.75689,107.75689,0,0,1,20.6632,3.52324l1.99719.5121,1.5363-1.41339a7.44209,7.44209,0,0,0,2.04839-5.69455c-.08706-6.519-6.053-15.20935-17.734-25.84565.973-4.46038,1.8282-9.0744,2.5605-13.78059,14.32854-3.49252,30.13192-8.13726,36.17468-10.6107l.48138-.20483c1.43387-.59917,4.41429-1.84356,4.41429-4.993,0-2.26349-1.6592-3.9995-5.21317-5.45386"/><path class="cls-2" d="M261.24742,145.45155c-5.81744-2.45807-21.04216-7.13866-35.14025-10.92819.21509-7.16939.43529-14.54362.19973-22.15342,18.32291-22.83962,11.384-27.53045,11.384-27.53045a109.247,109.247,0,0,1-18.33828,6.05814,200.90036,200.90036,0,0,0-27.75578-8.92077c11.59393-38.26918.62989-40.27149.62989-40.27149-17.88252,19.03473-35.99547,27.55606-39.79523,29.12821,1.99207-2.67316-11.69122-52.55163-16.62787-64.16092a2.9084,2.9084,0,0,1-.44552-.67085,3.58472,3.58472,0,0,0-.676-1.37756c-.2202-.44552-.67085-.89617-.89617-.89617s-.67085.45065-.89105.89617l-.891,1.79235c-5.121,11.64-18.72747,65.57431-15.59853,64.90346h-.2202a.22533.22533,0,0,0-.22533-.22533h0S95.58843,63.05989,75.65241,41.15741c0,0-10.95892,2.02279.5121,40.49681a196.5847,196.5847,0,0,0-27.51,8.7569,154.89879,154.89879,0,0,1-17.68279-6.24761s-6.93382,4.48087,10.54412,26.83912c-.4404,8.05532-.21,16.10552.02561,23.71533-14.093,3.82025-29.08213,8.53157-34.89446,10.99988,0,0-2.90872.94226-2.90872,2.01767,0,.85009,1.79235,1.3417,2.68852,1.78722,5.81745,2.453,22.60406,7.13354,37.60345,10.92307.89617,6.04277,2.04839,11.8551,3.36961,17.67255-24.14036,20.8322-17.41137,27.09005-17.41137,27.09005A103.61745,103.61745,0,0,1,53.924,201.62371a183.33172,183.33172,0,0,0,17.49331,37.12207,260.1023,260.1023,0,0,0,48.78258,7.55859c3.82027,16.10551,9.21779,35.78548,12.12651,42.2738l.89617,1.78722c.22533.45065.676.89617.89618.89617s.676-.44552.89617-.89617a3.65657,3.65657,0,0,0,.67085-1.3417,2.59627,2.59627,0,0,1,.44552-.67085c2.90361-6.71874,8.70569-26.18876,12.485-42.07918a262.44675,262.44675,0,0,0,46.98-7.21035,194.29946,194.29946,0,0,0,17.6367-36.9326,108.72429,108.72429,0,0,1,24.1506,3.74857s6.7085-6.27322-17.25263-27.49974q2.00742-8.73129,3.33378-18.12831c14.98914-3.58469,31.98571-8.5367,38.02849-11.005,1.06-.47624,2.67827-.99347,2.67827-1.79234s-2.92408-2.00231-2.92408-2.00231"/><path class="cls-1" d="M216.95083,139.92089c.635-11.05623.5121-20.50958.3175-27.72506,9.10513-6.83653,7.91194-7.86072,7.91194-7.86072-.71693-.6094-3.851.18947-8.15774,1.736-.041-.6606-.06657-1.29049-.08706-1.88452,10.14981-8.19359,7.3435-9.24851,7.3435-9.24851-1.26488-.81936-4.72668,0-9.21779,1.70529l-1.96133-.57355a307.3221,307.3221,0,0,0-30.84374-7.60468c4.84958-9.45335,9.32532-19.52634,6.87238-20.34058-1.40315-.61964-9.45848,7.07209-16.00823,18.77868l-1.0242-.14851c4.97248-9.57113,9.72989-20.02307,7.20524-20.8578-1.44923-.64012-9.93985,7.42544-16.5869,19.65438-6.05813-.65549-12.13676-1.08053-18.3434-1.30073.14339-20.79635-2.35054-33.52714-4.69083-33.52714,0,0-4.95712-.33287-5.42313,33.34791h-1.72066c.17411-20.68881-2.202-33.34791-4.71132-33.34279,0,0-4.98272-.33286-5.42825,33.57835-5.43849.22532-10.78993.61452-16.11576,1.1727-6.58048-12.147-15.03524-20.14086-16.47936-19.50074-2.48881.83473,2.1969,11.1484,7.16939,20.66321l-1.20344.169c-6.5139-11.60417-14.45656-19.20372-16.01335-18.579-2.31469.80912,2.15082,10.71824,7.0004,20.09478a311.97,311.97,0,0,0-32.26225,7.89657l-1.82308.57868c-4.48086-1.67969-7.92729-2.48881-9.17681-1.66945,0,0-3.006,1.0242,7.29229,9.21779q-.0461.90129-.07682,1.905c-4.276-1.5363-7.38959-2.31469-8.10141-1.71041,0,0-1.19831,1.0242,7.89145,7.96315-.3175,7.42032-.57867,16.84294-.07682,27.73529-20.68881,2.00231-19.63388,4.14288-19.63388,4.14288.32262,1.79747,8.96173,2.18666,19.97187,1.9255a1.99961,1.99961,0,0,0,.03585.46088c-18.09759,2.15594-16.20283,3.851-16.20283,3.851.20485,1.81284,7.28718,2.21228,16.69956,1.94086a224.719,224.719,0,0,0,4.56793,28.43175c-14.0008,5.35655-14.5129,8.33185-14.5129,8.33185s2.30957,1.72064,16.25915-1.311c.21508.82959.43529,1.65408.66573,2.48368-7.04648,2.47343-12.29038,4.75228-11.99336,5.98132,0,0,.98323,1.58751,13.31458-1.4134a203.25227,203.25227,0,0,0,15.13254,36.73288l1.12149,2.23787,2.4632.44553c20.36106,4.00462,40.72725,6.4422,55.7164,6.42684s35.33485-2.49392,55.70616-6.54463l2.45807-.45065,1.11637-2.23787a220.07938,220.07938,0,0,0,14.37463-36.907c12.8537,3.15453,13.78059,1.5363,13.78059,1.5363.39432-1.25976-5.15171-3.62566-12.49009-6.14519.2202-.80911.45065-1.62336.65549-2.42735,14.5897,3.19039,16.97609,1.41851,16.97609,1.41851s-.5377-3.07259-15.26056-8.57254a246.782,246.782,0,0,0,4.6089-28.24227c10.21126.32263,18.08222-.041,18.23584-1.905,0,0,2.23788-1.79234-17.67766-4.00973v-.3175c11.77829.3175,21.206-.03072,21.45183-1.94086,0,0,1.11638-2.23787-21.02679-4.22482M179.63413,93.44276a281.14454,281.14454,0,0,1,27.62776,6.5139c-9.41239,4.317-20.21256,10.18566-25.92759,13.36067a18.02589,18.02589,0,0,0-7.1233-10.05763c1.21367-2.12521,3.23135-5.715,5.42313-9.81694m-35.38092-3.81c5.40777.18948,10.66191.57868,15.87508,1.08565a70.155,70.155,0,0,0-2.92921,7.68149H143.89986q.26117-4.56281.36871-8.762m-21.91273.08194q0,4.06606.09217,8.70569H111.75538a68.68409,68.68409,0,0,0-2.90872-7.76855c4.4399-.41992,8.931-.74767,13.51942-.94226M89.34591,93.29936c2.16106,4.00974,4.16849,7.55859,5.42313,9.7555a21.07805,21.07805,0,0,0-8.19359,10.42122c-5.69454-3.15453-16.59714-9.05392-26.08121-13.38116a273.91493,273.91493,0,0,1,28.83118-6.79556M55.61905,139.76725c-.44041-9.21779-.33287-17.31408-.11779-23.98673,9.21779,5.05954,23.75629,8.98222,30.08584,10.54925v10.65678c-8.00412.79888-18.94768,1.84356-29.97829,2.7807m.92178,12.59252c9.694-.466,20.78611-1.43388,29.29719-2.24813v19.47515a17.41086,17.41086,0,0,0,.34311,2.2686c-10.88211,2.73973-19.12691,5.1978-25.36428,7.3435a224.35066,224.35066,0,0,1-4.29651-26.83912m142.66061,51.722c-7.03112-2.17129-30.95128-8.40868-65.21071-8.37282-35.24268.03585-59.68517,6.688-65.815,8.70568-1.30073-3.58469-2.4632-7.13354-3.51813-10.65166,6.985-1.92549,16.6125-4.97248,29.88612-9.72988a27.65338,27.65338,0,0,0,15.94677,4.79324l46.53958-.04609a28.72181,28.72181,0,0,0,16.5408-4.696c12.76152,4.51671,22.14316,7.47152,29.01554,9.37141-1.0242,3.513-2.13546,7.05672-3.385,10.65165m7.16939-25.29257c-6.14519-2.07912-14.21588-4.43991-24.6883-7.05673a13.95951,13.95951,0,0,0,.38408-3.81514V149.99387c8.15262.75791,18.94767,1.66432,28.64171,2.13546a239.23437,239.23437,0,0,1-4.32212,26.6855m5.35144-39.34459c-11.04086-.98835-21.923-1.98183-29.70176-2.69876V126.253c6.35-1.57215,20.92439-5.52043,30.0756-10.59534.128,6.62657.13826,14.67677-.379,23.81262"/><path class="cls-3" d="M131.09738,209.61758V201.1065c-6.19128.06657-12.019.32262-17.4421.71182a14.41558,14.41558,0,0,1,4.09679,8.48549q6.45757-.56842,13.34531-.68621Zm23.23394-7.83511c-5.47434-.38407-11.36861-.62476-17.65206-.676v8.5367c4.56793.05632,9.02831.27141,13.3453.64012A13.82668,13.82668,0,0,1,154.33132,201.78247Zm1.11637,9.02319a126.78687,126.78687,0,0,1,28.91312,6.56,70.29614,70.29614,0,0,1,8.35234,3.81c1.7309-4.0968,3.22622-7.60979,4.94175-12.0497a157.16441,157.16441,0,0,0-15.76754-3.83562c-5.14659-1.02419-11.2969-1.96133-18.33827-2.70388-4.85982,1.08565-7.47153,4.317-8.10141,8.21919Zm-5.06467,4.87518c-4.404-.39431-8.98222-.635-13.68329-.69645v20.72466h.4865c1.32634-.0256,2.66292-.0717,3.99949-.11267,7.05161-.32262,14.53338-1.07028,21.95882-2.04839-5.40264-5.59213-11.1023-11.19961-12.76663-17.86714Zm17.21167,14.68189c.70157.75279,1.41851,1.48508,2.13546,2.22251,6.60608-1.0242,13.03293-2.1713,18.89646-3.3645.55306-1.10613,1.06516-2.20714,1.59262-3.31328a61.4524,61.4524,0,0,0-7.86584-3.61542,120.97515,120.97515,0,0,0-26.16827-5.98644c1.87428,4.25554,6.38587,9.21778,11.40444,14.05713ZM126.84184,235.581c1.27513.03585,2.5605.07681,3.81514.10243h.466V214.96392c-4.69595.07681-9.269.33286-13.67816.74255-1.608,6.65729-7.13867,12.29038-12.52595,17.8569,7.41008.99347,14.88161,1.72577,21.923,2.01767ZM111.70931,216.3517a123.84082,123.84082,0,0,0-26.24509,6.0274,58.65616,58.65616,0,0,0-7.91706,3.68712c.548,1.08053,1.08565,2.1713,1.65921,3.257,5.96083,1.183,12.45937,2.33,19.11666,3.32864.71694-.73742,1.43388-1.47484,2.14057-2.23274,4.83422-4.82909,9.28949-9.79646,11.24571-14.052Zm-28.03744,1.10614a122.94623,122.94623,0,0,1,28.89776-6.65729c-.65549-3.92269-3.28768-7.12331-8.15774-8.19359-7.1233.763-13.35043,1.7309-18.51751,2.75-7.26156,1.43387-13.03292,3.01115-15.87507,3.87659,1.5619,3.979,3.29792,7.999,5.20293,12.02921a71.05861,71.05861,0,0,1,8.44963-3.78953Zm7.10794-48.337c.90642,8.70568,9.85791,14.53338,19.70558,14.52312l46.53958-.05121c9.61722,0,17.89275-4.04558,19.67486-12.77176a17.62152,17.62152,0,0,0,.44552-3.58469V153.81414h-.70157c-5.59724,0-10.5134,1.35195-14.54362,4.486a15.747,15.747,0,0,0-5.121,5.60236l-44.97256.04609V123.22645l44.97256-.04609.23045,10.06787c10.2932,0,19.91042-4.49623,19.90019-14.5641v-.44552c0-10.2932-9.63772-14.75871-19.9309-14.74847l-46.53958.04609c-9.84255,0-18.78893,5.83793-19.67486,14.78943l.03073,25.28746Z"/></svg>