<?xml version="1.0" encoding="UTF-8" standalone="no"?>
<svg xmlns:rdf="http://www.w3.org/1999/02/22-rdf-syntax-ns#" xmlns="http://www.w3.org/2000/svg" height="176.50283" width="277.763" version="1.1" xmlns:cc="http://creativecommons.org/ns#" xmlns:dc="http://purl.org/dc/elements/1.1/" viewBox="0 0 277.763 176.50283"><path d="M266.80534,32.03011l3.48395-6.125-6.406,2.86585a54.06642,54.06642,0,0,1-7.19272,2.4163C269.615,21.74677,277.763,0,277.763,0l-5.11358,3.14681-1.5734.9553a347.65647,347.65647,0,0,1-57.42946,26.63558c-8.09182,2.86585-15.28454,4.945-21.57818,6.74317-19.8924,5.67551-31.86156,9.1033-31.01865,27.59087.33715,6.91175-.8991,12.02534-3.65257,14.89119a8.01793,8.01793,0,0,1-2.64108,1.85437,3.84621,3.84621,0,0,1-.50574-1.85437l-.05619-.44954v-.84291c.11239-2.24772,2.023-7.24891,2.69728-8.9909.11238-.33716.33716-.78672.50573-1.29245,3.42779-8.76614,2.023-14.554,1.96676-14.835l-.05618-.22478-.16859-.22478a4.17739,4.17739,0,0,0-.73051-1.18,17.61261,17.61261,0,0,0-2.3601-2.64107,18.18606,18.18606,0,0,0,2.13533-3.98973,20.28059,20.28059,0,0,0,.33716-12.53106l-.61812-1.7982-1.85437.22477a27.429,27.429,0,0,0-13.2616,4.88881,9.70528,9.70528,0,0,0-1.57342-1.461l-3.09063-2.24773-.50573,3.76494a15.63085,15.63085,0,0,0-3.59636-.67432,27.63158,27.63158,0,0,0-12.30631-4.27068l-1.85439-.22477-.56192,1.7982c-.16859.39334-2.97825,9.04708,2.4725,16.52079a14.99,14.99,0,0,0-2.36012,2.64107,4.33035,4.33035,0,0,0-.78672,1.18l-.11236.22478-.05621.22478c-.05619.281-1.51721,6.06886,1.91058,14.835l.16857.39335c.78672,2.023,2.922,7.47369,3.03444,9.89v1.34864a3.8462,3.8462,0,0,1-.50575,1.85437,9.06675,9.06675,0,0,1-2.69726-1.91056c-2.69728-2.86585-3.93354-7.97944-3.65255-14.89119.89908-18.48757-11.12628-21.91536-30.96247-27.59087-6.34982-1.79817-13.48637-3.87732-21.5782-6.74317A342.34565,342.34565,0,0,1,6.7432,4.10211l-1.62963-.9553L0,0S8.148,21.74677,21.07245,31.18722a53.31167,53.31167,0,0,1-7.13653-2.4163L7.47368,25.90507l3.54017,6.125a56.6826,56.6826,0,0,0,14.89122,16.296c-.84292,0-1.742.05619-2.5849.05619a49.09863,49.09863,0,0,1-7.58608-.44954L9.1033,46.97751l4.60783,4.83262c.44955.44954,8.65377,8.9909,17.4761,13.31779a46.08143,46.08143,0,0,1-8.26042,1.79818l-4.7764.56192,3.484,3.3716c.33718.33716,7.41752,7.19272,19.89241,12.53109-5.90027,1.5734-9.66523,2.36012-9.66523,2.36012,2.75348,3.37158,6.406,8.03561,11.351,13.71113h-.05619l1.34863,1.51722c1.51722,1.742,3.203,3.59636,5.00122,5.56313v12.25011a13.82314,13.82314,0,0,0,5.95646,11.29484,18.07192,18.07192,0,0,0,10.67672,3.3154h7.4175v13.655H94.62936c6.85557,5.16976,14.32926,10.45194,22.58965,15.95886,6.406,4.27068,21.5782,13.48636,21.5782,13.48636s16.40842-10.00238,23.32019-14.66641c7.52988-5.05738,14.44165-9.94619,20.73529-14.77881H204.2061V133.45885h7.19274a18.46876,18.46876,0,0,0,10.22716-3.31541,13.88,13.88,0,0,0,6.01267-11.29482v-11.5758a277.79377,277.79377,0,0,0,18.09422-21.522s-1.23626-.281-3.3716-.78672c-.05619,0-2.5849-.61811-6.01267-1.51721A70.75645,70.75645,0,0,0,256.241,70.85962l3.42779-3.3716-4.7764-.56192a46.08132,46.08132,0,0,1-8.26041-1.79818c8.82232-4.32689,16.97035-12.86825,17.4199-13.31779l4.60783-4.83262-6.63079.95529a56.69913,56.69913,0,0,1-7.58609.44954c-.84289,0-1.742,0-2.58489-.05619A56.36137,56.36137,0,0,0,266.80534,32.03011Z" fill="#00a8e1"/><path d="M264.78238,30.85c-6.968,3.14684-18.3752,4.77643-18.3752,4.77643,15.50932-8.59755,23.71354-24.61262,25.90507-29.44524l-.05619-.11238A345.15187,345.15187,0,0,1,214.43326,32.873c-33.37876,11.913-52.09109,10.05861-51.07962,32.08633.67432,14.04829-4.88881,18.26278-8.99091,19.499-2.24773-1.23626-2.24773-3.03444-2.4725-4.72023V78.61427c.11239-2.30392,1.461-6.23744,2.86585-9.77761a10.38841,10.38841,0,0,0,.50574-1.29245c3.203-8.148,1.85438-13.43017,1.85438-13.43017H157.06a7.32177,7.32177,0,0,0-.56193-.84291,13.74362,13.74362,0,0,0-3.82114-3.59636c6.74319-6.91177,3.59637-16.18364,3.59637-16.18364-6.79938.7867-11.23864,3.42779-13.93592,5.9003a9.31476,9.31476,0,0,0-2.4725-2.86585,5.79409,5.79409,0,0,1-1.29243,2.97824,4.173,4.173,0,0,0-2.24774-1.29245,10.97557,10.97557,0,0,1-.16857,1.91057c-2.5849-2.58489-7.19274-5.7317-14.72264-6.57462,0,0-3.09061,9.21568,3.65257,16.12745a14.11062,14.11062,0,0,0-3.87733,3.65256,5.47191,5.47191,0,0,0-.56194.8429s-1.34862,5.226,1.85439,13.43017l.05619.0562.05619.281c1.51721,3.76495,3.14682,8.20422,3.203,10.67671a8.45057,8.45057,0,0,1,0,1.6858c-.16859,1.51721-.39335,3.03443-2.41631,4.1583-4.10209-1.23626-9.66522-5.45075-8.99092-19.44285C115.42083,42.93161,96.7085,44.786,63.38593,32.92919A344.49131,344.49131,0,0,1,5.50694,6.125l-.05622.05619C7.64228,11.01385,15.90266,27.08511,31.3558,35.62647c0,0-11.40722-1.62959-18.37518-4.72021,0,0,8.148,14.27307,21.07245,19.33045,0,0-11.74439,1.06767-18.71232,0,0,0,12.58727,13.26159,22.81443,14.94738A66.23252,66.23252,0,0,1,23.20776,69.23s9.3281,9.15949,25.45556,14.49785c-6.29365,2.02295-12.69967,3.484-12.69967,3.484A218.16837,218.16837,0,0,0,51.75394,105.306v13.54257a11.7069,11.7069,0,0,0,5.00119,9.44046,15.9047,15.9047,0,0,0,9.32808,2.86585h9.77762v13.65495H96.03418a446.041,446.041,0,0,0,42.87541,29.16427,445.2327,445.2327,0,0,0,42.81923-29.16427h20.17337V131.09873h9.44044a15.51112,15.51112,0,0,0,8.93473-2.86585,11.53487,11.53487,0,0,0,5.00119-9.38427v-12.812a226.61041,226.61041,0,0,0,16.577-18.88092s-6.406-1.461-12.75585-3.484c16.12745-5.33835,25.51171-14.49784,25.51171-14.49784a66.13632,66.13632,0,0,1-15.00358-4.04592c10.22715-1.742,22.81443-14.94738,22.81443-14.94738-6.968,1.06767-18.71232,0-18.71232,0C256.63436,45.12314,264.78238,30.85,264.78238,30.85Z" fill="#0d2240"/><path d="M251.97034,22.70205a102.88769,102.88769,0,0,1-31.58058,17.30751c-18.319,6.01267-21.18485,7.08034-32.70445,10.22716-11.46342,3.14682-15.7341,7.08035-15.67791,12.4187.05619,5.39454,2.24773,27.36609-19.55522,29.38905A18.9475,18.9475,0,0,0,164.19655,82.885c7.13653-12.30631,2.07915-20.51053,5.05738-25.84888,3.54017-6.29364,8.37279-7.75466,23.15161-12.13773C207.12816,40.51531,224.60425,36.13225,251.97034,22.70205Z" fill="#00a8e1"/><path d="M240.226,39.39143s-7.19274,6.29364-22.92684,10.73291c-15.7341,4.49546-31.01864,9.72143-31.01864,9.72143s41.41439-3.14682,53.49592-5.28216c0,0-6.06886,4.664-25.90507,7.30511-19.89238,2.58489-31.58058,3.09063-31.58058,3.09063s38.71713,5.226,53.27116,5.05739c0,0-6.687,3.2592-25.96126,2.30392-19.27427-1.01148-27.81563-2.69727-27.81563-2.69727s8.26041,7.4175,40.51529,15.05978c0,0-11.23864.95528-21.18483-2.023a175.30668,175.30668,0,0,1-20.62291-7.81086,173.21432,173.21432,0,0,0,12.53109,15.39694s-6.18124-1.40483-13.93592-9.83381c0,0-4.8888,10.95767-11.80056,11.5758,0,0,8.48517-8.76614,8.54136-19.61143s-1.51721-14.1045,12.98063-18.319S226.4586,43.21259,240.226,39.39143Z" fill="#c4d600"/><path d="M25.7927,22.70205A102.88757,102.88757,0,0,0,57.37327,40.00956c18.37518,6.01267,21.241,7.08034,32.70444,10.22716s15.7903,7.08035,15.7341,12.4187c-.11238,5.39454-2.30392,27.36609,19.55523,29.38905A19.12385,19.12385,0,0,1,113.56648,82.885c-7.08035-12.30631-2.023-20.51053-5.05739-25.84888-3.54017-6.29364-8.37279-7.75466-23.09541-12.13773s-32.2549-8.76612-59.56479-22.19632Z" fill="#00a8e1"/><path d="M37.53708,39.39143S44.7298,45.68507,60.4639,50.12434c15.79029,4.49546,31.07484,9.72143,31.07484,9.72143S50.06816,56.699,37.98662,54.56361c0,0,6.06887,4.664,25.96126,7.30511,19.8362,2.58489,31.58058,3.09063,31.58058,3.09063s-38.77331,5.226-53.27116,5.05739c0,0,6.6308,3.2592,25.90507,2.30392C87.49283,71.30918,95.978,69.56719,95.978,69.56719s-8.26039,7.4737-40.51529,15.116c0,0,11.23864.95528,21.241-2.023a175.30506,175.30506,0,0,0,20.62291-7.81086A178.58669,178.58669,0,0,1,84.73936,90.24629s6.18126-1.40483,13.99211-9.83381c0,0,4.83262,10.95767,11.74438,11.5758,0,0-8.48517-8.76614-8.54137-19.61143s1.51722-14.1045-12.98063-18.319C74.5122,49.84337,51.3606,43.21259,37.53708,39.39143Z" fill="#c4d600"/><path d="M153.23889,55.57506a13.3323,13.3323,0,0,0-3.14682-2.52869,15.137,15.137,0,0,0-3.09063-3.87733,11.69676,11.69676,0,0,0,5.95648-11.12624s-5.73171,1.461-8.31659,4.60785c-.281.33715-.50574.67432-.73051.95527.39335,2.75346-.16859,6.29363-2.97825,10.56431a5.48741,5.48741,0,0,0-.56193,5.78791s-2.4725-.16859-4.04591-3.42779c-2.07915-4.21449,1.34864-7.58607-1.51722-11.68817-.281-.39336-.61812-.84289-.95528-1.29245a17.09461,17.09461,0,0,0-4.83261-3.87734,23.07573,23.07573,0,0,0-4.27069-1.62959A11.69676,11.69676,0,0,0,130.70541,49.169a16.15623,16.15623,0,0,0-3.09062,3.87733,15.143,15.143,0,0,0-3.14682,2.52869,11.73874,11.73874,0,0,0,.89908,4.83262,6.412,6.412,0,0,0,2.97825,6.46223,26.11817,26.11817,0,0,0,1.6296,8.48517,15.9003,15.9003,0,0,0,.89909-5.33835s3.3154,4.15828,1.40483,13.1492c0,0-.16858.33716-.44954.7867-.50575.8991-1.23626,2.023-1.62961,2.5849-.44954.84289,2.86585,6.91175,2.86585,6.91175a10.00146,10.00146,0,0,0,5.33836,1.461h.78671c3.70875-.16858,5.39454-1.461,5.39454-1.461s3.3154-6.06886,2.80966-6.91175c-.33715-.56194-1.06767-1.742-1.57341-2.5849-.281-.44954-.44954-.7867-.44954-.7867-1.96676-8.99092,1.40483-13.1492,1.40483-13.1492a17.37366,17.37366,0,0,0,.8429,5.33835,24.84192,24.84192,0,0,0,1.68579-8.54138,6.465,6.465,0,0,0,2.97824-6.406,11.70012,11.70012,0,0,0,.8429-4.83262Z" fill="#fff"/><path d="M153.23889,55.57506a32.72537,32.72537,0,0,1-2.97824,2.5849c-.95529.67432-3.82114,5.45073-3.82114,5.45073s-2.19154.56194-2.13534,2.13534c0,1.51723.44954.78672-.16858,3.65257-.56193,2.41631-2.07915,8.148.73051,12.98063a13.92423,13.92423,0,0,0,1.68579,2.75347c-1.6296-7.24893-.39335-11.632.33716-13.48638a20.73753,20.73753,0,0,0,.78671,3.70876c2.24773-5.56313,1.57341-8.429,1.6296-8.48517C154.19417,63.94785,153.23889,55.57506,153.23889,55.57506Z" fill="#c4d600"/><path d="M132.78457,82.5478c2.97823-4.88879,1.40483-10.6767.89908-13.1492-.67432-2.86585-.22477-2.13534-.16857-3.65255,0-1.57342-2.19155-2.13534-2.19155-2.13534s-2.86585-4.77643-3.82113-5.45075a31.43158,31.43158,0,0,1-2.922-2.52869s-1.01148,8.3166,3.82114,11.23864c.11238.05619-.56193,2.922,1.6858,8.48517a25.59861,25.59861,0,0,0,.7867-3.59636c.73051,1.85437,1.91058,6.23745.281,13.374A10.51192,10.51192,0,0,0,132.78457,82.5478Z" fill="#c4d600"/><path d="M144.64133,89.74053l-1.62961-1.57341a4.63728,4.63728,0,0,1-8.26041,0l-1.62959,1.57341c-1.18007-.44955-2.24774-2.19154-2.80966-3.14681-.50575.84289,2.80966,6.91175,2.80966,6.91175a10.76452,10.76452,0,0,0,5.39454,1.461h.7867a10.00148,10.00148,0,0,0,5.33837-1.461s3.31539-6.06886,2.86585-6.91175C146.94524,87.60519,145.82138,89.291,144.64133,89.74053Z" fill="#c4d600"/><path d="M137.22382,90.47105S136.1,87.09947,134.52655,86.0318c0,0-3.14682,1.79818-2.023,3.37158a2.20122,2.20122,0,0,0,1.742,1.12388s-.73051-.8991.44954-1.742A8.29994,8.29994,0,0,0,137.22382,90.47105Z" fill="#0d2240"/><path d="M140.483,90.47105s1.12386-3.37158,2.75345-4.43925c0,0,3.09063,1.79818,2.023,3.37158a2.20122,2.20122,0,0,1-1.742,1.12388s.73051-.8991-.50573-1.742A7.67382,7.67382,0,0,1,140.483,90.47105Z" fill="#0d2240"/><path d="M132.84075,48.7195c-.61813-4.664-5.50694-8.76613-8.09184-10.6767a11.82168,11.82168,0,0,0,6.01269,11.12625,13.79688,13.79688,0,0,0-3.09063,3.87733A13.709,13.709,0,0,1,132.84075,48.7195Z" fill="#c4d600"/><path d="M144.8661,48.7195c.67431-4.664,5.50693-8.76613,8.09182-10.6767a11.69679,11.69679,0,0,1-5.95648,11.12625,14.88259,14.88259,0,0,1,3.09062,3.87733A13.46327,13.46327,0,0,0,144.8661,48.7195Z" fill="#c4d600"/><path d="M142.89934,96.31515a13.51955,13.51955,0,0,1-3.65257.67432h-.73051a13.51941,13.51941,0,0,1-3.65255-.67432l-.56194-.22476.39335,1.5734.11238.05619a6.02455,6.02455,0,0,0,3.25922,1.06768,3.98029,3.98029,0,0,0,.7867.0562,3.45513,3.45513,0,0,0,.7867-.0562A6.37958,6.37958,0,0,0,142.95553,97.72l.05619-.05619.44954-1.5734Z" fill="#c4d600"/><path d="M126.49092,57.37326a7.05115,7.05115,0,0,0,.95527,2.80966,1.88145,1.88145,0,0,0,.1124,2.41631,15.43152,15.43152,0,0,1,1.23624-1.461,3.606,3.606,0,0,0,.22478,2.30392c.50573,1.06767.95527,1.34864,2.24772,2.07915a5.1792,5.1792,0,0,1,1.96677,1.68579s1.40483-2.30392-.95529-5.11358C130.6492,60.18292,129.18818,59.78957,126.49092,57.37326Z" fill="#0d2240"/><path d="M151.27213,57.37326a7.37726,7.37726,0,0,1-.8991,2.80966,1.84559,1.84559,0,0,1-.16859,2.41631,10.02064,10.02064,0,0,0-1.23624-1.461,4.01622,4.01622,0,0,1-.16859,2.30392c-.50573,1.06767-.95527,1.34864-2.30391,2.07915a5.1792,5.1792,0,0,0-1.96677,1.68579s-1.40483-2.30392.95529-5.11358C147.11383,60.18292,148.57485,59.78957,151.27213,57.37326Z" fill="#0d2240"/><path d="M89.01005,137.50476H85.02033V133.0655h3.98972v4.43926Zm.50574-6.406H82.7726v8.3166h6.74319a1.69014,1.69014,0,0,0,1.23625-.44954,1.2788,1.2788,0,0,0,.56193-1.06767v-5.226a1.46685,1.46685,0,0,0-.56193-1.12387,1.64532,1.64532,0,0,0-1.23625-.39335Z" fill="#c4d600"/><path d="M110.47585,133.06551v1.79818h-3.98972v-1.79818Zm1.79818-1.51723a2.2514,2.2514,0,0,0-1.29244-.44954h-4.945a2.00372,2.00372,0,0,0-1.29245.44954,1.41473,1.41473,0,0,0-.50574,1.12388v6.74318h2.24773v-2.58488h3.98972v2.58488h2.30392v-6.74318a1.46682,1.46682,0,0,0-.56193-1.12388Z" fill="#c4d600"/><polygon points="128.008 131.099 125.76 131.099 125.76 139.415 132.391 139.415 132.391 137.449 128.008 137.449 128.008 131.099" fill="#c4d600"/><polygon points="147.62 131.099 145.372 131.099 145.372 139.415 152.059 139.415 152.059 137.449 147.62 137.449 147.62 131.099" fill="#c4d600"/><path d="M171.27689,134.86368h-3.98971v-1.742h3.98971Zm.44956-3.76495h-4.945a2.25134,2.25134,0,0,0-1.29243.44955,1.38392,1.38392,0,0,0-.50575,1.06767v6.79938H167.231v-2.64108h4.0459v2.64108h2.24774v-6.74318a1.61611,1.61611,0,0,0-.50575-1.12387,1.85758,1.85758,0,0,0-1.29243-.39335Z" fill="#c4d600"/><path d="M195.04662,134.6389l-6.29364-.61812v-.95528h6.29364v-1.96677h-6.79938a1.96374,1.96374,0,0,0-1.23625.44955,1.67181,1.67181,0,0,0-.56193,1.12387V135.819l6.29364.67432v.95527h-6.29364v1.96677h6.74318a2.00367,2.00367,0,0,0,1.29245-.44954,1.38393,1.38393,0,0,0,.50573-1.06767V134.6389Z" fill="#c4d600"/><path d="M118.39909,125.02988h-9.89V101.37255l.73051.05619c2.64108.22478,5.67552.39335,8.54137.56194l.61812.05619Z" fill="#c4d600"/><path d="M109.80154,123.73742h7.30511V103.28309c-2.4725-.16857-5.00119-.33714-7.30511-.50573Z" fill="#fff"/><path d="M165.03946,125.02988a11.51427,11.51427,0,0,1-5.45075-1.34862l-.11238-.05621c-1.96677-1.23624-2.36012-2.64107-2.36012-3.65255l.05619-12.812a4.67628,4.67628,0,0,1,2.41631-3.76494,11.91391,11.91391,0,0,1,5.50694-1.6858c6.91175-.50574,13.76733-1.23625,20.39813-2.07915l.73051-.11239v6.687l-.56194.05619c-5.33835.56193-15.39694,1.29244-17.92563,1.51721v10.95768l7.86706-.16858v-7.58609l10.50813-.67431v14.66642Z" fill="#c4d600"/><path d="M184.988,100.97917c-6.46223.8429-13.093,1.51722-19.78,1.96677a10.46412,10.46412,0,0,0-4.945,1.57341,3.42348,3.42348,0,0,0-1.85437,2.64108v12.86824a3.24154,3.24154,0,0,0,1.742,2.5287,9.97665,9.97665,0,0,0,4.88881,1.18v0l19.78-.05619V111.65588l-7.97944.56193v7.58609l-10.39573.22477V106.5423h.56192c.16859,0,11.6882-.8429,17.92563-1.461Z" fill="#fff"/><path d="M190.43878,125.02988v-6.85556h.61812c6.06887-.22478,12.02535-.50574,17.81325-.8429v-2.13535l-18.43137-2.13534.05619-8.48517a5.87263,5.87263,0,0,1,2.36011-4.38307,11.989,11.989,0,0,1,5.56313-2.52869c6.91177-1.18006,13.71114-2.64108,20.22956-4.32688l.7867-.22477v8.148l-.50574.11239c-5.73171,1.18-11.74438,2.19153-17.81325,3.09063v1.5734l18.37518,1.742v10.28337a6.50329,6.50329,0,0,1-2.36011,4.88881,9.00571,9.00571,0,0,1-5.61932,1.96675c-6.85557,0-13.655.05619-20.45433.11238Z" fill="#c4d600"/><path d="M191.73122,119.41056v4.32689c6.57459-.05619,13.1492-.05619,19.78-.1124a7.10928,7.10928,0,0,0,4.77641-1.68578,4.92614,4.92614,0,0,0,1.91058-3.87733v-9.10331l-18.37517-1.742v-3.87733l.56192-.05619c6.06886-.89909,12.02534-1.91057,17.81325-3.03443V94.79794c-6.34983,1.57341-12.92444,2.97824-19.55524,4.1583a9.97893,9.97893,0,0,0-4.945,2.24773,4.42243,4.42243,0,0,0-1.91056,3.37159l-.05619,7.36131,18.43136,2.13534v4.49546l-.61813.05619C203.75656,118.90483,197.80008,119.1858,191.73122,119.41056Z" fill="#fff"/><path d="M152.56456,125.02988H141.944v-16.4084h-7.867v16.4084H123.51267v-22.702h.61813c.11238,0,6.74318.16857,10.11476.22476,3.42779.0562,6.85558.0562,10.33956,0h.22476a11.12232,11.12232,0,0,1,5.33837,1.23626,4.01551,4.01551,0,0,1,2.41631,3.54017v17.70085Z" fill="#c4d600"/><path d="M143.18029,123.73742h8.09182V107.329a2.9262,2.9262,0,0,0-1.79819-2.41631,9.119,9.119,0,0,0-4.72023-1.06767h-.16857c-3.484.05619-6.91177.05619-10.39575,0-2.69728-.05619-7.64228-.16858-9.44046-.22478v20.11717h8.09182v-16.4646h.61813q4.55165.08428,9.1033,0h.67432Z" fill="#fff"/><path d="M103.11455,125.02988H66.64516a9.00557,9.00557,0,0,1-5.61932-1.96675,6.50331,6.50331,0,0,1-2.36011-4.88881V93.11215l10.62051,2.4725v21.69057l6.29364.33716V96.87709l10.67671,1.85438v19.33047l6.29363.22476V99.63056l.73052.11238,9.27187,1.06768.56194.05619Z" fill="#c4d600"/><path d="M59.95817,94.68554v23.43257a5.21566,5.21566,0,0,0,1.91056,3.93352,7.20324,7.20324,0,0,0,4.83262,1.62961H101.8221V101.99066l-7.92324-.89908v18.54376l-8.87853-.33716v-19.499l-8.148-1.40483V118.961l-8.87853-.39337V96.59612Z" fill="#fff"/><path d="M105.81181,145.25944c3.82114,2.86585,7.75467,5.61932,11.57581,8.20419a24.51652,24.51652,0,0,1,3.87733-5.7317Z" fill="#00a8e1"/><path d="M171.95123,145.25944l-15.62172,2.5849a23.40214,23.40214,0,0,1,3.87733,5.7317C164.08417,150.99116,168.13009,148.1815,171.95123,145.25944Z" fill="#00a8e1"/><path d="M149.8673,160.20682c1.461-.95527,2.922-1.96675,4.43925-3.03442a18.17239,18.17239,0,0,0-7.81085-4.60784A16.1282,16.1282,0,0,0,149.8673,160.20682Z" fill="#fff"/><path d="M140.20206,151.55305v14.835c2.24772-1.40482,4.77641-2.97824,7.52988-4.77642-2.023-2.75347-3.76495-5.90029-3.87733-9.66522A27.86507,27.86507,0,0,0,140.20206,151.55305Z" fill="#c4d600"/><path d="M133.90842,151.94642c-.1124,3.76495-1.85439,6.91177-3.82114,9.66523,2.69726,1.79819,5.28216,3.3716,7.52988,4.77643v-14.835A27.69019,27.69019,0,0,0,133.90842,151.94642Z" fill="#fff"/><path d="M123.45649,157.17237c1.51721,1.01148,2.97823,2.023,4.43926,3.03444a16.12824,16.12824,0,0,0,3.37159-7.64228A18.17253,18.17253,0,0,0,123.45649,157.17237Z" fill="#c4d600"/><path d="M140.20206,148.96818c1.23624.05621,2.52869.16859,3.76493.33716a7.08473,7.08473,0,0,1,2.30393-4.43925,2.44229,2.44229,0,0,1,.39335-.33716,19.98164,19.98164,0,0,0-6.46221-1.461Z" fill="#fff"/><path d="M131.26734,149.86727a4.85351,4.85351,0,0,0-1.461-3.03443,3.87473,3.87473,0,0,0-1.5734-.8429,21.05281,21.05281,0,0,0-7.92325,8.93472l1.06767.73051A21.32285,21.32285,0,0,1,131.26734,149.86727Z" fill="#fff"/><path d="M149.53014,145.99a4.275,4.275,0,0,0-1.57342.84291,4.81612,4.81612,0,0,0-1.40483,3.03444,21.14568,21.14568,0,0,1,9.83381,5.78789l1.06767-.73051A20.34326,20.34326,0,0,0,149.53014,145.99Z" fill="#c4d600"/><path d="M131.49211,144.86608a7.08481,7.08481,0,0,1,2.30391,4.43926,28.40633,28.40633,0,0,1,3.82114-.33716v-5.90029a19.34124,19.34124,0,0,0-6.46221,1.461Z" fill="#c4d600"/></svg>