<?xml version="1.0" encoding="UTF-8" standalone="no"?>
<svg xmlns:rdf="http://www.w3.org/1999/02/22-rdf-syntax-ns#" xmlns="http://www.w3.org/2000/svg" height="240.98954" width="254.44921" version="1.1" xmlns:cc="http://creativecommons.org/ns#" xmlns:dc="http://purl.org/dc/elements/1.1/" viewBox="0 0 254.44921 240.98954"><path d="M110.95775,110.90645c8.973-2.71753.15382,15.79252-11.48546,14.71574C101.01053,119.57181,105.16375,112.64978,110.95775,110.90645Z" fill="#fff"/><path d="M251.03934,97.26747a10.24812,10.24812,0,0,0-10.15233-6.4093h-1.33313a14.129,14.129,0,0,0-1.53825-13.79279,13.51372,13.51372,0,0,0-7.17841-4.92235A120.64383,120.64383,0,0,0,120.49479,0C54.04321,0,0,54.09445,0,120.546a118.33748,118.33748,0,0,0,7.07586,40.558,26.17245,26.17245,0,0,0-2.51244,10.56252,25.7401,25.7401,0,0,0,7.94751,18.4075,28.28308,28.28308,0,0,0,15.6387,7.69115A120.47291,120.47291,0,0,0,239.759,138.23569a35.33,35.33,0,0,0,13.5877-25.27827c.05127-.97421.10254-1.84586.10254-2.66626A36.70328,36.70328,0,0,0,251.03934,97.26747Z" fill="#002d62"/><path d="M224.069,116.95683h7.53731c.05128,1.17932.05128,2.4099.05128,3.58922A111.31768,111.31768,0,0,1,120.49478,231.70888a108.51478,108.51478,0,0,1-17.89476-1.487,31.5595,31.5595,0,0,1-8.81919,1.1793,33.13426,33.13426,0,0,1-26.6114-13.38261A111.13153,111.13153,0,1,1,226.58144,87.4228h-7.94752C218.6852,87.37152,204.6873,110.54754,224.069,116.95683Z" fill="#ffd520"/><path d="M219.45433,113.16251V101.113h4.92232a105.46335,105.46335,0,1,0,1.84588,19.433c0-2.46118-.15381-4.92235-.25636-7.38353Z" fill="#e03a3e"/><path d="M120.49479,18.5613A101.9591,101.9591,0,1,0,222.4795,120.546,102.07212,102.07212,0,0,0,120.49479,18.5613Z" fill="#002d62"/><path d="M52.96644,98.54933a71.04768,71.04768,0,0,1,138.287,15.43358h3.79431A74.82539,74.82539,0,0,0,49.01831,98.54933Zm67.52835,93.0117a70.60644,70.60644,0,0,1-44.71126-15.94632H70.04081a74.71969,74.71969,0,0,0,121.67408-32.149h-3.99941A71.0945,71.0945,0,0,1,120.49479,191.561Z" fill="#e03a3e"/><path d="M185.81834,69.06656l-1.33314,2.46117,2.66627,3.179L195.099,60.45248l-2.82008-3.33283-15.43358,5.3838,2.66625,3.23028,2.71755-.92293Zm1.64078-2.82008L185.30559,63.734l4.81979-1.89715.05128.05127ZM161.87321,33.636l3.3841,1.99969,1.64078,11.69055,4.71724-8.05006,3.43539,1.9997-7.63988,13.22877-3.43539-2.051L162.386,40.76311l-4.71725,8.05009-3.38411-1.94843ZM137.6717,39.01977l.51275,2.82011,4.15321.71784-3.02517-16.04888-4.25578-.76911-8.46028,14.04916,4.15323.76913,1.487-2.46117Zm-.46148-3.179-3.23027-.564,2.46116-4.51214h.05127Zm-23.22728,4.25579-3.94813.46147-1.5895-15.22849,3.94812-.41021ZM84.60272,48.04406l5.23-2.051A7.69851,7.69851,0,0,0,94.191,35.99461a7.53757,7.53757,0,0,0-9.9985-4.15324l-5.23,2.10224Zm-.71784-12.5622.87167-.35894a4.08543,4.08543,0,0,1,5.64018,2.30736,4.06843,4.06843,0,0,1-2.46117,5.64019l-.82039.30763ZM51.22311,53.78679,54.197,51.12053l11.69055,2.15354-6.20419-7.02459,2.97392-2.615L72.80962,55.06865,69.8357,57.73492,58.14515,55.47886v.05127l6.2042,6.97332-2.97391,2.66626ZM37.8405,71.83537l2.051-3.3841,12.97242,8.05009-2.051,3.33282Z" fill="#ffd520"/><path d="M60.4525,122.64829c-1.33313.41018-2.92264.87166-3.33284,1.02549a16.87945,16.87945,0,0,0,1.69206-8.20391,16.48736,16.48736,0,0,0-3.89686-9.74212,3.841,3.841,0,0,0-3.94812-1.33315,3.93508,3.93508,0,0,0-2.82009,3.07648,3.80306,3.80306,0,0,1-1.53823,2.30733,3.72511,3.72511,0,0,1-2.66627.71785,1.28274,1.28274,0,0,1-1.17931-.76912c-.41019-.71784-.10255-2.46116,1.38441-3.84558l.15382-.15381c.10255-.05129,7.281-6.922,28.91875-8.25518C68.4,102.29236,63.73406,110.0348,60.4525,122.64829ZM244.989,99.72864a3.80144,3.80144,0,0,0-3.743-2.40989h-2.66626a3.79066,3.79066,0,0,0-2.46117,1.487c-1.48693,2.82009-8.409,11.28036-11.33162,9.7934-3.179-1.692,6.358-16.15142,6.358-16.15142,2.30733-2.82008,2.9739-5.23,2.9739-7.17841a7.37832,7.37832,0,0,0-1.33311-4.307,8.23672,8.23672,0,0,0-9.79342-2.25609,8.48133,8.48133,0,0,1-4.25578.05127c-.41017-3.07644-1.74331-7.02456-5.07614-8.7679-1.33315-.71783-3.94812-1.53824-7.48607.41021a8.29321,8.29321,0,0,0-4.102,6.30672,7.94126,7.94126,0,0,0-.05126,1.12805,11.39973,11.39973,0,0,0,3.3841,7.845,2.31537,2.31537,0,0,1,.35892.35892,67.80288,67.80288,0,0,1-3.69176,7.48607c.05129-.564.10256-1.12805.10256-1.69206a8.43289,8.43289,0,0,0-2.97393-6.87077c-3.89685-3.28156-8.973-2.71755-11.43418-1.84588-6.15291,1.9997-18.61259,8.87047-23.32983,21.89415.97422-3.743.564-6.25546-.20511-7.94753a6.24064,6.24064,0,0,0-2.51243-2.82008c-1.99971-1.28186-4.46088-1.43569-7.33224-.51275-6.87077,2.25608-9.48576,10.66507-9.48576,10.66507-3.33283,8.56284.76911,14.04919.76911,14.04919-.15382.41018-3.23028,4.87107-3.23028,4.87107l-1.74333-16.92056a6.29645,6.29645,0,0,0-2.71755-4.81978,5.96515,5.96515,0,0,0-5.07616-.66658l-9.7934,3.179a3.738,3.738,0,0,0-2.66628,3.58919v3.94813a7.105,7.105,0,0,0-1.07675-1.07675c-3.89685-3.2303-8.973-2.66628-11.38291-1.84588a40.76567,40.76567,0,0,0-13.3826,7.63988,3.67314,3.67314,0,0,0-1.0255-1.84588,3.80635,3.80635,0,0,0-3.89685-.92294s-6.05038,1.9997-11.28036,3.69176c2.10225-7.33224,5.43508-13.99791,11.84438-17.68966a3.95767,3.95767,0,0,0,1.89716-3.38411v-.2051a34.74116,34.74116,0,0,0,26.355-27.3805,4.02784,4.02784,0,0,0-.97422-3.179,4.30318,4.30318,0,0,0-3.07646-1.28186l-1.84588.15382a3.97372,3.97372,0,0,0-3.07645,1.74333c-5.64019,8.81917-18.66387,11.28035-33.78982,14.10045-9.94723,1.89714-20.2021,3.7943-29.84168,7.845-26.8165,11.024-25.58591,27.94451-25.32954,29.893.61529,9.69086,9.5883,17.02309,20.04828,16.51036a21.74257,21.74257,0,0,0,5.48636-1.12805,11.47146,11.47146,0,0,0,1.43568,9.28067,3.94517,3.94517,0,0,0,4.51214,1.74331l3.7943-1.17931c-5.23,19.89447-9.3832,23.94514-9.537,24.15026-1.79461,1.692-5.12744,2.615-6.717,1.692a2.27365,2.27365,0,0,1-1.128-1.487,2.74135,2.74135,0,0,1,.71784-2.20481,5.551,5.551,0,0,1,3.38411-1.84585,3.9458,3.9458,0,0,0,3.179-3.0252,3.83951,3.83951,0,0,0-1.69205-4.05068,22.5784,22.5784,0,0,0-11.48546-3.53793A21.488,21.488,0,0,0,16.818,158.6429a19.0074,19.0074,0,0,0-5.794,13.12622c0,10.46,9.07557,19.38174,20.50975,19.84321A29.19652,29.19652,0,0,0,45.224,189.40752c6.6144-2.66626,15.74123-8.973,21.33014-23.84258,4.46087-9.94723,6.358-20.6123,8.15262-30.96974l.30765-1.692c1.89715-.564,6.358-1.94844,9.79341-3.12774A29.39067,29.39067,0,0,0,82.962,140.13284q0,1.38443.15382,2.92264c.10255.92294,1.07676,8.76792,7.38351,12.35713a11.8525,11.8525,0,0,0,2.615,1.128C65.88758,167.92355,60.14485,181.46,59.78593,182.28039a3.44048,3.44048,0,0,0-.30765,1.43567,3.71962,3.71962,0,0,0,1.128,2.71754l4.15323,4.15324.30764.30763a30.36371,30.36371,0,0,0-.97421,7.53734,29.66224,29.66224,0,0,0,59.32445,0,28.96788,28.96788,0,0,0-2.615-12.10076,3.65986,3.65986,0,0,0,1.69207-1.128l1.23058-1.43571a4.18578,4.18578,0,0,0,.51274-4.15321,3.95022,3.95022,0,0,1,.564-2.97392c2.2048-3.84558,12.20331-13.74152,57.83749-21.74032,19.84319-3.79432,36.96883-10.35744,49.47976-19.12536,11.17783-7.28095,14.10046-16.66417,14.6132-23.22729A28.93918,28.93918,0,0,0,244.989,99.72864Z" fill="#fff"/><path d="M213.50649,120.905a12.73841,12.73841,0,0,1-6.97331-8.20391,15.69306,15.69306,0,0,1-.564-3.02518A73.87615,73.87615,0,0,1,192.484,125.05819a33.444,33.444,0,0,1-9.28066,5.53763c-6.30675,2.2048-10.66507.87167-13.12624-.71784a15.35287,15.35287,0,0,1-5.99911-7.845,33.25129,33.25129,0,0,1-7.1784,2.051,61.00452,61.00452,0,0,1-17.27947,20.30465c5.99911-.92294,12.4084-1.64078,19.27916-2.2048,34.86658-3.02518,54.45339-12.4084,64.657-19.74063a4.90322,4.90322,0,0,0,.66657-.564A16.46231,16.46231,0,0,1,213.50649,120.905ZM113.21383,149.66988a69.2089,69.2089,0,0,0,12.716-14.61319c.2051,2.10224.8204,9.58831.97421,11.38291C119.93076,147.97783,113.21383,149.66988,113.21383,149.66988Z" fill="#002d62"/><path d="M152.43872,113.4189a2.95178,2.95178,0,0,1-.61529-1.84588,7.90524,7.90524,0,0,1,.71784-4.56342,5.17877,5.17877,0,0,1,2.2048-2.615s.51274-.30763.82039-.15382c.35891.15382.35891.66657.35891.66657C155.77156,106.5994,154.07951,109.8297,152.43872,113.4189Zm-41.89117,3.58919c9.17812-2.76879.10256,16.254-11.84437,15.17724C100.24141,125.82729,104.59973,118.80271,110.54755,117.00809ZM190.433,91.47348c9.22938-2.76883.15383,16.254-11.79311,15.17721C180.17816,100.29266,184.53648,93.31934,190.433,91.47348Zm51.018,9.69085h-2.30736c-3.3841,5.84527-11.28037,13.89535-16.76671,10.56251-6.71693-3.94813,5.64018-21.53522,5.64018-21.53522,5.28126-6.25548.30764-9.6396-3.48664-8.05009-3.79433,1.64079-9.33194-.51274-9.33194-.51274s-.2051-11.53673-6.97332-7.94751c-3.64047,1.84588-2.615,6.7682-.05128,9.22937a6.21316,6.21316,0,0,0,2.35863,1.43568c-2.4099,7.48606-7.53734,15.22849-9.33194,17.79221,0,0-11.63927,15.63867-19.27917,15.12594-2.9739-.15383-4.10194-3.23029-3.79429-7.281,5.12743.564,10.46-1.64077,14.767-6.25546a23.65343,23.65343,0,0,0,3.58922-5.12744c.35892-.51275,3.99939-7.69116.35892-10.71635-3.33283-2.76882-7.74243-1.128-7.74243-1.128-6.56313,2.15353-16.71546,8.66536-20.76611,18.81769a22.12593,22.12593,0,0,0-1.38442,6.56312c-2.25608,1.17932-7.38351,3.89685-10.71634,3.79429,2.92264-5.33254,5.28126-12.81859,4.871-15.99759-.35892-2.615-2.51243-3.48666-5.28125-2.615-2.92264.97421-5.12744,3.23027-6.71694,6.81949-1.33314,3.07645-1.9997,5.99909-1.48695,8.8192a9.3571,9.3571,0,0,0,2.71753,5.07615,75.56853,75.56853,0,0,1-10.76761,14.71573L136.85131,106.702c-.30764-2.97391-2.76882-2.2048-2.76882-2.2048l-9.79341,3.12774v2.4099l.87167-.30766a1.71228,1.71228,0,0,1,2.30736,1.53823l.46146,4.97362c-1.89715,3.48666-15.58741,28.30345-25.94483,26.56013-2.92264-.46148-4.102-3.2303-3.79431-7.22969,5.12744.51273,10.46-1.64078,14.767-6.25548a24.96441,24.96441,0,0,0,3.5892-5.12744c.35894-.564,3.94814-7.74241.30766-10.71634-3.28157-2.71753-7.69115-1.17931-7.69115-1.17931-8.8192,2.92264-23.79132,12.76731-22.20181,30.35442,0,0,1.64078,15.69,16.86927,8.71665,0,0,12.04947-4.30705,24.81679-28.04707l2.30736,22.15052c7.53732-3.84557,16.56161-11.28036,23.5862-25.02189,2.46117,0,5.94783-.71784,12.30586-3.79432a1.41932,1.41932,0,0,0,.05126.41021s1.58952,14.767,15.07467,9.94722a31.18208,31.18208,0,0,0,8.10135-4.87107,70.53369,70.53369,0,0,0,14.6132-17.63837,164.16454,164.16454,0,0,0,7.99879-15.43359,25.47276,25.47276,0,0,0,3.79432.76911c-4.51215,7.48607-11.74183,22.30436-1.17931,27.58562,0,0,7.74241,4.35831,18.97149-4.76852-.71784,7.69115-8.409,12.92115-8.409,12.92115-12.76729,9.07556-33.94361,17.58711-66.50284,20.35593-83.78232,7.17839-95.93435,37.63538-95.93435,37.63538L66.55415,186.69a29.75482,29.75482,0,0,1,51.582-5.48636,20.5356,20.5356,0,0,1,1.64078,1.4357l1.23058-1.4357s-10.10105-17.74092,61.22161-30.14932c21.3814-4.102,37.12262-10.87018,48.04406-18.45879C249.19346,120.13583,241.451,101.16433,241.451,101.16433ZM88.397,124.648l2.4099-7.53734-17.84349,5.89656c2.46117-11.69055,6.15293-21.58652,15.38232-26.919l-.15382-2.051C82.039,94.755,69.8357,99.47227,63.68278,125.67347l-5.53763,1.69205s-12.61349,3.89687-7.22968,13.0237l1.69205-.51274c-.30764-.76912-1.07676-3.743,3.12773-5.07617l6.4093-2.051c-7.07586,32.91817-13.33133,37.17392-13.33133,37.17392-2.82009,2.66629-7.845,3.99942-11.12654,2.20482-3.48666-1.9997-4.15323-6.25546-1.43569-9.537a9.36543,9.36543,0,0,1,5.74274-3.179,18.32849,18.32849,0,0,0-9.58831-2.87136c-9.537-.30766-17.43329,6.46057-17.53584,15.07466s7.53734,15.79251,17.07437,16.10015c0,0,21.125,2.615,31.021-23.63749,4.87107-10.8189,6.56312-23.02218,8.61409-34.2Zm-47.99281,5.794c8.46027-.46146,14.97211-7.0246,14.51064-14.66447a13.03851,13.03851,0,0,0-2.97391-7.5886,7.70568,7.70568,0,0,1-3.02519,4.76852c-3.179,2.30733-7.3835,1.89714-9.3832-.8204-1.84588-2.46119-.6153-6.66568,1.9997-9.0243.25637-.30763,9.38321-9.48575,38.35322-9.58829,31.17482-.15383,34.764-25.58591,34.764-25.58591l-1.89716.15382C102.24111,84.6027,71.78414,81.37243,47.275,91.42219c-25.32954,10.46-22.91964,25.94482-22.91964,25.94482C24.81681,125.00691,31.944,130.85218,40.40422,130.442Z" fill="#e03a3e"/><path d="M67.37454,198.32926a26.4063,26.4063,0,1,1,26.4063,26.40631A26.40147,26.40147,0,0,1,67.37454,198.32926Z" fill="#002d62"/><path d="M79.16764,192.38144c.4102,4.51214.76912,8.66537-1.07676,12.152a25.708,25.708,0,0,0,3.89686,2.97391,60.88932,60.88932,0,0,1,19.53553-31.37991,23.94332,23.94332,0,0,0-20.6123,2.51245,12.32443,12.32443,0,0,0-1.94842,5.74273A38.12831,38.12831,0,0,0,79.16764,192.38144Zm-5.12743,14.35682A4.20049,4.20049,0,0,0,76.8603,204.636c-3.43539-3.48666-4.56342-7.22969-5.99911-12.152a23.58882,23.58882,0,0,0,.76912,14.10045A4.8933,4.8933,0,0,0,74.04021,206.73826Zm38.507-22.56072a19.49872,19.49872,0,0,1,1.128,9.69085,11.64978,11.64978,0,0,1-5.53762,7.94753,40.28021,40.28021,0,0,1-7.69116,3.43538c-4.35832,1.53823-8.46027,3.12774-9.9985,6.2042,7.12714,2.46117,15.43358,3.58921,20.50974,2.4099.30765-.05128.6153-.15382.8204-.2051a35.79609,35.79609,0,0,0,2.56372-3.64048A23.697,23.697,0,0,0,112.54726,184.17754ZM89.4738,217.0444a6.84179,6.84179,0,0,1-.30765-5.02488,41.57305,41.57305,0,0,1-6.6144-3.07646,38.48928,38.48928,0,0,0-.71784,9.74213c.10255.05127.25637.15382.35892.20509a23.09093,23.09093,0,0,0,11.588,3.07647A13.63491,13.63491,0,0,1,89.4738,217.0444Z" fill="#fff"/><path d="M77.373,203.76435c1.487-3.179,1.17931-7.1784.76911-11.38291a53.96988,53.96988,0,0,1-.20509-8.15262,12.37943,12.37943,0,0,1,1.128-4.307,22.50619,22.50619,0,0,0-5.84527,6.87076,20.602,20.602,0,0,0-1.74333,3.94812l.20509,1.07677C73.11727,196.791,74.14275,200.43152,77.373,203.76435Zm5.43509,4.25578a44.60418,44.60418,0,0,0,6.66566,3.179c1.69206-3.53793,6.05038-5.07616,10.56252-6.81949a46.46535,46.46535,0,0,0,7.58861-3.33284,11.186,11.186,0,0,0,5.12743-7.38351c.71785-3.94812-.61528-8.30645-2.20479-11.84438a22.78464,22.78464,0,0,0-5.23-3.99939,20.17516,20.17516,0,0,0-2.82009-1.33313A59.68237,59.68237,0,0,0,82.80813,208.02013Zm7.1784,4.35832a6.16164,6.16164,0,0,0,.30765,4.25578,13.822,13.822,0,0,0,5.07617,5.23,23.26289,23.26289,0,0,0,15.12593-6.97331C105.31757,215.96766,97.11368,214.83962,89.98653,212.37845Zm-8.30644-3.94813a23.15917,23.15917,0,0,1-4.102-3.12773,5.55072,5.55072,0,0,1-3.38411,2.40989,7.21868,7.21868,0,0,1-2.10225,0,23.05473,23.05473,0,0,0,8.76792,10.35743A35.86221,35.86221,0,0,1,81.68009,208.43032Z" fill="#e03a3e"/></svg>