<?xml version="1.0" encoding="UTF-8"?>
<svg width="226px" height="312px" viewBox="0 0 226 312" version="1.1" xmlns="http://www.w3.org/2000/svg" xmlns:xlink="http://www.w3.org/1999/xlink">
    <title>Las Vegas Aces WNBA logo 2024</title>
    <g id="Page-1" stroke="none" stroke-width="1" fill="none" fill-rule="evenodd">
        <g id="Las-Vegas-Aces-WNBA-logo-2024" transform="translate(0.169254, 0.083221)" fill-rule="nonzero">
            <path d="M224.837942,137.717192 L221.280379,135.582655 C220.885095,135.345484 210.686749,129.337156 189.341375,129.337156 C188.550805,129.337156 186.258154,129.337156 182.779649,129.337156 C154.31915,96.6866395 133.843402,58.5021367 122.063918,15.8113883 L117.715786,0 L113.367654,15.8113883 C101.430056,58.9764784 80.7171373,97.5562658 51.7822967,130.364897 L36.0499653,130.52301 L33.0458015,130.52301 L31.8599474,133.290003 C24.8238796,150.050075 15.5742175,167.442602 4.42718872,184.914186 L0,191.79214 L8.22192192,191.871197 L60.873845,192.345539 C85.5396107,222.782461 102.694967,256.460718 113.367654,295.119563 L117.715786,310.930951 L122.063918,295.119563 C132.657548,256.856003 149.575733,223.493974 173.846214,193.294222 C182.384364,193.373279 186.969667,193.373279 188.155521,193.373279 C200.725574,193.373279 209.975237,190.290058 215.746393,184.123617 C220.964151,178.510574 221.754721,172.106962 221.754721,168.707513 C221.754721,163.489755 219.936411,158.825395 216.457906,154.951605 L223.098689,141.432868 L224.837942,137.717192 Z" id="Path" fill="#A7A8AA"></path>
            <path d="M189.262318,131.550751 C188.392692,131.550751 185.704756,131.550751 181.672852,131.629808 C152.579897,98.5840061 131.787921,59.8461047 119.771266,16.3647869 L117.557672,8.45909274 L115.344078,16.3647869 C103.248366,60.2413894 82.0611053,99.2955185 52.5728661,132.578491 L34.3897696,132.736605 L33.836371,134.080573 C26.7212462,150.998758 17.4715841,168.470342 6.24549838,186.020983 L4.03190402,189.499489 L61.8225283,189.97383 C87.0416926,220.885095 104.592334,255.037693 115.423135,294.40805 L117.636729,302.313744 L119.850323,294.40805 C130.602067,255.512035 147.915538,221.596607 172.739417,190.922514 C181.19851,191.001571 186.811553,191.001571 188.076464,191.001571 C217.169418,191.001571 219.46207,173.846214 219.46207,168.628456 C219.46207,163.410698 217.485646,158.904452 213.611856,155.34689 L221.833778,138.507762 L220.015468,137.400964 C219.69924,137.321907 209.975237,131.550751 189.262318,131.550751 L189.262318,131.550751 Z" id="Path" fill="#000000"></path>
            <path d="M133.36906,207.366358 C129.337156,201.041802 125.542423,195.507816 121.668633,190.131944 L106.805928,190.131944 C106.805928,190.131944 116.05559,200.804631 126.570163,218.908671 C128.783758,222.703404 131.076409,226.893422 133.36906,231.320611 C135.661712,226.893422 137.954363,222.703404 140.167957,218.908671 C150.761587,200.804631 159.932193,190.131944 159.932193,190.131944 L145.069488,190.131944 C141.116641,195.66593 137.321907,201.041802 133.36906,207.366358" id="Path" fill="#A7A8AA"></path>
            <path d="M117.636729,236.617426 C107.438383,215.113938 98.7421199,202.227656 90.0458564,190.211001 L75.1831514,190.211001 C75.1831514,190.211001 103.090252,222.54529 117.557672,270.137569 C121.352405,257.804686 125.463366,247.843512 130.28584,237.882337 C128.072245,233.297034 125.779594,228.948903 123.566,224.996056 C121.510519,228.790789 119.92938,231.794952 117.636729,236.617426" id="Path" fill="#A7A8AA"></path>
            <path d="M117.478615,73.2857848 C127.676961,94.7892729 136.373224,107.675554 145.069488,119.692209 L159.932193,119.692209 C159.932193,119.692209 132.025092,87.3579204 117.557672,39.7656416 C103.090252,87.3579204 75.1831514,119.692209 75.1831514,119.692209 L90.0458564,119.692209 C98.9792908,107.359327 106.964042,95.7379562 117.478615,73.2857848" id="Path" fill="#FFFFFF"></path>
            <path d="M109.731035,104.355163 C113.841996,105.936302 116.608989,109.493864 117.557672,117.241444 C118.506355,109.493864 121.194291,105.936302 125.384309,104.355163 C121.273348,102.774024 118.506355,99.2164616 117.557672,91.4688813 C116.608989,99.2955185 113.921053,102.774024 109.731035,104.355163" id="Path" fill="#A7A8AA"></path>
            <g id="Group" transform="translate(21.977830, 125.700537)" fill="#FFFFFF">
                <path d="M19.2108368,16.6019577 C13.9930786,29.3301253 7.51040944,41.900179 1.12346671e-14,53.9168341 L11.6213704,53.9168341 C12.7281676,52.0194675 13.9140217,49.963987 15.0998758,47.9085065 L15.2579897,47.6713357 L34.5478834,47.6713357 L34.7059973,47.9085065 C35.8918514,49.963987 36.9986486,51.9404106 38.1845027,53.9168341 L49.6477593,53.9168341 C42.1373498,41.900179 35.6546806,29.3301253 30.4369225,16.6019577 L19.2108368,16.6019577 Z M19.4480076,39.6865846 L19.7642354,39.0541291 C21.2663173,36.0499653 22.8474561,32.8876877 24.349538,29.6463531 L24.7448227,28.7767267 L25.1401074,29.6463531 C26.6421893,32.8876877 28.2233281,36.0499653 29.8044669,39.0541291 L30.1206947,39.6865846 L19.4480076,39.6865846 Z" id="Shape"></path>
                <path d="M188.076464,43.0069762 C188.076464,36.44525 182.621535,33.757314 173.6881,31.5437197 L171.237335,30.9112641 C163.726926,29.0929545 160.01125,28.1442712 160.01125,26.0097338 C160.01125,24.270481 162.857299,23.1636839 167.679773,23.1636839 C174.636784,23.1636839 179.143029,24.4285949 182.542478,27.4327587 L187.048724,18.3412104 C181.19851,16.206673 175.901695,15.3370467 167.679773,15.3370467 C150.919701,15.3370467 148.468936,22.2940575 148.468936,26.4050185 C148.468936,33.2039154 153.449523,35.5756237 163.88504,38.1845027 L166.177691,38.7379013 C172.66036,40.3190402 176.29698,41.1886665 176.29698,43.5603748 C176.29698,45.8530261 172.66036,47.1969941 166.493919,47.1969941 C159.853136,47.1969941 154.31915,45.6158552 150.840644,42.6116915 L146.492513,52.4147522 C152.026499,54.3911758 158.430111,55.2608021 166.493919,55.2608021 C176.29698,55.418916 188.076464,53.2053216 188.076464,43.0069762 L188.076464,43.0069762 Z" id="Path"></path>
                <path d="M75.8946638,46.6435955 C67.1984003,46.6435955 62.6130977,40.8724388 62.6130977,35.2593959 C62.6130977,29.5672961 67.1984003,23.8751963 75.8946638,23.8751963 C81.1914789,23.8751963 85.7767815,25.693506 89.0181161,29.0929545 L93.6034187,19.5270646 C88.3856606,16.7600716 82.6145039,15.4951605 75.4203222,15.4951605 C61.7434713,15.4951605 51.4660689,24.0333102 51.4660689,35.3384529 C51.4660689,46.6435955 61.7434713,55.1817452 75.4203222,55.1817452 C82.5354469,55.1817452 88.3856606,53.9168341 93.6034187,51.1498412 L89.0181161,41.5839512 C85.6977246,44.8252858 81.1914789,46.6435955 75.8946638,46.6435955 Z" id="Path"></path>
                <path d="M113.20954,46.01114 L113.20954,38.5797875 L133.764345,38.5797875 L133.764345,31.2274919 L113.20954,31.2274919 L113.20954,23.9542533 L131.392637,23.9542533 C134.554914,24.1123672 137.163794,24.8238796 139.06116,25.9306768 L141.986267,16.6019577 L101.825341,16.6019577 C102.220625,17.7087549 102.932138,20.0804631 102.932138,24.1914241 L102.932138,46.3273677 C102.932138,50.4383287 102.220625,52.8100369 101.825341,53.9168341 L138.823989,53.9168341 L138.823989,44.1928303 C137.00568,45.2205705 134.475857,45.8530261 131.392637,46.01114 L113.20954,46.01114 Z" id="Path"></path>
                <polygon id="Path" points="46.4854816 7.4313525 46.4854816 0.237170825 48.3037913 0.237170825 48.3037913 5.85021367 54.7074035 5.85021367 54.7074035 7.4313525"></polygon>
                <path d="M65.6172614,7.4313525 L64.7476351,6.00832755 L59.6879908,6.00832755 L58.8183645,7.4313525 L56.9209979,7.4313525 L61.0319588,0.237170825 L63.3246101,0.237170825 L67.4355711,7.4313525 L65.6172614,7.4313525 Z M62.2968699,1.58113883 L60.6366741,4.42718872 L63.9570657,4.42718872 L62.2968699,1.58113883 Z" id="Shape"></path>
                <path d="M78.5035429,5.1387012 C78.5035429,5.45492896 78.424486,5.85021367 78.1873151,6.16644144 C78.0292013,6.4826692 77.7129735,6.71984003 77.3176888,6.95701085 C76.9224041,7.19418168 76.4480624,7.35229556 75.8156069,7.51040944 C75.1831514,7.66852333 74.5506958,7.74758027 73.6810695,7.74758027 C73.2857848,7.74758027 72.8114431,7.74758027 72.4161584,7.66852333 C72.0208737,7.58946638 71.625589,7.51040944 71.1512474,7.4313525 C70.6769057,7.35229556 70.281621,7.11512473 69.8072793,6.95701085 L70.4397349,5.5339859 C70.8350196,5.69209979 71.2303043,5.85021367 71.5465321,6.00832755 C71.9418168,6.0873845 72.2580445,6.16644144 72.5742723,6.24549838 C72.969557,6.32455532 73.2857848,6.32455532 73.6020125,6.32455532 C74.6297528,6.32455532 75.4203222,6.24549838 75.8946638,6.00832755 C76.3690055,5.85021367 76.6852333,5.61304285 76.6852333,5.29681508 C76.6852333,5.1387012 76.6061763,4.98058731 76.4480624,4.90153037 C76.2899485,4.82247343 76.0527777,4.74341649 75.73655,4.74341649 C75.657493,4.74341649 75.4993791,4.74341649 75.3412652,4.74341649 C75.1040944,4.74341649 74.8669236,4.74341649 74.5506958,4.74341649 C74.2344681,4.74341649 73.9182403,4.74341649 73.5229556,4.66435955 C73.1276709,4.66435955 72.7323862,4.66435955 72.3371015,4.58530261 C71.9418168,4.58530261 71.5465321,4.50624567 71.2303043,4.42718872 C70.9140765,4.34813178 70.5978488,4.1900179 70.3606779,4.03190402 C70.1235071,3.87379013 69.9653932,3.63661931 69.8072793,3.39944848 C69.6491655,3.16227766 69.5701085,2.84604989 69.5701085,2.52982213 C69.5701085,2.21359436 69.6491655,1.8973666 69.8863363,1.58113883 C70.1235071,1.26491106 70.4397349,1.02774024 70.8350196,0.790569415 C71.2303043,0.553398591 71.7046459,0.395284708 72.2580445,0.316227766 C72.8114431,0.158113883 73.4438987,0.158113883 74.1554111,0.158113883 C74.5506958,0.158113883 75.0250375,0.158113883 75.4203222,0.237170825 C75.8156069,0.316227766 76.2108916,0.395284708 76.6852333,0.474341649 C77.1595749,0.553398591 77.5548596,0.711512474 78.0292013,0.948683298 L77.4758027,2.37170825 C77.2386318,2.2926513 77.001461,2.21359436 76.7642902,2.13453742 C76.5271194,2.05548048 76.2108916,1.97642354 75.8946638,1.8973666 C75.5784361,1.81830965 75.3412652,1.81830965 75.0250375,1.73925271 C74.7088097,1.73925271 74.4716389,1.66019577 74.1554111,1.66019577 C73.7601264,1.66019577 73.3648417,1.66019577 73.0486139,1.73925271 C72.7323862,1.73925271 72.4161584,1.81830965 72.0999306,1.8973666 C71.8627598,1.97642354 71.625589,2.05548048 71.4674751,2.21359436 C71.3093612,2.2926513 71.2303043,2.45076519 71.2303043,2.60887907 C71.2303043,2.76699295 71.3093612,2.92510684 71.4674751,3.00416378 C71.625589,3.08322072 71.8627598,3.16227766 72.0999306,3.16227766 C72.4161584,3.16227766 72.8905001,3.16227766 73.5229556,3.2413346 C74.1554111,3.2413346 74.7878667,3.32039154 75.657493,3.32039154 C76.0527777,3.32039154 76.4480624,3.39944848 76.7642902,3.47850543 C77.080518,3.55756237 77.3967457,3.71567625 77.6339166,3.87379013 C77.8710874,4.03190402 78.0292013,4.26907484 78.1873151,4.50624567 C78.5035429,4.58530261 78.5035429,4.82247343 78.5035429,5.1387012 L78.5035429,5.1387012 Z" id="Path"></path>
                <polygon id="Path" points="93.7615326 7.4313525 91.4688813 7.4313525 87.7532051 0.237170825 89.7296286 0.237170825 92.6547354 5.92927061 95.5798423 0.237170825 97.5562658 0.237170825"></polygon>
                <polygon id="Path" points="100.086088 7.4313525 100.086088 0.237170825 108.703295 0.237170825 108.703295 1.81830965 101.825341 1.81830965 101.825341 3.08322072 107.833668 3.08322072 107.833668 4.50624567 101.825341 4.50624567 101.825341 5.92927061 108.940465 5.92927061 108.940465 7.51040944 100.086088 7.51040944"></polygon>
                <path d="M121.668633,3.87379013 C121.668633,4.42718872 121.589576,4.90153037 121.352405,5.37587202 C121.115234,5.85021367 120.799007,6.24549838 120.403722,6.56172614 C120.008437,6.87795391 119.455039,7.19418168 118.822583,7.4313525 C118.190128,7.66852333 117.478615,7.74758027 116.688046,7.74758027 C115.897476,7.74758027 115.185964,7.66852333 114.553508,7.4313525 C113.921053,7.19418168 113.446711,6.95701085 112.972369,6.56172614 C112.577085,6.24549838 112.1818,5.77115673 112.023686,5.37587202 C111.786515,4.90153037 111.707458,4.42718872 111.707458,3.87379013 C111.707458,3.32039154 111.786515,2.84604989 112.023686,2.37170824 C112.260857,1.8973666 112.577085,1.50208189 112.972369,1.18585412 C113.367654,0.869626356 113.921053,0.55339859 114.553508,0.316227766 C115.185964,0.0790569415 115.897476,0 116.688046,0 C117.241444,0 117.715786,0.0790569415 118.111071,0.158113883 C118.585412,0.237170824 118.980697,0.395284707 119.296925,0.55339859 C119.692209,0.711512473 120.008437,0.948683298 120.245608,1.18585412 C120.561836,1.42302495 120.799007,1.66019577 120.95712,1.97642354 L119.375982,2.76699295 C119.138811,2.45076519 118.822583,2.13453742 118.348241,1.8973666 C117.8739,1.66019577 117.320501,1.58113883 116.608989,1.58113883 C116.05559,1.58113883 115.660305,1.66019577 115.265021,1.73925271 C114.869736,1.8973666 114.553508,2.05548048 114.23728,2.21359436 C114.00011,2.45076519 113.762939,2.68793601 113.604825,2.92510684 C113.446711,3.16227766 113.367654,3.47850543 113.367654,3.79473319 C113.367654,4.11096096 113.446711,4.42718872 113.604825,4.66435955 C113.762939,4.90153037 113.921053,5.21775814 114.23728,5.37587202 C114.474451,5.61304285 114.869736,5.77115673 115.265021,5.85021367 C115.660305,6.00832755 116.134647,6.00832755 116.608989,6.00832755 C117.399558,6.00832755 118.032014,5.85021367 118.506355,5.61304285 C118.980697,5.37587202 119.375982,4.98058731 119.534096,4.58530261 L115.897476,4.58530261 L115.897476,3.16227766 L121.589576,3.16227766 L121.589576,3.39944848 C121.668633,3.71567625 121.668633,3.79473319 121.668633,3.87379013 L121.668633,3.87379013 Z" id="Path"></path>
                <path d="M132.578491,7.4313525 L131.708865,6.00832755 L126.64922,6.00832755 L125.779594,7.4313525 L123.961284,7.4313525 L128.072245,0.237170825 L130.364897,0.237170825 L134.475857,7.4313525 L132.578491,7.4313525 Z M129.258099,1.58113883 L127.597904,4.42718872 L130.918295,4.42718872 L129.258099,1.58113883 Z" id="Shape"></path>
                <path d="M145.464772,5.1387012 C145.464772,5.45492896 145.385715,5.85021367 145.148545,6.16644144 C144.990431,6.4826692 144.674203,6.71984003 144.278918,6.95701085 C143.883634,7.19418168 143.409292,7.35229556 142.776836,7.51040944 C142.144381,7.66852333 141.511925,7.74758027 140.642299,7.74758027 C140.247014,7.74758027 139.772673,7.74758027 139.377388,7.66852333 C138.982103,7.58946638 138.586818,7.51040944 138.112477,7.4313525 C137.638135,7.35229556 137.24285,7.11512473 136.768509,6.95701085 L137.400964,5.5339859 C137.796249,5.69209979 138.191534,5.85021367 138.507762,6.00832755 C138.903046,6.0873845 139.219274,6.16644144 139.535502,6.24549838 C139.930786,6.32455532 140.247014,6.32455532 140.563242,6.32455532 C141.590982,6.32455532 142.381552,6.24549838 142.855893,6.00832755 C143.330235,5.85021367 143.646463,5.61304285 143.646463,5.29681508 C143.646463,5.1387012 143.567406,4.98058731 143.409292,4.90153037 C143.251178,4.82247343 143.014007,4.74341649 142.697779,4.74341649 C142.618722,4.74341649 142.460609,4.74341649 142.302495,4.74341649 C142.065324,4.74341649 141.828153,4.74341649 141.511925,4.74341649 C141.195698,4.74341649 140.87947,4.74341649 140.484185,4.66435955 C140.0889,4.66435955 139.693616,4.66435955 139.298331,4.58530261 C138.903046,4.58530261 138.507762,4.50624567 138.191534,4.42718872 C137.875306,4.34813178 137.559078,4.1900179 137.321907,4.03190402 C137.084737,3.87379013 136.926623,3.63661931 136.768509,3.39944848 C136.610395,3.16227766 136.531338,2.84604989 136.531338,2.52982213 C136.531338,2.21359436 136.610395,1.8973666 136.847566,1.58113883 C137.084737,1.26491106 137.400964,1.02774024 137.796249,0.790569415 C138.191534,0.553398591 138.665875,0.395284708 139.219274,0.316227766 C139.772673,0.158113883 140.405128,0.158113883 141.116641,0.158113883 C141.511925,0.158113883 141.986267,0.158113883 142.381552,0.237170825 C142.776836,0.316227766 143.172121,0.395284708 143.646463,0.474341649 C144.120804,0.553398591 144.516089,0.711512474 144.990431,0.948683298 L144.437032,2.37170825 C144.199861,2.2926513 143.96269,2.21359436 143.72552,2.13453742 C143.488349,2.05548048 143.172121,1.97642354 142.855893,1.8973666 C142.539666,1.81830965 142.302495,1.81830965 141.986267,1.73925271 C141.670039,1.73925271 141.432868,1.66019577 141.116641,1.66019577 C140.721356,1.66019577 140.326071,1.66019577 140.009843,1.73925271 C139.693616,1.81830965 139.377388,1.81830965 139.06116,1.8973666 C138.823989,1.97642354 138.586818,2.05548048 138.428705,2.21359436 C138.270591,2.2926513 138.191534,2.45076519 138.191534,2.60887907 C138.191534,2.76699295 138.270591,2.92510684 138.428705,3.00416378 C138.586818,3.08322072 138.823989,3.16227766 139.06116,3.16227766 C139.377388,3.16227766 139.85173,3.16227766 140.484185,3.2413346 C141.116641,3.2413346 141.749096,3.32039154 142.618722,3.32039154 C143.014007,3.32039154 143.409292,3.39944848 143.72552,3.47850543 C144.041747,3.55756237 144.357975,3.71567625 144.595146,3.87379013 C144.832317,4.03190402 144.990431,4.26907484 145.148545,4.50624567 C145.385715,4.58530261 145.464772,4.82247343 145.464772,5.1387012 L145.464772,5.1387012 Z" id="Path"></path>
            </g>
        </g>
    </g>
</svg>