<?xml version="1.0" encoding="UTF-8" standalone="no"?><svg xmlns:rdf="http://www.w3.org/1999/02/22-rdf-syntax-ns#" xmlns="http://www.w3.org/2000/svg" height="294.78209" width="294.78214" version="1.1" xmlns:cc="http://creativecommons.org/ns#" xmlns:dc="http://purl.org/dc/elements/1.1/" viewBox="0 0 294.78214 294.78209"><defs><style>.cls-1{fill:#fdb825;}.cls-2{fill:#552c82;}.cls-3{fill:#fff;}</style></defs><title>Los Angeles Sparks logo</title><path class="cls-1" d="M148.16129.002A147.391,147.391,0,1,0,294.78006,148.16125,147.397,147.397,0,0,0,148.16129.002"/><path class="cls-2" d="M182.22242,231.37423l5.07779-22.77873,4.783,19.22237-9.85605,3.55636Zm25.76931,9.64211a.47549.47549,0,0,1-.4184-.02853c-1.30272-.68465-2.48184-5.14435-3.25682-8.08262l-12.74677-46.77937-1.65457.59907c-1.72588.61807-3.19977,2.62447-3.756,5.10156l-11.35371,50.74934c-1.46913,6.5707-2.52938,11.32043-5.40584,12.36166l-.47545.18067v5.06827l14.30148-5.15388v-5.07778l-1.00319.36135c-1.52618.54677-2.653.62759-3.157.22344s-.47545-1.39306-.38036-1.94459c.11887-.9509.76547-4.35037,1.29322-6.70381l.65613-2.98583,13.17467-4.75449,1.28846,4.75449c.33756,1.07451,1.09352,3.4898,1.279,4.14116.37561,1.34553-1.36929,2.64825-3.14746,3.28534l-.47545.18067V251.576L209.033,245.709v-5.054l-1.00319.36135Zm-89.12756-.73221c0,3.69424-.3043,8.81007-2.91926,10.60725-1.25994.86532-3.0286.87484-5.25846,0-3.55635-1.35978-5.02073-3.24256-5.04451-6.48988V198.19268c0-2.51987.72744-3.77506,2.634-4.63562,1.279-.57054,1.63079-.67514,1.63079-.67989l.56578-.20443V187.942l-20.75807,9.32829v4.88285l1.14583-.70841a17.37864,17.37864,0,0,1,1.65932-.80351c.73218-.32806,1.28846-.43266,1.53569-.271.17592.1141.47545.54676.47545,2.13476v39.38615c0,1.54521-.28527,2.0587-.51824,2.22034a2.00365,2.00365,0,0,1-1.54045-.16167c-1.23617-.47544-1.607-.66563-1.64981-.68464l-1.1173-.57531v5.07779l35.031,13.40765V241.449l-5.87177-2.24889Z"/><path class="cls-2" d="M199.09132,144.44324l18.84678.504-.47545-11.41076,9.84653,11.64373,9.03351.24248-.47545-11.77685,10.18409,12.03836,25.53159.68464c0,.55153.038,1.09829.03328,1.64981a123.6165,123.6165,0,0,1-11.986,52.67017C248.01973,168.3583,218.29469,151.93155,199.09132,144.44324ZM159.06808,271.08841V175.7943l7.95426-12.41395,38.15473,17.03057,3.94147-10.69759,4.63562,14.52494,8.25378,3.68473,4.07459-11.05418,4.79252,15.01941,27.10054,12.10017A124.29044,124.29044,0,0,1,159.049,271.09317Zm-8.80055-164.876a32.73532,32.73532,0,0,1,6.47084,1.084c-.04755.58005-.09033,1.1601-.09033,1.77818,0,5.49619,3.157,10.65956,6.50413,16.132,4.70219,7.688,8.82908,14.48691,4.9922,21.87063a31.48423,31.48423,0,0,1-17.87686,7.27911v-48.1439Zm0-14.96236a31.446,31.446,0,0,1,13.12712,3.99377,16.208,16.208,0,0,0-5.596,7.28862,37.02269,37.02269,0,0,0-7.5311-1.23617ZM92.163,36.09807a124.27745,124.27745,0,0,1,110.71291.11411c-29.15926,8.13492-47.15972,30.5951-55.152,42.933-8.02081-12.39969-26.14966-35.01677-55.57516-43.04709Zm53.18366,118.24877a31.53648,31.53648,0,0,1-17.87686-7.27912c-3.84162-7.37421.29-14.17311,4.9922-21.87062,3.32814-5.47242,6.50413-10.63578,6.50413-16.12721,0-.62283-.04278-1.20763-.09509-1.78293a33.13363,33.13363,0,0,1,6.4756-1.08877v48.14865Zm-8.55807,116.80339a124.23948,124.23948,0,0,1-99.84416-66.9146L64.625,191.874l4.79251-15.00515,4.0746,11.05894,8.249-3.68473,4.6166-14.50593,3.93671,10.69759,38.03587-16.97826,8.42494,12.51855v95.17525ZM23.15642,146.74441v-.33757l26.2495-.70367,10.17935-12.03835-.47545,11.77685,9.03352-.24248,9.83227-11.64372-.47545,11.41076,18.84677-.504c-19.36976,7.55012-49.44662,24.2241-60.8241,57.09659a123.71163,123.71163,0,0,1-12.40921-54.79542ZM36.778,90.81267l24.4,9.03352L75.12292,92.434l-4.83531,10.74038,8.48676,3.1332L92.23906,99.1758l-4.65939,10.40282,13.61684,5.03023c-15.24288-1.569-50.95856-1.90179-77.712,23.9721A123.4218,123.4218,0,0,1,36.778,90.81267Zm96.37338,13.31255a35.05011,35.05011,0,0,0-16.81185,15.13352,31.61728,31.61728,0,0,1,11.47733-21.02433A11.67226,11.67226,0,0,1,133.15139,104.12522Zm.89384,4.93991h0c0,4.10788-2.80514,8.70071-5.78145,13.56455-3.1237,5.10631-6.65628,10.93531-7.13173,17.17319a31.51751,31.51751,0,0,1-3.91294-8.95268c2.10623-9.98442,8.21574-17.79128,16.84037-21.79455Zm-1.82572-13.82128a31.56982,31.56982,0,0,1,13.12714-3.99852v10.0272a37.73648,37.73648,0,0,0-7.53586,1.23617,16.26984,16.26984,0,0,0-5.59128-7.28387ZM79.80609,43.149,92.67172,58.95763l15.73258.71792-9.61356,6.81318,5.70538,7.00811,15.21435.69416-9.30453,6.585,5.87655,7.184c-15.29518-7.16976-44.59231-16.78333-75.19692-4.89712A124.89555,124.89555,0,0,1,79.80609,43.149Zm98.59848,87.71072a31.446,31.446,0,0,1-3.91294,8.95269c-.47545-6.24264-4.027-12.06689-7.13173-17.1732-2.97631-4.86384-5.78621-9.45666-5.78621-13.56454h0c8.62462,4.00328,14.7389,11.83866,16.84039,21.79455Zm-15.94178-26.73447a11.66275,11.66275,0,0,1,5.32977-5.8908,31.64109,31.64109,0,0,1,11.48208,21.02433A35.06922,35.06922,0,0,0,162.46279,104.12522ZM253.4731,82.73005c-30.27178-11.35371-59.13626-1.85425-74.284,5.22993l5.84326-7.184-9.30453-6.604,15.21435-.69416,5.70538-7.00811-9.61832-6.81318,15.77063-.6989L215.423,43.45326a124.86214,124.86214,0,0,1,38.03586,39.26728Zm17.76751,55.152c-26.66791-25.13695-61.86534-24.79939-76.96558-23.24468l13.61684-5.03024-4.65464-10.40282,13.4647,7.13173,8.482-3.16172-4.8163-10.7594,13.92113,7.43126,23.82-8.7958a123.50252,123.50252,0,0,1,13.13188,46.82216ZM148.11375,8.08466a139.30825,139.30825,0,1,0,138.58369,140.0338A139.314,139.314,0,0,0,148.11375,8.08466Z"/><path class="cls-3" d="M147.73815,79.14517c7.978-12.36166,25.97849-34.79807,55.152-42.933a124.27746,124.27746,0,0,0-110.7129-.1141c29.41123,8.03032,47.54483,30.6474,55.57516,43.04709Z"/><path class="cls-3" d="M104.51038,73.49684,98.805,66.48873l9.5993-6.81318-15.73258-.71792L79.80609,43.15372A124.89555,124.89555,0,0,0,41.08557,83.06761c30.60461-11.88621,59.9065-2.27264,75.19692,4.89712l-5.84326-7.184,9.30452-6.60873-15.21435-.69416Z"/><path class="cls-3" d="M61.178,99.84619l-24.4-9.03352a123.42158,123.42158,0,0,0-13.31255,47.76354c26.75347-25.85964,62.46915-25.54109,77.712-23.97211l-13.59781-5.02548L92.23906,99.1758l-13.4647,7.13173-8.48675-3.1332L75.12292,92.434Z"/><path class="cls-3" d="M258.10873,91.03138l-23.82,8.81481L220.36763,92.453l4.8163,10.72136-8.482,3.1332-13.4647-7.13173,4.65464,10.40282L194.275,114.60885c15.10024-1.55471,50.29767-1.90179,76.96558,23.24468a123.50257,123.50257,0,0,0-13.13188-46.82216Z"/><path class="cls-3" d="M215.423,43.4485,202.79983,58.95763l-15.74685.72268,9.61832,6.81318-5.70538,7.00811-15.21434.69416,9.30452,6.585-5.867,7.17926c15.14778-7.09844,44.01226-16.5979,74.284-5.22993a124.86214,124.86214,0,0,0-38.03586-39.26728Z"/></svg>