<svg xmlns="http://www.w3.org/2000/svg" height="181.01" width="193.25" viewBox="0 0 193.24989 181.008"><path d="m175.92 63.798-0.90744-2.6248c-0.59004-1.7006-1.2448-3.3645-1.9285-5.0104 4.1992-6.1598 10.416-14.755 19.15-28.388 0 0-3.8306 3.5832-13.64 8.7082 0.6146-1.9298 1.1107-4.0209 1.4334-6.3096 0 0-5.1352 5.4045-14.298 11.933-16.216-25.194-44.388-41.09-75.253-41.09-9.9759 0-19.85 1.6731-29.351 4.9725-46.608 16.182-71.365 67.274-55.191 113.89 12.508 35.986 46.48 60.164 84.539 60.164 9.9749 0 19.853-1.6741 29.36-4.9751 45.721-15.878 70.412-65.346 56.052-111.23l0.0326-0.04188" fill="#9ea2a2"/><path d="m172.91 64.735-0.87656-2.5324c-0.76665-2.212-1.6222-4.3771-2.5542-6.4945 4.8875-8.1231 12.842-17.329 12.842-17.329-2.3804 1.9374-5.7275 3.6039-9.4891 5.1196 1.0233-1.8634 2.0208-3.8592 2.9688-6.0025 0 0-3.9112 3.8058-11.033 8.919-0.022 0.0075-0.0455 0.01525-0.0678 0.02188-15.34-25.824-43.386-42.274-74.221-42.274h-0.0012c-9.6259 0-19.15 1.6144-28.318 4.7979-44.975 15.612-68.862 64.912-53.262 109.89 12.066 34.72 44.842 58.045 81.561 58.045 9.6246 0 19.154-1.6148 28.328-4.7992 44.111-15.319 67.931-63.046 54.078-107.31l0.0315-0.0405" fill-opacity=".94118" fill="#0c2340"/><path d="m90.472 26.061c-7.181 0-14.293 1.203-21.139 3.58-33.571 11.657-51.402 48.458-39.75 82.039 7.772 22.36 27.057 38.38 49.808 42.36-1.605-0.96-3.045-2.19-4.193-3.75-19.742-5.03-36.154-19.66-43.058-39.53-11.144-32.12 5.911-67.315 38.019-78.463 6.547-2.275 13.348-3.426 20.219-3.426 11.597 0 22.637 3.261 32.097 9.039 0.39-0.866 0.78-1.747 1.15-2.65-9.79-5.885-21.19-9.199-33.153-9.199zm33.933 9.681c-0.03 0.961-0.05 2.109-0.02 3.381 6.63 4.39 12.4 10.052 16.94 16.713 0.8-0.431 1.6-0.864 2.37-1.312 0.06-0.033 0.11-0.061 0.16-0.092h0.01c-5.13-7.582-11.79-13.932-19.46-18.69zm-2.34 10.176c-8.03 14.204-16.82 21.504-16.82 21.504s11.94-3.257 15.8-3.98c3.86-0.725 9.17-2.895 9.17-2.895-7-4.946-8.15-14.629-8.15-14.629zm42.57 4.494s-19.86 7.962-27.34 11.018-10.78 3.941-18.02 5.711c-7.24 1.769-18.58 4.063-27.868 9.371-9.288 5.307-9.795 10.131-9.795 10.131-2.358-3.664-1.383-6.955-1.383-6.955-2.292 1.328-9.451 4.303-9.209 7.883 0.336 4.985 7.764 4.591 7.764 4.591-2.25 4.471-5.672 5.381-5.672 5.381-1.689 2.697-3.213 2.697-3.213 2.697-0.157-0.441-0.547-1.511-0.547-1.511-8.464 6.251-9.168 10.431-9.168 10.431 1.447 0.76 2.514 1.82 2.514 1.82-0.592 0.05-2.756 0.21-2.756 0.21-0.181 0.84 0 2.5 0 2.5 2.836 0.87 3.498 1.81 3.498 1.81-0.603-0.06-3.074 0.06-3.074 0.06s0.603 2.59 3.498 2.71 4.885-2.71 4.885-2.71c-2.413-2.78-3.799-6.7-3.799-6.7l3.332-5.05c-0.347 1.28-1.213 4.65-1.213 4.65 2.784-0.84 7.834-0.99 7.834-0.99 4.221-2.77 9.334-5.68 9.334-5.68-8.822 7.7-9.758 13.77-9.758 13.77 6.636 4.95 13.985-0.58 16.528-1.81 0 0 8.567-3.38 12.548-4.71 3.98-1.32 15.32-3.86 15.32-3.86-20.027-0.48-35.349 7.72-35.349 7.72s8.688-10.37 34.989-10.37c28.83 0 45.48 17.73 45.48 17.73-5.07-12.3-22.68-21.471-42.95-21.471-22.196 0-38.605 8.931-38.605 8.931s12.668-11.946 37.645-11.946c30.64 0 43.19 15.766 43.19 15.766-3.62-12.711-10.78-16.892-16.17-23.889-5.86-7.61-5.87-15.684 0.4-23.485 6.27-7.802 17.13-13.754 17.13-13.754z" fill="#9ea2a2"/><path d="m90.194 33.365c-7.632-0.061-12.375 1.36-12.375 1.36-1.876 6.756 2.959 9.135 2.959 9.135 15.803-6.81 25.877-8.157 25.877-8.157-6.26-1.73-11.881-2.301-16.461-2.338zm-16.363 2.415c-13.346 3.944-22.039 12.517-22.039 12.517 6.522-0.376 18.412 0.098 18.412 0.098 1.484-0.655 6.633-2.899 6.633-2.899-4.354-4.173-3.006-9.716-3.006-9.716zm40.674 2.947c-14.22 0.282-27.846 7.426-27.846 7.426 9.955 3.016 10.25-0.177 28.536 4.752 1.84-2.693 3.64-5.664 5.33-8.938-3.57-2.242-6.02-3.24-6.02-3.24zm10.33 6.232c0.15 1.082 0.34 2.162 0.6 3.203 1.09 4.478 4.14 7.835 6.75 10.004 0.58 0.37 1.12 0.738 1.65 1.108 1.3-0.501 2.44-0.97 3.47-1.422-3.97-5.647-8.5-9.872-12.47-12.893zm-41.338 3.99s-2.46 2.924-3.006 4.006c0 0 4.862 5.123 5.961 6.346 0 0 5.419 2.833 12.939 8.529 4.034-3.131 8.874-7.627 13.574-13.828-12.58-3.244-21.7-1.605-29.468-5.053zm-32.304 2.999c-1.919-0.039-3.187 0.146-3.187 0.146-5.874 5.416-11.162 18.326-11.162 18.326 13.52-13.925 24.275-10.551 24.275-10.551 0.505-0.903 2.252-3.968 2.252-3.968-3.969-3.202-8.978-3.889-12.178-3.953zm21.368 7.982c-0.657 0.281-4.936 2.576-4.936 2.576 5.199 4.095 8.574 9.025 10.842 14.627 4.078-2.039 9.617-4.253 17.238-6.639 0.145-0.095 0.292-0.198 0.44-0.298-7.011-5.222-12.061-8.024-12.061-8.024-3.845-1.217-11.523-2.242-11.523-2.242zm-14.569 3.254c-12.64-0.245-23.64 15.894-23.64 15.894-6.508 32.582 16.363 52.672 16.363 52.672-13.019-38.175 6.467-64.703 6.467-64.703 0.28-0.554 2.039-3.787 2.039-3.787-0.411-0.043-0.821-0.068-1.229-0.076zm6.188 1.531c-0.679 0.452-2.321 1.928-2.321 1.928-2.501 3.875-11.345 16.955-11.968 37.787-0.624 20.82 6.537 32.14 6.537 32.14 5.881 4.04 11.457 6.65 16.394 8.35-0.543-1.6-0.96-3.42-1.17-5.52 0 0-1.871-3.55-1.685-7.67 0 0-5.986-3.18-7.856-9.73 0 0-5.613-2.81-5.613-9.54 0-6.74 5.175-10.79 6.547-12.04 1.372-1.245 3.404-3.26 3.871-4.474 0.075-0.197 0.029-0.51-0.07-0.909-0.239-0.678-0.418-1.349-0.526-2.007-0.334-1.529-0.501-3.507 0.467-5.704 0.981-2.222 2.729-5.064 8.494-8.468-4.589-11.209-11.101-14.143-11.101-14.143z" fill="#236192"/><path d="m96.241 9.7327 3.02 7.3963-0.592 4.32 2.996 0.413 0.61-4.407 4.82-6.242-3.14-0.432-2.77 3.795-1.647-4.394-3.297-0.4493zm-11.119 0.1718-3.02 0.1835 0.672 11.264 7.817-0.467-0.153-2.535-4.795 0.287-0.521-8.7325zm30.633 3.3395c-0.04 0.001-0.07 0.039-0.08 0.086l-4.18 10.649 2.65 1.037 2.06-5.24 4.48 8.015c0.11 0.205 0.18 0.175 0.22 0.053l4.18-10.666-2.64-1.035-2.07 5.269-4.48-8.027c-0.05-0.103-0.1-0.141-0.14-0.141zm-58.758 3.428c-0.034 0.016-0.057 0.057-0.057 0.119l-0.273 12.735 2.699-1.221-0.168-6.447 4.811 4.341 2.847-1.287-9.732-8.203c-0.047-0.043-0.093-0.052-0.127-0.037zm76.498 5.067-0.33 6.164-6.69 2.693 2.56 1.812 4.11-1.773-0.35 4.432 2.75 1.947 0.41-7.297 5.61-2.269-2.56-1.815-3.04 1.35 0.29-3.295-2.76-1.949zm-87.367 1.082-7.252 5.341 1.508 2.047 2.408-1.777 5.185 7.045 2.436-1.795-5.186-7.045 2.411-1.772-1.51-2.044zm-12.972 13.193c-1.693 0.039-3.359 0.84-4.549 2.234-2.111 2.478-2.126 6.155 0.461 8.362 2.587 2.209 6.23 1.622 8.34-0.856 2.112-2.48 2.113-6.17-0.471-8.377-1.133-0.965-2.464-1.394-3.781-1.363zm-0.436 2.851c0.76-0.017 1.534 0.289 2.209 0.866 1.35 1.152 1.713 2.878 0.487 4.322-1.228 1.439-2.992 1.359-4.342 0.205-1.353-1.151-1.702-2.871-0.473-4.312 0.616-0.722 1.36-1.063 2.119-1.081zm135.97 11.668c-3.98 1.93-16.28 10.98-20.14 18.942s0 13.631 0 13.631c3.62-1.931 5.39-7.842 5.39-7.842 1.05 4.101 1 8.567 1.05 11.846 0.05 3.278 3.21 6.613 3.21 6.613 7.11-10.135 3.98-23.406 5.42-31.367 1.45-7.962 5.07-11.823 5.07-11.823zm-147.59 0.838c-0.994 0.24-2.175 0.984-3.08 2.762-0.911 1.791-0.727 3.953 1.254 4.963 1.659 0.84 3.072 0.255 4.311-0.961l1-0.984c0.564-0.555 0.935-0.778 1.363-0.557 0.562 0.286 0.555 0.882 0.148 1.682-0.509 1.007-1.307 1.366-2.164 1.545l0.469 2.699c1.149-0.199 2.839-0.962 3.992-3.229 1.36-2.665 0.616-4.498-1.232-5.439-1.422-0.719-2.732-0.527-4.424 1.146l-1.121 1.108c-0.411 0.406-0.719 0.533-1.102 0.338-0.399-0.205-0.529-0.682-0.199-1.33 0.409-0.804 0.973-1.188 1.617-1.383l-0.832-2.36zm-8.088 15.1-1.994 7.672 10.918 2.842 2.063-7.895-2.459-0.637-1.297 4.967-1.881-0.486 1.035-3.957-2.33-0.606-1.031 3.953-1.801-0.468 1.238-4.742-2.461-0.643zm-3.528 17.553-0.0683 2.841 5.6643 0.129-6.0139 6.961c-0.1511 0.18-0.0696 0.23 0.0293 0.235l11.438 0.263 0.068-2.841-5.627-0.129 5.989-6.961c0.157-0.179 0.107-0.231-0.028-0.233l-11.451-0.265zm11.943 17.676-11.162 2.55 0.633 2.77 5.518-1.26-4.112 8.22c-0.104 0.21-0.012 0.24 0.084 0.22l11.143-2.55-0.631-2.77-5.482 1.25 4.091-8.21c0.108-0.22 0.049-0.25-0.082-0.22zm97.649 3.51c-14.5-0.27-28.922 8.98-28.922 8.98 20.832-9.73 35.952-3.06 35.952-3.06-21.39-1.68-29.397 4.51-29.397 4.51 7.437 13.91-7.233 23.09-7.233 23.09-6.468-0.16-13.658 1.98-13.658 1.98 2.432 13.93 15.092 11.22 15.092 11.22s-4.015-3.08 4.189-10.55c8.397-7.66 17.377-6.91 17.377-6.91-1.81 1.19-3.74 3.16-3.74 3.16 21.47 1.57 22.37 22.92 22.37 22.92 25.16-24.87 2-39.87 2-39.87 17.7 0.95 18.9 16.32 18.9 16.32 2.01-6.63 1.76-15.25-2.74-21.04-3.99-5.13-10.7-9.57-28.79-10.7-0.47-0.03-0.94-0.04-1.4-0.05zm-92.778 13.48-10.265 4.69 1.258 2.75 10.265-4.69-1.258-2.75zm52.606 1.89c1.34 3.63 5.039 5.33 5.039 5.33-0.982-2.09-1.076-5.27-1.076-5.27-2.057 0.25-3.963-0.06-3.963-0.06zm-9.695 0.68s-2.182 0.81-3.618 0.56c0 0 1.064 3.43 4.711 4.9 0 0-1.218-3.4-1.093-5.46zm-38.381 6.67-8.733 7.37c-0.081 0.08-0.03 0.12 0.079 0.13l8.062 0.62-1.617 7.98c-0.03 0.11-0.002 0.17 0.103 0.11l9.53-6.3-1.774-2.37-4.025 2.68 0.863-4.32c0.013-0.08-0.016-0.11-0.088-0.12l-4.31-0.3 3.695-3.1-1.785-2.38zm51.959 3.78s-0.482 2.03 0.453 4.33c0 0 1.658-0.34 3.23-0.14 0 0-1.982-1.48-3.683-4.19zm-7.905 1.03s-0.935 2.43 0.299 4.67c0 0 2.003-0.67 2.879-0.8 0 0-2.179-1.81-3.178-3.87z" fill="#fff"/><path d="m93.982 89.51c4.3799-3.5481 12.859-7.6195 18.825-8.9018 0 0-5.3278 4.833-7.2134 9.0098-0.19754 0.43759-0.49935 0.94162-0.88385 1.4725 1.7774-0.29288 3.9479-0.84238 3.9479-0.84238-3.1759 3.7941-11.998 6.7668-11.998 6.7668 0.17331-0.05875 0.36722-0.15738 0.56909-0.2709-1.9466 0.66802-4.07 0.845-6.2066 0.13281-1.1418 0.89581-1.5366 2.3149-1.5366 2.3149-1.2003-1.2132-2.2302-4.0192-2.5191-4.8536-0.81381-0.7816-1.6148-1.7345-2.392-2.8858 0 0 5.031 1.6058 9.4085-1.9424" fill="#0c233f"/><path d="m78.802 47.85-7.901 4.049s-5.676-0.422-8.66-0.483c2.733 1.732 5.117 3.731 5.117 3.731l-3.461 5.847 7.452-4.132s4.727 0.755 9.033 1.589c-2.48-2.783-5.483-4.832-5.483-4.832l3.903-5.769zm24.443 39.119s-4.053 2.018-6.088 3.764c-2.032 1.748-6.519 2.994-6.519 2.994 8.975 4.207 12.607-6.758 12.607-6.758zm-33.818 3.748c-0.944 8.347 5.382 3.529 5.382 3.529-3.559 0.369-5.382-3.529-5.382-3.529zm4.878 18.903c-1.528 0.01-4.841 0.11-6.918 0.64 0 0 0.455 0.98 0.699 1.16 0 0 3.871-0.44 6.328-0.48l0.711-1.32s-0.311-0.01-0.82 0z" fill="#78be20"/></svg>
