<?xml version="1.0" encoding="UTF-8" standalone="no"?><svg xmlns:rdf="http://www.w3.org/1999/02/22-rdf-syntax-ns#" xmlns="http://www.w3.org/2000/svg" height="253.96201" width="207.66324" version="1.1" xmlns:cc="http://creativecommons.org/ns#" xmlns:dc="http://purl.org/dc/elements/1.1/" viewBox="0 0 207.66324 253.96201"><defs><style>.cls-1{fill:#86cebc;}.cls-2{fill:#fff;}</style></defs><title>New York Liberty logo</title><path d="M191.35,138.97124h-5.17175c3.342-6.9177,6.587-14.144,9.67331-21.72749,0,0-15.16691-8.90174-43.44174-14.62459L156.9599,87.6771l-3.34642,2.68066a50.9767,50.9767,0,0,0-29.54021-56.78333l-1.46378-.70543C100.70565,24.59333,99.30358,8.47849,99.30358,8.47849S94.0128,18.46484,96.6141,27.296a29.00644,29.00644,0,0,0,3.029,6.82069,100.36635,100.36635,0,0,0-25.63825-8.19189C51.19715,21.90825,52.08335,0,52.08335,0s-20.9515,27.61789,2.04137,50.33739C42.582,43.283,36.29478,31.66093,36.29478,31.66093s-3.89314,20.94268,6.1373,33.33193c1.90909,2.35881,3.52719,4.916,5.38338,7.31892,3.15683,4.11358,6.01826,14.36888,5.95213,18.21352l-3.65947-2.8482,4.49717,14.74806.075.24249c-28.10288,5.73168-43.17279,14.57169-43.17279,14.57169,3.08629,7.58346,6.32689,14.80978,9.66891,21.72748H4.7v46.14886H47.75814q5.0042,7.37181,9.91581,13.87067c.68339.91266,1.36679,1.80769,2.05018,2.6983q1.44174,1.887,2.87466,3.69473.88181,1.11107,1.76359,2.20449,1.52991,1.90467,3.029,3.72117c.53349.64811,1.067,1.29183,1.596,1.92232q1.29626,1.54752,2.566,3.02014c.66134.77157,1.32269,1.53432,1.96641,2.275s1.3756,1.56077,2.05458,2.31913l1.23011,1.36677q1.56739,1.73936,3.08629,3.36406l1.04934,1.11987q1.54316,1.64013,3.01133,3.15682l.94353.97q1.455,1.4902,2.81735,2.83938l.8818.8818c.88179.8818,1.72833,1.68424,2.54839,2.469l.80684.776c.49822.47176.97879.92588,1.45056,1.36239.30863.291.604.56436.90384.83772.65693.60844,1.29183,1.186,1.887,1.72831l.82007.73188c.54231.48059,1.05375.9347,1.53433,1.35356l.74953.65252,1.13751.97.71426.604.5908.4894.76276.62165.41444.3395.28219.22045.47616.37475.65254-.51143.06173-.04849.41-.33067.82448-.67018.37035-.30422,1.24334-1.04934.18518-.1543c.51145-.4409,1.08461-.93029,1.693-1.46379l.22925-.22478c.64371-.56875,1.3227-1.19043,2.07663-1.85619l.291-.26453q1.15956-1.0449,2.447-2.253l.17635-.16313c1.82973-1.7151,3.85345-3.66386,6.04472-5.85514l.08818-.08819q1.61371-1.61368,3.33761-3.40372l.26894-.27777q1.72833-1.78564,3.52719-3.73881c.07054-.075.13668-.14992.20722-.22045,2.47785-2.67185,5.088-5.58177,7.7995-8.721l.25571-.29981q1.93557-2.24856,3.93723-4.66913l.52025-.63048q1.97084-2.39409,3.99454-4.93807c.16755-.21163.33509-.4409.507-.64371,1.38883-1.76359,2.79089-3.56686,4.20618-5.44068,3.46546-4.57653,7.00147-9.48374,10.55953-14.7172h43.40205V138.97124Z"/><path class="cls-1" d="M124.53181,90.52089c-.82008,6.49443-5.04829,13.02855-12.44216,19.14382l5.18938,5.17614,11.78081-14.65106a64.61728,64.61728,0,0,0,1.59163-11.15915A61.671,61.671,0,0,1,124.53181,90.52089Z"/><path class="cls-1" d="M138.57442,85.85618a46.35166,46.35166,0,0,1-4.74407,2.09427,67.15272,67.15272,0,0,1-2.05459,14.51437l2.73358,2.80853L144.88809,97.174A17.79065,17.79065,0,0,1,138.57442,85.85618Z"/><polygon class="cls-2" points="58.719 146.511 58.719 150.898 55.703 150.898 55.703 172.898 58.719 172.898 58.719 177.277 47.908 177.277 32.239 163.3 32.415 177.277 18.822 177.277 18.822 172.898 21.838 172.898 21.838 150.898 18.822 150.898 18.822 146.511 29.681 146.511 45.263 159.857 45.263 146.511 58.719 146.511"/><polygon class="cls-2" points="188.784 146.511 185.671 146.511 185.671 146.493 175.306 146.493 175.306 157.366 162.414 159.984 162.414 146.493 152.053 146.493 152.053 146.511 148.887 146.511 148.887 150.898 152.053 150.898 152.053 167.153 175.306 162.242 175.306 172.898 152.053 172.898 152.053 177.277 185.671 177.277 185.671 177.268 185.671 172.898 185.671 150.898 188.784 150.898 188.784 146.511"/><polygon class="cls-2" points="145.721 110.048 140.409 117.257 133.945 110.754 129.58 106.265 129.536 106.323 129.514 106.301 129.514 106.349 117.61 121.159 103.567 107.469 103.435 136.436 113.915 123.399 117.954 127.477 128.936 113.809 127.495 132.512 138.204 120.978 141.405 124.188 145.721 110.048"/><polygon class="cls-1" points="89.458 121.159 77.488 106.265 66.721 117.336 61.347 110.048 65.663 124.188 77.188 112.636 77.206 112.658 80.552 134.073 85.808 123.363 89.114 127.477 103.541 113.113 103.567 107.469 89.458 121.159"/><path class="cls-1" d="M95.55154,157.80642c-.55112-.03086-1.04934-.06173-1.51228-.097-9.25887-.80684-19.45244-5.32605-19.45244-5.32605a27.77664,27.77664,0,0,0,14.20575,7.05437c-.44089,1.88264-.71425,4.334.62609,4.88957,3.60654,1.49024,12.26138-.26013,12.65379-3.26265C102.56624,157.23766,98.95528,157.996,95.55154,157.80642Z"/><path class="cls-1" d="M99.39177,170.61012a32.71268,32.71268,0,0,1-3.52719.30864c-9.28533-.8818-19.50977-5.56855-19.50977-5.56855a27.66651,27.66651,0,0,0,14.51438,7.288c-.66135,2.13836-1.22129,3.051,1.44173,3.30674,7.341.69661,11.66178-3.64623,11.54714-5.02624S103.75226,169.96642,99.39177,170.61012Z"/><path class="cls-1" d="M98.5232,181.5885c-.81567.15871-1.59164.26454-2.33236.3439h.03086c-9.36468-.81126-19.88451-5.63469-19.88451-5.63469a27.56055,27.56055,0,0,0,14.69074,7.31451c-.51585,2.02372-1.04492,2.89671,1.38883,3.01574,6.5738.31745,10.24208-3.73,10.08335-4.95569S102.38547,180.83456,98.5232,181.5885Z"/><path class="cls-1" d="M98.54525,191.37645c-.74953.14549-1.4726.24249-2.1604.31745-7.37624-.6878-15.53726-4.409-15.53726-4.409a22.22571,22.22571,0,0,0,10.705,5.6391c-.50263,2.20449-1.24333,3.12155,1.21689,3.24061,6.21667.2998,9.69977-3.52719,9.541-4.68676S102.20029,190.6666,98.54525,191.37645Z"/><path class="cls-1" d="M97.1035,198.75267l.58639,5.1012s1.46379,2.53958,5.86836,2.5484l.26013-11.35755A12.60249,12.60249,0,0,1,97.1035,198.75267Z"/><path class="cls-1" d="M103.55826,206.40227"/><path class="cls-2" d="M103.55826,206.40227l.26013-11.35755s5.1012-4.18413-.4409-8.09931c0,0,6.65757-5.07915.76276-8.818,0,0,7.78627-4.97334,3.19652-10.8946,0,0,3.18329,3.50515,5.84632,4.1665l-3.75645,32.43691a6.38194,6.38194,0,0,1-5.886,2.54839"/><path class="cls-1" d="M103.50536,210.47177h0c-3.74323,0-5.44069-.8818-6.97061-3.32438a3.08622,3.08622,0,0,0-.7848,1.98845c0,2.49991,3.47429,4.53244,7.75541,4.53244h0C106.00085,212.03254,103.50536,210.47177,103.50536,210.47177Z"/><path class="cls-2" d="M111.26076,209.13584a3.08625,3.08625,0,0,0-.78038-1.98845c-1.66219,2.447-3.23178,3.32438-6.975,3.32438h0s2.49549,1.56077,0,3.19651a3.24961,3.24961,0,0,0,.54671-.03086,21.54208,21.54208,0,0,0,2.61894-.37037C109.37372,212.55721,111.26076,210.9744,111.26076,209.13584Z"/><path class="cls-2" d="M124.404,215.55973a333.639,333.639,0,0,0,24.20974-30.422H142.979c-6.68844,9.25887-13.174,17.30086-19.09532,24.0863Z"/><path class="cls-2" d="M83.10057,208.76549c-5.81545-6.69725-12.16-14.54965-18.6941-23.63217h-5.6391A336.87775,336.87775,0,0,0,82.6729,215.22905Z"/><path class="cls-2" d="M182.15285,120.61663a178.053,178.053,0,0,0-32.384-9.35146l-1.35356,4.43544a177.86679,177.86679,0,0,1,29.7827,8.30653c-2.33236,5.18937-4.74848,10.14066-7.19547,14.9641h5.1541c2.46462-4.93807,4.894-9.99077,7.23074-15.29036l.95675-2.16923Z"/><path class="cls-2" d="M58.67038,115.7447l-1.35356-4.431a178.76166,178.76166,0,0,0-32.115,9.29855l-2.2045.8818.95675,2.16923c2.34117,5.29078,4.77493,10.3523,7.23956,15.29477h5.15851c-2.4514-4.84988-4.87193-9.77913-7.20428-14.96851A182.48964,182.48964,0,0,1,58.67038,115.7447Z"/><path class="cls-1" d="M103.50536,144.13415h0c-17.23473,0-31.70943-5.05269-35.9641-11.90426-1.52992-.33948-4.334-.50263-5.23788,2.38085a6.269,6.269,0,0,0-.18958,1.26979c0,8.88411,18.51774,16.08839,41.39156,16.08839h0C108.93282,147.4894,103.51417,144.13857,103.50536,144.13415Z"/><path class="cls-2" d="M144.89251,135.87172a6.23011,6.23011,0,0,0-.16313-1.09783c-.83771-3.04661-3.69032-2.90111-5.25552-2.56162-4.25027,6.86479-18.72938,11.90426-35.9685,11.90426,0,0,5.42746,3.35523,0,7.82595h0C126.36154,151.9601,144.89251,144.75582,144.89251,135.87172Z"/><path class="cls-1" d="M202.9809,134.27567H193.528c2.27944-4.93807,4.52362-9.98635,6.6708-15.26391l1.5299-3.76086-3.49632-2.05459c-.9347-.54671-16.31325-9.37791-44.44257-15.114l-1.38,4.53685c28.27483,5.73168,43.44173,14.62459,43.44173,14.62459-3.08629,7.58347-6.3313,14.80979-9.67332,21.72749h16.80264v46.14444h-43.402c-3.55806,5.23347-7.09406,10.14067-10.55953,14.7172-1.41528,1.87382-2.81735,3.67709-4.20618,5.44069-.172.21163-.33948.4409-.507.64371q-2.02372,2.544-3.99454,4.93807l-.52025.63048q-1.99727,2.41611-3.93723,4.66913l-.25571.2998c-2.71152,3.1392-5.32165,6.04912-7.7995,8.721-.07054.07053-.13667.1455-.20722.22045q-1.8165,1.95761-3.52719,3.73881l-.26894.27777c-1.04934,1.089-2.0634,2.12072-3.051,3.11274-.7319-10.705-2.84821-41.81923-2.67185-41.93827,7.62754-5.1012,11.41927-19.88012,11.60445-20.51942a35.78032,35.78032,0,0,0,2.01931-9.47051,4.63755,4.63755,0,0,0-.06173-.82889v-.05291l-.03968-.04849s-1.07579-1.20806-2.35881-2.42494-2.7512-2.43376-3.7829-2.46021a1.19878,1.19878,0,0,0-.27777.03527,59.74045,59.74045,0,0,1-8.0993,1.76359h-.02646a11.46294,11.46294,0,0,1-3.2847.41886c-.88179,0-1.74155-.06173-2.469-.06173a3.57563,3.57563,0,0,0-1.7636.32626,1.66657,1.66657,0,0,0-.78038,1.5211v.06174c.03526,1.84736,2.56162,5.43187,5.95213,6.8207a9.52344,9.52344,0,0,0,3.59332.65693,15.87248,15.87248,0,0,0,6.36658-1.49905,50.05929,50.05929,0,0,1-5.33488,7.38946c-.93912,1.10666-1.76359,2.03695-2.39408,2.69389l-4.06508,28.385a6.91777,6.91777,0,0,1,1.261,1.74155,7.17339,7.17339,0,0,1,1.34474,4.10035c0,3.15243-2.09427,5.77578-5.33488,7.30568l-.03086.40562c-.10582,2.02813-.37036,6.50326-.679,9.74826a7.19989,7.19989,0,0,1-5.66114,11.54273v9.81l-.1499.11464-.47617-.37476-.28218-.22044-.41444-.33951-.76276-.62165-.59081-.48939-.71425-.604-1.13751-.97-.74953-.65252c-.48058-.4409-.992-.8818-1.53434-1.35357l-.82006-.73188c-.59522-.54229-1.23011-1.11987-1.887-1.72831-.2998-.27336-.59521-.54671-.90383-.83772-.47177-.4409-.95235-.8818-1.45056-1.36239l-.80684-.776c-.82007-.78482-1.6666-1.60047-2.5484-2.469l-.88179-.8818q-1.36238-1.35354-2.81735-2.83939l-.94353-.97q-1.4682-1.5123-3.01133-3.15682l-1.04934-1.11988q-1.50787-1.6203-3.08629-3.364l-1.23011-1.36678q-1.01847-1.13754-2.05459-2.31913c-.64812-.74071-1.3227-1.50345-1.96641-2.275q-1.2698-1.477-2.566-3.02014c-.52907-.63048-1.06256-1.2742-1.59605-1.92231q-1.50346-1.81649-3.029-3.72119-.88179-1.08459-1.76359-2.20449-1.42853-1.80768-2.87466-3.69473c-.6834-.8818-1.36679-1.78564-2.05018-2.6983q-4.894-6.50767-9.91581-13.87067H4.7V138.97124H21.16313c-3.342-6.9177-6.587-14.144-9.6689-21.72749,0,0,15.06991-8.84442,43.17278-14.57169l-1.38442-4.53685c-27.975,5.73168-43.23892,14.51439-44.16922,15.0611L5.617,115.2509l1.52551,3.76086c2.14718,5.29078,4.409,10.32585,6.6708,15.26391H0v55.55322H45.30674a347.99639,347.99639,0,0,0,22.11107,28.87c18.67205,21.8377,32.78522,32.65736,33.376,33.10709l2.83939,2.156,2.83939-2.156c.5908-.4409,14.73042-11.26495,33.42452-33.10706a347.04046,347.04046,0,0,0,22.1287-28.87h45.63742V134.27568Z"/><path class="cls-1" d="M121.5822,87.7785a15.80189,15.80189,0,0,0-.26894-2.49989c-1.82092-9.55868-9.53223-11.65736-24.148-14.83183-1.55637-.3395-3.16565-.6878-4.82785-1.06257-.97879-.22045-2.05017-.507-3.16125-.8333-23.06781-5.03065-42.29981-15.815-49.51732-25.916,0,0-1.90027,13.63259,11.9704,26.18938C76.57526,89.04388,105.06173,90.24313,121.5822,87.7785Z"/><path class="cls-1" d="M97.82658,67.39576c14.07789,3.05542,24.24942,5.26433,26.5421,17.292a18.61271,18.61271,0,0,1,.291,2.55722,54.40174,54.40174,0,0,0,6.08-1.5167,71.99092,71.99092,0,0,0-.4938-8.7386c-2.46462-20.94268-20.21521-33.4598-32.09741-39.57947A79.31634,79.31634,0,0,0,73.52427,29.915C61.2849,28.43355,51.58514,20.05207,50.43439,11.48982c0,0-.35713.701-.82889,1.93995a30.80559,30.80559,0,0,0,5.83308,31.34789c10.07013,11.34873,26.864,19.14382,37.58661,21.56876Q95.50525,66.90858,97.82658,67.39576Z"/><path class="cls-1" d="M130.10035,41.01239a46.94734,46.94734,0,0,0-7.56582-4.15326c-8.72979-4.2194-18.45161-8.40353-22.83414-18.39429,0,0-3.36847,10.14066,10.71824,22.75918,13.3945,9.6204,21.32186,21.8333,22.92673,35.413a76.55566,76.55566,0,0,1,.51585,7.93618,42.28578,42.28578,0,0,0,4.409-2.08987c-.22926-5.73168,1.08021-11.74994,2.20449-16.90845.41886-1.92673.81567-3.74323,1.09784-5.38338.776-4.49716-.8818-8.6372-2.97166-11.87781A47.5772,47.5772,0,0,0,130.10035,41.01239Z"/><path class="cls-1" d="M144.61474,60.73819c-.29541,1.70627-.69662,3.55364-1.12429,5.51564a74.86064,74.86064,0,0,0-2.156,14.34684,33.46848,33.46848,0,0,0,8.915-8.59753,47.01735,47.01735,0,0,0-5.50682-15.18895A15.55519,15.55519,0,0,1,144.61474,60.73819Z"/><path class="cls-1" d="M150.80936,76.42536a39.959,39.959,0,0,1-9.31178,7.79509,15.35091,15.35091,0,0,0,5.93449,10.96515l1.51669-1.18161a47.40954,47.40954,0,0,0,2.03254-13.712C150.98131,78.987,150.91077,77.69956,150.80936,76.42536Z"/><path class="cls-1" d="M77.79215,99.89439l12.01449,14.94646,13.69872-13.69431v-.06173l.03086.03087.03087-.03087v.06173l6.30484,6.30045c5.326-4.3605,10.27735-9.97313,11.46337-16.3882a85.39757,85.39757,0,0,1-12.42452.88179A95.12069,95.12069,0,0,1,55.47387,75.52593l-2.23095-1.44174S57.502,80.60067,58.3838,94.13185l14.2278,11.10623Z"/><path class="cls-1" d="M104.93386,229.10415l.83331-11.46337a17.63913,17.63913,0,0,1-2.20449.14992,17.33636,17.33636,0,0,1-2.11631-.1455l.82889,11.46336a2.2442,2.2442,0,0,0-.95676,1.80767,2.27945,2.27945,0,0,0,4.55448.20059q.00442-.10026,0-.20059A2.2309,2.2309,0,0,0,104.93386,229.10415Z"/></svg>