<?xml version="1.0" encoding="UTF-8" standalone="no"?>
<svg xmlns:rdf="http://www.w3.org/1999/02/22-rdf-syntax-ns#" xmlns="http://www.w3.org/2000/svg" height="145.44276" width="257.04001" version="1.1" xmlns:cc="http://creativecommons.org/ns#" xmlns:dc="http://purl.org/dc/elements/1.1/" viewBox="0 0 257.04001 145.44276"><path d="M32.403,87.02225A50.9009,50.9009,0,0,1,19.24416,60.70452,51.61414,51.61414,0,0,1,61.21732.94351a47.80964,47.80964,0,0,1,8.998-.78017A50.72863,50.72863,0,0,0,58.04463.8915,54.06765,54.06765,0,0,0,14.14708,63.4091,53.68661,53.68661,0,0,0,25.58955,88.37454c3.1727-.57212,5.5132-1.04022,5.5132-1.04022A11.79289,11.79289,0,0,1,32.403,87.02225ZM243.153,78.0763l-1.97646.46811-2.70459.41608c-1.30028,3.69282-3.90085,6.18935-4.00486,10.71434a23.54362,23.54362,0,0,1-11.18243,6.9175c-4.525,1.09225-7.43761-.052-9.102-1.35229a9.46783,9.46783,0,0,1-3.48475-7.74969v-.98822l-7.28159,1.97643c-4.421,1.19627-5.92929.052-6.96951-1.09223-1.82041,3.06868-5.4612,4.421-8.11377,5.09711l-14.51117,3.84885a8.8324,8.8324,0,0,1-4.733.208,16.46593,16.46593,0,0,1-4.629,2.2885l-50.555,13.26289c-3.48476.98822-5.61722.26006-7.17756-1.04022h0c-1.76838,3.01665-5.56521,4.421-9.31,5.35716L56.38027,127.227c-1.40431.41608-5.40919,1.71637-8.2698-1.35231L47.07023,127.331c-2.49653,3.43276-5.66923,4.577-9.258,5.09712a7.17009,7.17009,0,0,1-6.91752-2.34052c-.208-.26-.9882.9362-.9882.9362a16.22293,16.22293,0,0,1-8.58187,5.4612l-5.30514,1.35229-8.37383,2.34051,2.65255-8.32181,9.57009-30.01053L6.96949,93.6797l-3.84884,4.681,12.43073,7.8017L5.98128,136.173l-2.65257,8.2698,8.37383-2.18447,5.30515-1.40432a24.14569,24.14569,0,0,0,9.93417-5.92929,7.36252,7.36252,0,0,0,6.55341,1.92442c3.5888-.46809,8.58188-2.54854,11.13045-5.98129,2.75659,1.76838,6.18933,1.09223,7.48962.78016l40.98493-10.76634c3.69281-.98822,8.84192-1.66436,10.66232-4.577v-.052c2.49655.98822,3.32872.67615,5.82527.31207l50.555-13.3149a12.73378,12.73378,0,0,0,4.629-2.2885,7.904,7.904,0,0,0,4.733-.20805l14.51117-3.79682c2.70458-.72817,6.86549-1.3523,8.68588-4.421,1.61235.72816,2.75661,1.19627,6.3974.41609l7.3336-1.97643s-.052.62414-.052.98822a9.31366,9.31366,0,0,0,3.48477,7.74969c1.66436,1.24827,4.525,2.3405,9.05,1.30028,8.6859-1.92442,15.7074-8.16578,19.7123-16.74764l.36406-.62414.83218-1.40431c4.78506-1.61236,11.80659-5.35717,14.1991-13.00284C252.87906,72.61512,248.77017,76.62,243.153,78.0763Z" fill="#211646"/><path d="M253.97133,69.07834v-.052C254.02334,69.02634,253.97133,69.02634,253.97133,69.07834ZM6.96952,93.6797h0l1.8204-2.18447Z" fill="#b3b2b1"/><path d="M216.62721,93.31563a9.53856,9.53856,0,0,1-3.48477-7.74968,6.29459,6.29459,0,0,1,.052-.98821l-7.3336,1.97643c-4.369,1.14424-6.65744-.31207-7.74968-1.45633a12.00326,12.00326,0,0,1-7.3336,5.4612L176.2664,94.35587a7.90408,7.90408,0,0,1-4.733.208,14.04772,14.04772,0,0,1-4.629,2.28849l-50.555,13.31491c-4.421,1.14425-6.9175-.62414-8.00974-1.76838a13.65614,13.65614,0,0,1-8.52985,6.13733L58.82482,125.40663c-1.4043.36408-5.92929,1.14425-8.73791-1.87241l-1.09223,1.45632c-.26.36408-.52012.72816-.78018,1.04022,2.80862,3.01666,6.76148,1.71637,8.2178,1.3523l41.03694-10.76635c3.6928-1.04022,7.48963-2.44452,9.31-5.35716h0c1.50833,1.24828,3.69281,1.97643,7.17757.98822l50.555-13.2629a14.10383,14.10383,0,0,0,4.629-2.28849,8.83559,8.83559,0,0,0,4.733-.20805l14.51116-3.79682c2.70459-.72817,6.29337-2.08046,8.11377-5.14913,1.09223,1.14425,2.65258,2.2885,6.96951,1.09224l7.28158-1.97643a6.63309,6.63309,0,0,0-.052.98821,9.21885,9.21885,0,0,0,3.53677,7.74969c1.66436,1.30029,4.525,2.44453,9.05,1.3523a22.10056,22.10056,0,0,0,11.18243-6.91751v-.052A18.44136,18.44136,0,0,1,225.7812,94.72C221.25621,95.81218,218.29157,94.56391,216.62721,93.31563Z" fill="#b3b2b1"/><path d="M245.5975,76.09987l-3.95288.98822-.052.52011-.36406.93621,1.87241-.4681c5.6172-1.45632,9.77813-5.46119,10.87035-8.998A13.07739,13.07739,0,0,1,245.5975,76.09987Z" fill="#b3b2b1"/><path d="M40.25677,130.45172c-3.84884.62414-5.92929-1.14424-6.86549-2.34051a4.068,4.068,0,0,1-.62414-.98821l-1.35229,1.97643a4.08174,4.08174,0,0,1-.67615.98821.191.191,0,0,1,.156.052c.88419,1.09224,3.01666,2.86062,6.8655,2.34051,3.58878-.52012,6.70946-1.66436,9.258-5.09711l.72815-.98822A11.37989,11.37989,0,0,1,40.25677,130.45172Z" fill="#b3b2b1"/><path d="M18.516,135.96491l-8.37383,2.18448,2.70459-8.32181L22.41689,99.817,8.84193,91.3912,7.07354,93.57568l12.8468,8.26981L10.29825,131.856l-2.65258,8.2698,8.37382-2.18447,5.30516-1.40431a16.837,16.837,0,0,0,8.58187-5.40917.16111.16111,0,0,1,.052-.104,12.57285,12.57285,0,0,1-6.13734,3.53678Z" fill="#b3b2b1"/><path d="M21.79275,60.54849A51.57571,51.57571,0,0,1,63.76589.78748a46.03662,46.03662,0,0,1,4.577-.62414,46.71624,46.71624,0,0,0-7.07354.78017A51.62451,51.62451,0,0,0,31.41485,85.93a18.82756,18.82756,0,0,0,2.13246-.57213A51.04847,51.04847,0,0,1,21.79275,60.54849Z" fill="#b3b2b1"/><path d="M246.53372,61.79675l4.83705-14.87523L213.03841,57.06373l-5.9813,1.61235,2.08045-6.96953-8.3218,2.18448-4.21292,1.14426a22.07644,22.07644,0,0,0-5.87728,2.49653l2.75659-6.70945L121.03038,69.91052a50.84368,50.84368,0,0,0,2.54856-27.14991,51.64348,51.64348,0,1,0-90.03163,42.7013C32.143,85.826,8.89393,91.54724,8.89393,91.54724l13.575,8.42584-9.6221,30.01053-2.65257,8.32182L18.568,136.121l5.30516-1.4043a12.71991,12.71991,0,0,0,7.64567-5.40919l1.35229-1.97643a5.53142,5.53142,0,0,0,.57213.98822c.9362,1.14426,3.01667,2.91263,6.91752,2.34051,3.58876-.4681,6.18933-2.18448,8.68588-5.56521l1.09224-1.45632c2.80861,3.01666,7.33361,2.2885,8.7379,1.82039l41.03693-10.76634a14.08645,14.08645,0,0,0,8.52987-6.13734h0c1.09224,1.19627,3.58878,2.91264,7.95773,1.76839l50.555-13.3149a11.94938,11.94938,0,0,0,4.629-2.2885,8.33779,8.33779,0,0,0,4.733-.20805l14.51116-3.79683a12.00317,12.00317,0,0,0,7.3336-5.46118c1.14424,1.14424,3.43274,2.54855,7.8017,1.45631l7.28158-1.97643V85.722a9.53861,9.53861,0,0,0,3.48477,7.74969c1.66436,1.24827,4.525,2.49655,9.05,1.35229,8.7899-2.34051,13.00283-9.41405,15.86345-17.05971l.104-.46811,3.95286-1.04022a13.36293,13.36293,0,0,0,9.154-8.998L257.04,59.24821Z"/><path d="M187.6569,60.44447l-2.44454.67615-1.35231,1.40429-.62413-.83218-3.12068.83218,1.66436,2.18449-2.02843,2.08046-3.69282.93618,1.45633-4.577-2.75661.72815-1.35229,4.26493a.56566.56566,0,0,0-.052.26006l-2.96464.72815,1.04021-3.17268c.31207-1.14425-.104-1.45632-.62414-1.3523a4.46224,4.46224,0,0,0-2.08046,1.30028l-2.3405,2.65259.93621-2.80862-2.75661.72816-1.45631,4.629-5.25315,1.40432c-.4681.104-1.14425.20805-.93621-.72816l.104-.31208,3.79682-.9362a2.50887,2.50887,0,0,0,.78018-1.66437c-.052-1.30028-1.71639-1.14425-2.65259-.83217l-10.45426,2.7566a4.83607,4.83607,0,0,0-3.84886,3.69281,2.55068,2.55068,0,0,0,.20805,1.45631l-2.96464.78018c.26006-.72817,1.04022-3.1727,1.04022-3.1727.46811-1.50833-.46809-1.4043-.62412-1.3523a3.794,3.794,0,0,0-2.02844,1.3523l-2.18448,2.65258,2.39252-7.48963-2.7046.72815-3.43274,10.66233,1.61235-.41609a2.76706,2.76706,0,0,0,1.09223-.78018l2.91264-3.27671-.62413,1.87241c-.31208.93621-.052,1.30029.72816,1.09224l3.2247-.83219a2.81605,2.81605,0,0,0,1.76838-1.66436c.4681.67616,1.50834.98822,3.22471.46811,1.97643-.57213,3.48476-1.97642,3.58878-3.84883a1.85839,1.85839,0,0,0-.4681-1.35231s3.2767-.9362,3.38073-.9362a3.56778,3.56778,0,0,0-.72815,2.02845c-.052,2.08045,2.13245,1.82039,3.64079,1.40429l5.0451-1.40429,1.40429-.36409a4.70034,4.70034,0,0,0,1.50834-1.04021l2.65258-3.06868-.62413,1.87241c-.31207.9362-.052,1.30029.88418,1.04021l5.61723-1.4043c.052,0,.208-.052.26006-.052l3.90085-.9882c.104-.052.26005-.052.36408-.104l1.87241-.4681,2.02844-2.08046.93621,1.30029,3.06866-.78017-1.87241-2.65259Zm-30.01056,9.206,1.61236-.4161-.57213,1.30029-1.40431.36407Zm-8.946,5.4612s-1.76838.67614-1.4043-.62414l.72816-2.23649,1.76839-.4161Zm38.95651-14.6672-2.44454.67615-1.35231,1.40429-.62413-.83218-3.12068.83218,1.66436,2.18449-2.02843,2.08046-3.69282.93618,1.45633-4.577-2.75661.72815-1.35229,4.26493a.56566.56566,0,0,0-.052.26006l-2.96464.72815,1.04021-3.17268c.31207-1.14425-.104-1.45632-.62414-1.3523a4.46224,4.46224,0,0,0-2.08046,1.30028l-2.3405,2.65259.93621-2.80862-2.75661.72816-1.45631,4.629-5.25315,1.40432c-.4681.104-1.14425.20805-.93621-.72816l.104-.31208,3.79682-.9362a2.50887,2.50887,0,0,0,.78018-1.66437c-.052-1.30028-1.71639-1.14425-2.65259-.83217l-10.45426,2.7566a4.83607,4.83607,0,0,0-3.84886,3.69281,2.55068,2.55068,0,0,0,.20805,1.45631l-2.96464.78018c.26006-.72817,1.04022-3.1727,1.04022-3.1727.46811-1.50833-.46809-1.4043-.62412-1.3523a3.794,3.794,0,0,0-2.02844,1.3523l-2.18448,2.65258,2.39252-7.48963-2.7046.72815-3.43274,10.66233,1.61235-.41609a2.76706,2.76706,0,0,0,1.09223-.78018l2.91264-3.27671-.62413,1.87241c-.31208.93621-.052,1.30029.72816,1.09224l3.2247-.83219a2.81605,2.81605,0,0,0,1.76838-1.66436c.4681.67616,1.50834.98822,3.22471.46811,1.97643-.57213,3.48476-1.97642,3.58878-3.84883a1.85839,1.85839,0,0,0-.4681-1.35231s3.2767-.9362,3.38073-.9362a3.56778,3.56778,0,0,0-.72815,2.02845c-.052,2.08045,2.13245,1.82039,3.64079,1.40429l5.0451-1.40429,1.40429-.36409a4.70034,4.70034,0,0,0,1.50834-1.04021l2.65258-3.06868-.62413,1.87241c-.31207.9362-.052,1.30029.88418,1.04021l5.61723-1.4043c.052,0,.208-.052.26006-.052l3.90085-.9882c.104-.052.26005-.052.36408-.104l1.87241-.4681,2.02844-2.08046.93621,1.30029,3.06866-.78017-1.87241-2.65259Zm-30.01056,9.206,1.61236-.4161-.57213,1.30029-1.40431.36407Zm-8.946,5.4612s-1.76838.67614-1.4043-.62414l.72816-2.23649,1.76839-.4161Zm-19.40021-3.27673.78016-.20805a8.07627,8.07627,0,0,1,1.09225-.208c.26,0,.46808,0,.62412.208a1.05852,1.05852,0,0,1,.31207.78018v.20805h0c-.156,2.34052-3.01665,4.16091-4.369,4.837l-.31206.156Zm2.13245-2.39252-7.17756,1.87241,2.54856,1.14426-3.22471,10.19422,2.44453-.67615.98821-3.06868.052-.052c2.39251-1.14426,7.95772-4.421,8.00975-7.95776v-.104c0-1.3523-.72817-1.71638-1.7684-1.71638A16.70759,16.70759,0,0,0,131.43263,69.44242ZM176.7345,61.9528a2.83284,2.83284,0,0,0,2.02844-2.44453c0-1.09224-.83218-1.71639-2.02844-1.45632a2.89789,2.89789,0,0,0-2.02844,2.49654A1.51538,1.51538,0,0,0,176.7345,61.9528Zm0,0a2.83284,2.83284,0,0,0,2.02844-2.44453c0-1.09224-.83218-1.71639-2.02844-1.45632a2.89789,2.89789,0,0,0-2.02844,2.49654A1.51538,1.51538,0,0,0,176.7345,61.9528Z" fill="#b3b2b1"/><path d="M72.13971,112.66384,64.182,114.7443l6.24137-18.09995c2.02843-5.82527-2.39253-5.5132-3.01666-5.35716-3.32873.78017-3.90085,1.82039-6.34539,4.88907L50.9711,108.971l5.14911-14.51117c2.02846-5.82527-2.13246-5.46119-2.70459-5.30515-4.473,1.19627-5.9813,3.32872-8.26978,6.60544L33.85936,111.46759l5.56521-17.68386c1.50834-4.733-.57212-4.94108-3.06866-4.26493L21.84474,93.10758l7.6977,4.473L18.82809,130.91983l5.30517-1.40432a7.9069,7.9069,0,0,0,4.733-3.2247l16.1235-23.71717-6.39738,18.36c-.88418,2.49653-.67616,4.99308,2.49653,4.525,2.1845-.31207,3.79684-1.30029,5.56522-3.74483L59.605,104.03l-4.369,12.48271c-1.04022,2.96465-1.09223,5.14913,3.84883,3.84884l24.65339-6.50141,1.09223-.31207,15.29133-4.05688c2.75661-.72817,5.72125-2.86063,6.55343-5.9293L110.368,93.15959l5.5132-1.45631-2.96464,9.31c-.98823,3.12069.26,4.9931,3.64078,4.1089l23.66517-6.24136,3.43274-.88419,18.77609-4.94108,1.61234-.36408,3.01667-.83218a10.51588,10.51588,0,0,0,5.5132-3.84884c0,1.66437,1.76838,1.97644,3.84884,1.40431l14.56316-3.79683a8.0753,8.0753,0,0,0,5.5132-5.66923l3.32874-10.29825,5.5132-1.45632-2.96466,9.258c-.93619,3.1727.31207,4.99309,3.64081,4.16091L220.528,77.76424l1.97643-.52012a11.78611,11.78611,0,0,0-3.27671,7.90573c0,3.22471,1.97643,5.66923,6.60543,4.525,7.64567-2.02845,11.02641-9.51808,13.47095-16.90368l6.39739-1.66438a8.6804,8.6804,0,0,0,5.77326-5.72123l-10.81836,2.86062,4.837-14.87524-9.466,2.49654-4.83707,14.87524-2.08044.52011-3.22471.83218,4.88908-14.87523L221.2562,59.7163,217.09529,71.939a1.6168,1.6168,0,0,0,1.66436,1.97643l-8.06176,2.18448,4.78505-14.87524-14.45916,3.84884,2.18448-6.96953-4.21292,1.09225c-3.64079,1.04022-8.37383,3.84884-8.37383,8.21778a3.37209,3.37209,0,0,0,3.64081,3.58879L190.82956,81.353l-8.7379,2.2885,4.733-14.87524-9.36205,2.49654-4.88906,14.82324-2.34051.62412-3.01666.78018,4.88906-14.87524-9.46606,2.49655-4.421,13.21087a6.37446,6.37446,0,0,0-.36407,1.66437l-8.6859,2.2885-7.17756,1.8724c-2.80862.67614-4.31694,0-3.38075-2.7566l2.02845-6.29338,3.17269-.78016v.62413c-.052,2.7566,2.34052,4.36895,5.25315,3.53678,2.96465-.72816,5.35716-3.58879,5.35716-6.34539,0-2.70459-2.44454-4.21292-5.35716-3.43274L142.459,80.46883c-6.24137,1.66436-13.10687,6.4494-13.887,13.26289a5.60981,5.60981,0,0,0,.78016,3.79683L121.03035,99.713l4.733-14.92724L111.30423,88.6346l2.18448-6.96951-4.21292,1.14424c-3.58878.98822-8.37382,3.79684-8.37382,8.16579a3.35774,3.35774,0,0,0,3.58878,3.58879L101.11,104.91415l-9.362,2.49655-7.6977,1.97643c-1.61234.41608-4.10888.62413-3.22469-2.18448l2.60057-6.96951,5.5132-1.40431-2.34052,5.09711-4.681,1.14425-.41609,1.30028,9.154-2.3405v-.052l4.1089-1.09225a7.1228,7.1228,0,0,0,2.70459-5.35716c-.26006-4.05689-6.03332-3.53677-9.362-2.7046l-3.79681,1.04024c-6.03333,1.61235-13.21089,6.50142-13.21089,13.575A5.79242,5.79242,0,0,0,72.13971,112.66384Zm155.93-27.566a2.52887,2.52887,0,0,1-1.50834-2.39251c0-2.44453,2.28851-6.44941,4.629-7.07355Z" fill="#fff"/><path d="M46.29009,86.71018A16.57314,16.57314,0,0,1,50.555,85.04582a7.68377,7.68377,0,0,1,7.3336,2.08046,5.68278,5.68278,0,0,1,1.45632,2.54856,10.36047,10.36047,0,0,1,5.25314-2.54856,8.08184,8.08184,0,0,1,7.59366,2.13246A7.06554,7.06554,0,0,1,74.06414,94.928a23.59794,23.59794,0,0,1,7.54164-3.27671l3.79682-.98821a21.76451,21.76451,0,0,1,8.2178-.52012l1.76838-1.14425c1.09224-5.46119,6.34539-8.998,11.65055-10.35025l4.21291-1.09225.62413-.104a45.06119,45.06119,0,0,0,6.3974-12.37869,46.17705,46.17705,0,1,0-71.98368,21.6367Z" fill="#d35e13"/><path d="M135.95762,14.36241l4.21291-4.88905C48.11048,20.75981,1.66436,57.47981,1.66436,57.47981l.36408-.26006C5.82526,54.41115,50.295,22.16411,135.95762,14.36241Z" fill="#b3b2b1"/><path d="M123.05881,46.8175c1.30028,2.08046,1.19626,2.86063,1.19626,2.86063l.31207-.104,17.05971-19.40023C46.96623,38.80776,0,75.68379,0,75.68379S22.833,64.50136,37.50017,59.97638C68.55093,50.35427,119.366,40.52413,123.05881,46.8175Zm-3.48475-16.5396c1.14424,1.8204.98821,2.02846.98821,2.02846h.104l15.34334-17.94392C46.3421,22.52823,1.76838,57.47983,1.76838,57.47983S23.35309,46.8175,37.24011,42.55257C67.30266,33.29456,116.34935,24.92073,119.57406,30.2779Z"/><path d="M144.95558,42.86463C75.2604,51.23846,33.18323,71.67891,14.97926,82.44526,33.0272,72.095,73.596,53.631,140.79468,47.49365Z" fill="#b3b2b1"/><path d="M121.55048,64.18928l-.78017,5.5132.104-.052,19.92035-22.15682C45.666,56.12753,3.84884,89.67484,3.84884,89.67484s17.94391-9.362,32.50708-13.783C67.56272,66.32175,117.85767,57.89591,121.55048,64.18928Z"/><path d="M145.63173,25.64889C49.5668,36.88333.052,75.68379.052,75.68379s47.01825-36.876,141.57484-45.50991Z" fill="#b3b2b1"/></svg>