<svg xmlns="http://www.w3.org/2000/svg" viewBox="0 0 200 181" width="200" height="181">
	<style>
		tspan { white-space:pre }
		.shp0 { fill: #75b81d } 
		.shp1 { fill: #2b5235 } 
		.shp2 { fill: #fce01a } 
		.shp3 { fill: #ffffff } 
	</style>
	<g >
		<path class="shp0" d="M99.61 0.18C99.51 0.28 95.47 3.25 90.64 6.78C85.81 10.31 81.05 13.79 80.06 14.51C79.08 15.23 77.84 16.13 77.31 16.52C76.78 16.91 76.06 17.43 75.71 17.69C75.35 17.95 74.05 18.91 72.82 19.81C71.59 20.72 69.54 22.21 68.27 23.14C67 24.06 63.37 26.72 60.19 29.03C57.02 31.35 52.06 34.97 49.17 37.09C46.28 39.2 42.96 41.62 41.79 42.47C40.63 43.32 39.16 44.4 38.53 44.87C37.89 45.34 35.09 47.39 32.31 49.42C29.52 51.45 26.52 53.64 25.64 54.29C24.76 54.94 21.79 57.11 19.04 59.12C16.29 61.12 11.96 64.28 9.42 66.14C6.88 68 3.73 70.3 2.41 71.26L0.01 73C0 84.33 0.05 85.97 0.26 88.45C0.4 90.11 0.57 92.01 0.65 92.68C0.72 93.35 0.95 95.02 1.15 96.4C1.36 97.77 1.7 99.79 1.93 100.88C2.15 101.98 2.61 104.02 2.96 105.43C3.32 106.84 3.74 108.49 3.91 109.09C4.08 109.69 4.48 110.96 4.79 111.91C5.1 112.86 5.61 114.36 5.93 115.24C6.25 116.12 6.72 117.36 6.96 118C7.21 118.63 7.83 120.1 8.33 121.26C8.84 122.43 9.87 124.62 10.63 126.14C11.39 127.65 12.35 129.47 12.76 130.17C13.16 130.88 13.82 132 14.21 132.67C14.6 133.34 15.71 135.07 16.68 136.52C17.64 137.96 19.08 140.01 19.87 141.07C20.67 142.13 21.84 143.63 22.48 144.4C23.12 145.18 24.25 146.5 24.99 147.35C25.73 148.2 27.58 150.13 29.1 151.66C30.62 153.18 32.64 155.11 33.59 155.95C34.54 156.79 36.04 158.06 36.92 158.77C37.8 159.48 39.3 160.64 40.26 161.35C41.21 162.06 42.62 163.07 43.4 163.6C44.17 164.13 45.59 165.05 46.54 165.64C47.49 166.23 49.11 167.2 50.13 167.8C51.15 168.39 53.34 169.55 55 170.37C56.66 171.2 58.85 172.23 59.87 172.67C60.89 173.11 62.16 173.64 62.69 173.85C63.22 174.06 64.69 174.61 65.96 175.06C67.23 175.51 69.22 176.17 70.38 176.53C71.55 176.88 73.51 177.42 74.74 177.73C75.98 178.04 77.39 178.39 77.88 178.5C78.38 178.61 79.68 178.88 80.77 179.09C81.86 179.3 83.94 179.64 85.38 179.84C86.83 180.04 88.99 180.3 90.19 180.41C91.39 180.53 93.29 180.68 94.42 180.74C95.55 180.81 97.28 180.91 98.27 180.95C99.26 181 101.33 180.97 102.88 180.89C104.44 180.8 106.48 180.68 107.44 180.61C108.39 180.54 109.71 180.42 110.38 180.35C111.05 180.27 112.32 180.13 113.21 180.02C114.09 179.92 115.85 179.66 117.12 179.45C118.38 179.24 120.35 178.86 121.47 178.61C122.6 178.37 124.3 177.96 125.26 177.71C126.21 177.46 127.77 177.04 128.72 176.76C129.67 176.49 131.2 176.01 132.12 175.7C133.03 175.38 134.36 174.92 135.06 174.66C135.77 174.4 137.07 173.89 137.95 173.54C138.83 173.18 140.39 172.51 141.41 172.06C142.43 171.6 144.02 170.85 144.94 170.39C145.85 169.93 147.55 169.03 148.72 168.38C149.88 167.73 151.53 166.77 152.37 166.26C153.22 165.74 154.69 164.8 155.64 164.16C156.59 163.52 158.12 162.45 159.04 161.78C159.96 161.12 161.25 160.14 161.92 159.61C162.59 159.08 163.66 158.21 164.29 157.68C164.93 157.15 165.97 156.26 166.6 155.69C167.24 155.12 167.79 154.63 167.82 154.59C167.86 154.56 168.49 153.95 169.22 153.25C169.95 152.54 171.24 151.24 172.1 150.36C172.95 149.48 173.89 148.5 174.17 148.18C174.46 147.87 175.26 146.94 175.97 146.13C176.67 145.32 177.94 143.76 178.79 142.67C179.64 141.58 180.77 140.08 181.3 139.34C181.83 138.6 182.67 137.39 183.16 136.65C183.66 135.91 184.46 134.67 184.94 133.89C185.42 133.12 186.24 131.73 186.77 130.81C187.3 129.9 188.32 127.99 189.04 126.58C189.76 125.17 190.78 123.04 191.31 121.84C191.84 120.64 192.6 118.85 192.98 117.87C193.37 116.88 194.05 115.03 194.48 113.77C194.91 112.5 195.52 110.59 195.83 109.54C196.14 108.48 196.57 106.92 196.78 106.07C197 105.23 197.37 103.64 197.61 102.55C197.85 101.46 198.23 99.52 198.44 98.26C198.66 96.99 198.95 95.02 199.09 93.9C199.23 92.77 199.41 91.15 199.49 90.31C199.56 89.46 199.68 87.93 199.75 86.91C199.83 85.89 199.92 82.4 199.95 79.16C199.99 75.91 199.97 73.2 199.91 73.12C199.85 73.05 199.35 72.64 198.78 72.22C198.22 71.79 196.72 70.69 195.45 69.78C194.18 68.86 191.89 67.19 190.37 66.07C188.84 64.95 186.79 63.45 185.81 62.74C184.84 62.02 182.71 60.47 181.09 59.29C179.47 58.1 177.74 56.83 177.24 56.47C176.75 56.1 173.9 54.02 170.92 51.84C167.94 49.66 164.45 47.11 163.16 46.18C161.88 45.24 160.46 44.2 160 43.87C159.54 43.54 158.3 42.63 157.24 41.85C156.19 41.07 154.95 40.16 154.49 39.83C154.03 39.5 153.19 38.9 152.63 38.48C152.06 38.07 150.1 36.64 148.27 35.3C146.44 33.96 143.41 31.75 141.54 30.38C139.67 29.01 136.81 26.92 135.19 25.74C133.57 24.55 131.38 22.95 130.32 22.18C129.26 21.41 127.35 20.01 126.07 19.07C124.79 18.14 122.6 16.54 121.2 15.52C119.8 14.5 118.02 13.2 117.24 12.62C116.47 12.04 113.24 9.68 110.06 7.37C106.89 5.06 103.95 2.92 103.53 2.61C103.1 2.29 102.14 1.58 101.38 1.02C100.62 0.46 99.95 0 99.9 0C99.84 0 99.71 0.08 99.61 0.18Z" />
		<path class="shp1" d="M99.23 3.76C98.91 4 97.44 5.08 95.96 6.16C94.48 7.24 92.55 8.64 91.68 9.28C90.8 9.92 89.65 10.77 89.11 11.16C88.58 11.56 87.48 12.36 86.67 12.95C85.86 13.54 84.75 14.34 84.21 14.73C83.68 15.13 81.46 16.75 79.28 18.34C77.1 19.93 73.71 22.42 71.73 23.86C69.76 25.3 66.73 27.52 65 28.78C63.27 30.04 60.55 32.03 58.95 33.2C57.36 34.36 54.73 36.28 53.12 37.46C51.51 38.64 49.5 40.11 48.65 40.73C47.81 41.35 45.54 43.01 43.61 44.42C41.68 45.83 39.05 47.75 37.77 48.68C36.5 49.62 35.13 50.62 34.74 50.9C34.36 51.17 33.74 51.62 33.37 51.88C33.01 52.15 31.38 53.35 29.74 54.54C28.11 55.74 26.65 56.81 26.5 56.91C26.34 57.02 25.83 57.39 25.36 57.75C24.89 58.1 23.94 58.79 23.26 59.29C22.58 59.78 21.66 60.44 21.23 60.76C20.8 61.08 18.72 62.6 16.6 64.15C14.49 65.7 12.18 67.39 11.47 67.9C10.77 68.41 8.81 69.84 7.12 71.08C5.42 72.31 3.73 73.57 3.34 73.87L2.65 74.41C2.77 84.55 2.86 88.12 2.94 88.9C3.01 89.67 3.16 91.12 3.27 92.1C3.38 93.09 3.62 94.85 3.8 96.01C3.97 97.18 4.29 98.99 4.51 100.05C4.72 101.11 5.09 102.81 5.34 103.83C5.58 104.85 6.07 106.7 6.42 107.93C6.77 109.17 7.3 110.87 7.58 111.71C7.87 112.56 8.44 114.15 8.84 115.24C9.25 116.33 9.94 118.06 10.38 119.09C10.82 120.11 11.72 122.07 12.39 123.44C13.06 124.82 13.98 126.64 14.45 127.48C14.91 128.33 15.75 129.8 16.32 130.75C16.88 131.7 18.01 133.49 18.84 134.72C19.66 135.96 20.71 137.48 21.16 138.11C21.62 138.74 22.82 140.3 23.83 141.57C24.85 142.85 26.35 144.64 27.16 145.56C27.98 146.47 29.54 148.14 30.64 149.25C31.73 150.37 33.6 152.16 34.79 153.23C35.98 154.3 37.77 155.83 38.77 156.63C39.76 157.44 41.24 158.58 42.05 159.19C42.86 159.79 44.39 160.87 45.45 161.59C46.51 162.31 47.98 163.27 48.72 163.72C49.46 164.18 50.84 165 51.79 165.55C52.75 166.1 54.71 167.14 56.15 167.87C57.6 168.59 59.36 169.44 60.06 169.76C60.77 170.07 61.89 170.56 62.56 170.85C63.23 171.13 64.42 171.6 65.19 171.9C65.97 172.19 67.35 172.69 68.27 173.01C69.19 173.33 70.86 173.86 71.99 174.21C73.12 174.55 74.85 175.03 75.83 175.28C76.82 175.52 78.29 175.87 79.1 176.05C79.91 176.23 81.36 176.52 82.31 176.7C83.26 176.87 84.85 177.13 85.83 177.27C86.82 177.42 88.12 177.59 88.72 177.66C89.32 177.73 90.9 177.88 92.24 177.99C93.58 178.1 96.29 178.22 98.27 178.27C100.45 178.31 102.92 178.28 104.55 178.19C106.03 178.11 108.4 177.92 109.81 177.78C111.22 177.64 113.35 177.38 114.55 177.2C115.75 177.03 117.74 176.68 118.97 176.43C120.21 176.18 122.14 175.75 123.27 175.48C124.4 175.2 126.13 174.73 127.12 174.45C128.1 174.16 129.89 173.59 131.09 173.19C132.29 172.78 133.85 172.23 134.55 171.96C135.26 171.7 136.84 171.05 138.08 170.53C139.31 170.01 141.53 168.98 143.01 168.25C144.49 167.51 146.8 166.29 148.14 165.52C149.48 164.75 151.41 163.58 152.44 162.92C153.46 162.26 154.99 161.23 155.83 160.64C156.68 160.04 157.53 159.44 157.72 159.29C157.91 159.14 158.59 158.61 159.24 158.12C159.88 157.63 161.14 156.62 162.03 155.89C162.92 155.15 164.46 153.82 165.45 152.92C166.44 152.02 168.12 150.4 169.18 149.32C170.25 148.23 171.69 146.71 172.39 145.94C173.08 145.16 174.09 144 174.62 143.37C175.15 142.74 176.18 141.45 176.92 140.5C177.66 139.55 178.46 138.51 178.69 138.19C178.92 137.87 179.93 136.37 180.94 134.85C181.96 133.34 183.28 131.26 183.88 130.24C184.47 129.22 185.4 127.57 185.93 126.58C186.46 125.6 187.25 124.04 187.69 123.12C188.13 122.21 188.91 120.48 189.43 119.28C189.94 118.08 190.71 116.18 191.13 115.05C191.55 113.92 192.15 112.19 192.47 111.2C192.79 110.22 193.23 108.8 193.44 108.06C193.66 107.32 194.09 105.68 194.41 104.41C194.73 103.14 195.19 101.09 195.43 99.86C195.68 98.62 196 96.81 196.14 95.82C196.28 94.83 196.52 92.99 196.66 91.72C196.8 90.45 196.98 88.4 197.07 87.17C197.16 85.93 197.23 82.57 197.24 79.7L197.24 74.48C196.75 74 195.56 73.1 194.29 72.17C193.03 71.25 191.67 70.26 191.28 69.98C190.89 69.71 190.28 69.26 189.91 69C189.55 68.73 187.16 66.99 184.61 65.12C182.06 63.25 178.49 60.64 176.69 59.32C174.88 57.99 173.02 56.64 172.56 56.31C172.11 55.98 171.21 55.33 170.58 54.86C169.94 54.4 166.71 52.03 163.4 49.61C160.08 47.19 156.89 44.85 156.3 44.43C155.71 44 154.56 43.15 153.74 42.55C152.92 41.95 150.63 40.27 148.66 38.83C146.69 37.39 143.33 34.94 141.21 33.39C139.08 31.84 136.08 29.65 134.54 28.53C132.99 27.4 131.47 26.29 131.15 26.05C130.84 25.81 130.49 25.55 130.38 25.47C130.28 25.38 129.9 25.11 129.55 24.87C129.2 24.63 128.25 23.93 127.44 23.33C126.62 22.72 125.27 21.73 124.42 21.12C123.58 20.51 122.13 19.45 121.22 18.78C120.3 18.11 118.92 17.1 118.14 16.54C117.37 15.97 116.18 15.11 115.51 14.62C114.84 14.12 113.34 13.03 112.18 12.18C111.02 11.34 108.68 9.64 106.99 8.4C105.29 7.16 103.07 5.53 102.05 4.78C101.03 4.03 100.11 3.4 100 3.38C99.89 3.35 99.55 3.53 99.23 3.76Z" />
		<path class="shp2" d="M98.85 9.5C98.39 9.85 97.49 10.51 96.86 10.96C96.22 11.42 94.29 12.83 92.56 14.1C90.84 15.37 88.42 17.15 87.19 18.04C85.96 18.94 84.71 19.85 84.41 20.06C84.11 20.27 83.5 20.72 83.06 21.06C82.61 21.4 79.88 23.4 76.99 25.52C74.1 27.63 71.04 29.86 70.19 30.49C69.35 31.11 66.89 32.91 64.74 34.48C62.59 36.05 60.08 37.89 59.17 38.56C58.25 39.23 56.92 40.2 56.22 40.72C55.51 41.24 54.13 42.26 53.14 42.98C52.15 43.71 50.39 44.99 49.23 45.84C48.07 46.69 45.79 48.36 44.17 49.55C42.54 50.73 40.58 52.17 39.81 52.75C39.03 53.32 38 54.07 37.51 54.42C37.03 54.77 36.47 55.2 36.27 55.38L35.91 55.7C35.84 81.44 35.87 85.05 36 86.4C36.1 87.35 36.29 88.96 36.43 89.99C36.57 91.01 36.83 92.6 37 93.51C37.18 94.43 37.47 95.76 37.64 96.46C37.82 97.17 38.22 98.61 38.54 99.67C38.86 100.72 39.41 102.37 39.77 103.32C40.12 104.27 40.67 105.65 40.99 106.4C41.31 107.14 42 108.61 42.53 109.66C43.06 110.72 43.84 112.19 44.26 112.93C44.69 113.67 45.12 114.39 45.21 114.54C45.3 114.68 46.02 115.74 46.79 116.91C47.56 118.07 48.76 119.72 49.45 120.58C50.14 121.44 51.11 122.62 51.62 123.21C52.12 123.8 53.39 125.14 54.44 126.2C55.49 127.26 57.1 128.76 58 129.53C58.9 130.31 60.31 131.46 61.13 132.08C61.96 132.71 63.44 133.75 64.42 134.41C65.41 135.06 66.82 135.95 67.56 136.39C68.3 136.83 70.12 137.78 71.6 138.5C73.08 139.23 75.02 140.11 75.9 140.47C76.78 140.82 78.45 141.43 79.62 141.82C80.78 142.21 82.88 142.83 84.29 143.18C85.71 143.54 87.84 144 89.04 144.21C90.24 144.41 92.08 144.68 93.14 144.8C94.64 144.98 96.09 145.03 99.74 145.04C102.77 145.04 104.99 144.98 106.03 144.87C106.91 144.78 108.58 144.56 109.74 144.39C110.91 144.21 112.72 143.87 113.78 143.63C114.84 143.39 116.51 142.97 117.5 142.69C118.49 142.41 120.16 141.88 121.22 141.51C122.28 141.14 123.95 140.5 124.94 140.08C125.92 139.66 127.42 138.98 128.27 138.56C129.12 138.15 130.24 137.57 130.77 137.28C131.3 136.99 132.28 136.43 132.95 136.04C133.62 135.64 134.74 134.93 135.45 134.46C136.15 133.98 137.08 133.35 137.5 133.05C137.92 132.75 138.62 132.24 139.04 131.92C139.46 131.59 140.5 130.76 141.35 130.06C142.19 129.36 143.95 127.72 145.26 126.41C146.56 125.09 148.24 123.3 148.99 122.42C149.73 121.54 150.77 120.24 151.3 119.53C151.84 118.83 152.65 117.7 153.1 117.03C153.56 116.36 154.25 115.3 154.64 114.66C155.03 114.03 155.58 113.11 155.87 112.61C156.15 112.12 156.87 110.73 157.47 109.54C158.07 108.34 158.94 106.43 159.4 105.31C159.86 104.18 160.47 102.56 160.75 101.72C161.03 100.87 161.49 99.37 161.77 98.38C162.05 97.4 162.43 95.93 162.61 95.11C162.79 94.3 163.06 92.92 163.21 92.04C163.36 91.16 163.6 89.48 163.75 88.32C164 86.3 164.02 85.53 164.07 71.27C164.09 63.06 164.09 56.17 164.05 55.95C163.99 55.64 163.65 55.33 162.21 54.27C161.24 53.55 159.32 52.14 157.93 51.12C156.55 50.11 153.95 48.22 152.16 46.92C150.38 45.61 148.41 44.17 147.79 43.71C147.18 43.25 146.32 42.62 145.88 42.3C145.45 41.98 144.85 41.55 144.55 41.34C144.25 41.13 143.03 40.24 141.84 39.36C140.65 38.48 139.47 37.62 139.21 37.44C138.96 37.26 137.57 36.25 136.14 35.2C134.7 34.14 132.6 32.6 131.47 31.77C130.35 30.94 128.36 29.48 127.05 28.53C125.75 27.58 124.26 26.5 123.75 26.12C123.24 25.75 122.66 25.33 122.47 25.19C122.28 25.05 121.09 24.17 119.81 23.24C118.54 22.31 116.63 20.91 115.58 20.13C114.52 19.36 112.07 17.56 110.13 16.15C108.19 14.73 106.34 13.38 106.03 13.15C105.71 12.92 104.55 12.06 103.46 11.26C102.37 10.45 101.16 9.57 100.77 9.31C100.38 9.05 99.98 8.84 99.87 8.85C99.77 8.86 99.3 9.15 98.85 9.5Z" />
		<path class="shp1" d="M99.66 13.25C99.52 13.33 98.86 13.8 98.2 14.3C97.53 14.8 95.46 16.33 93.6 17.7C91.73 19.07 90.08 20.28 89.92 20.38C89.76 20.49 87.77 21.95 85.49 23.62C83.21 25.3 81.12 26.84 80.83 27.06C80.55 27.27 79.51 28.03 78.53 28.76C77.54 29.48 75.95 30.64 75 31.34C74.05 32.03 72.87 32.9 72.37 33.26C71.88 33.63 70.89 34.35 70.17 34.88C69.46 35.4 67.96 36.49 66.86 37.3C65.75 38.11 63.94 39.44 62.84 40.26C61.74 41.07 60.59 41.9 60.29 42.11C60 42.32 59.72 42.57 59.68 42.65C59.65 42.74 59.77 43.01 59.97 43.24C60.16 43.48 60.93 44.36 61.68 45.2C62.43 46.04 63.41 47.19 63.87 47.75C64.32 48.31 65.09 49.32 65.59 49.99C66.08 50.66 66.89 51.82 67.39 52.56C67.89 53.3 68.8 54.77 69.42 55.83C70.04 56.88 71.03 58.7 71.61 59.86C72.19 61.03 72.82 62.32 73.01 62.75C73.2 63.17 73.64 64.22 73.98 65.09C74.33 65.95 74.62 66.74 74.62 66.85C74.62 66.97 74.44 67.07 74.13 67.12C73.87 67.16 73.16 67.3 72.56 67.43C71.96 67.55 71.41 67.62 71.33 67.57C71.24 67.53 70.94 66.88 70.64 66.14C70.35 65.4 69.79 64.11 69.4 63.26C69.02 62.41 68.26 60.91 67.73 59.93C67.19 58.94 66.29 57.38 65.73 56.47C65.16 55.55 64.44 54.42 64.12 53.97C63.8 53.51 63.25 52.73 62.9 52.24C62.54 51.74 61.77 50.73 61.17 49.99C60.58 49.25 59.35 47.82 58.44 46.82C57.54 45.82 56.71 44.99 56.6 44.99C56.5 44.99 56.22 45.12 55.99 45.28C55.76 45.44 54.51 46.35 53.22 47.3C51.92 48.25 49.99 49.66 48.92 50.43C47.86 51.2 45.3 53.06 43.24 54.56C40.6 56.49 39.47 57.38 39.43 57.59C39.4 57.75 39.34 62.89 39.3 69.03C39.27 75.16 39.26 80.31 39.3 80.47L39.36 80.76L160.58 80.69C160.63 63.01 160.62 57.76 160.59 57.62C160.55 57.47 159.58 56.67 158.24 55.71C156.99 54.79 155.41 53.64 154.74 53.15C154.07 52.66 153.01 51.87 152.37 51.4C151.74 50.93 150.71 50.18 150.08 49.73C149.46 49.27 148.51 48.58 147.97 48.19C147.43 47.8 146.21 46.92 145.26 46.23C144.3 45.55 143.47 44.99 143.4 44.98C143.33 44.98 142.72 45.55 142.05 46.25C141.38 46.94 140.28 48.17 139.6 48.98C138.93 49.78 137.88 51.1 137.28 51.92C136.68 52.73 135.76 54.05 135.23 54.86C134.7 55.67 133.99 56.8 133.65 57.36C133.31 57.93 132.62 59.17 132.12 60.12C131.61 61.07 130.96 62.37 130.67 63C130.38 63.64 129.82 64.91 129.44 65.82C128.95 66.98 128.66 67.5 128.5 67.54C128.37 67.56 127.92 67.51 127.5 67.43C127.08 67.35 126.43 67.23 126.06 67.16C125.51 67.06 125.38 66.99 125.38 66.79C125.38 66.64 125.71 65.71 126.12 64.7C126.52 63.7 127.42 61.72 128.12 60.31C128.81 58.9 129.88 56.91 130.48 55.89C131.08 54.87 132.04 53.34 132.6 52.49C133.17 51.65 133.95 50.52 134.34 49.99C134.73 49.46 135.66 48.29 136.41 47.39C137.15 46.48 137.93 45.53 138.15 45.27C138.36 45.01 138.9 44.43 139.34 43.97C139.78 43.51 140.2 43.05 140.26 42.94C140.34 42.81 140.29 42.67 140.09 42.48C139.94 42.34 138.08 40.95 135.96 39.41C133.85 37.86 131.62 36.24 131.03 35.81C130.43 35.37 129.79 34.9 129.62 34.77C129.44 34.64 127.65 33.33 125.64 31.86C123.63 30.39 121.58 28.89 121.09 28.52C120.6 28.16 119.53 27.38 118.72 26.79C117.91 26.2 116.61 25.25 115.83 24.68C115.06 24.1 112.94 22.54 111.12 21.21C109.31 19.87 107.54 18.58 107.19 18.33C106.85 18.08 105.59 17.18 104.4 16.32C103.22 15.46 102.07 14.62 101.86 14.45C101.65 14.28 101.19 13.94 100.83 13.7C100.48 13.45 100.13 13.22 100.05 13.18C99.97 13.13 99.8 13.16 99.66 13.25Z" />
		<path class="shp3" d="M99.82 27.94C99.78 28.47 99.65 30.26 99.55 31.92C99.45 33.58 99.13 38.77 98.85 43.46C98.56 48.14 98.3 52.22 98.27 52.52C98.21 53.06 98.2 53.07 97.72 53.07C97.46 53.07 97.14 53.14 97.02 53.23C96.82 53.37 96.79 53.57 96.82 54.8L96.86 56.21L103.08 56.27C103.08 53.24 103.07 53.2 102.79 53.14C102.63 53.1 102.33 53.06 102.12 53.04L101.73 53.01C101.4 48.04 101.27 46.05 101.23 45.38C101.19 44.71 101.01 42 100.84 39.35C100.67 36.71 100.43 32.99 100.31 31.09C100.2 29.18 100.06 27.48 100.01 27.3C99.93 27.06 99.89 27.22 99.82 27.94Z" />
		<path class="shp2" d="M30.81 59.26C30.66 59.34 29.74 60 28.76 60.71C27.79 61.42 25.95 62.76 24.68 63.69C23.41 64.61 22.17 65.52 21.92 65.7C21.68 65.89 19.06 67.81 16.11 69.97C13.16 72.13 10.07 74.38 9.25 74.96C8.43 75.55 7.6 76.18 7.4 76.37L7.05 76.72C7.05 83.08 7.11 85.76 7.18 86.78C7.25 87.8 7.4 89.51 7.51 90.56C7.61 91.62 7.81 93.29 7.96 94.28C8.1 95.27 8.41 97.14 8.66 98.45C8.91 99.75 9.32 101.66 9.56 102.68C9.81 103.7 10.24 105.34 10.53 106.33C10.81 107.32 11.31 108.93 11.63 109.92C11.95 110.91 12.59 112.7 13.05 113.89C13.51 115.09 14.14 116.68 14.45 117.42C14.77 118.16 15.57 119.89 16.24 121.26C16.91 122.64 17.83 124.46 18.3 125.3C18.76 126.15 19.59 127.59 20.14 128.51C20.68 129.42 21.79 131.15 22.59 132.35C23.4 133.55 24.46 135.08 24.96 135.75C25.46 136.42 26.2 137.4 26.6 137.93C27.01 138.46 27.61 139.21 27.93 139.6C28.26 139.98 28.87 140.7 29.29 141.2C29.72 141.69 30.67 142.76 31.41 143.57C32.15 144.37 33.28 145.56 33.91 146.2C34.54 146.84 35.9 148.14 36.92 149.09C37.95 150.04 39.33 151.28 40 151.84C40.67 152.4 41.54 153.12 41.92 153.44C42.31 153.76 43.41 154.61 44.36 155.31C45.31 156.02 46.81 157.09 47.69 157.69C48.57 158.3 50.13 159.31 51.15 159.94C52.18 160.57 53.82 161.54 54.81 162.09C55.79 162.64 57.73 163.65 59.1 164.33C60.48 165.01 62.47 165.93 63.53 166.38C64.58 166.83 66.4 167.56 67.56 167.99C68.73 168.43 70.31 168.99 71.09 169.24C71.87 169.49 73.22 169.91 74.1 170.17C74.98 170.43 76.83 170.91 78.21 171.25C79.58 171.59 81.86 172.08 83.27 172.33C84.68 172.58 86.7 172.91 87.76 173.05C88.81 173.19 90.6 173.4 91.73 173.51C92.9 173.62 95.8 173.74 98.46 173.78C101.42 173.83 104.04 173.8 105.58 173.7C106.92 173.62 109.05 173.44 110.32 173.3C111.59 173.16 113.41 172.92 114.36 172.78C115.31 172.64 116.96 172.35 118.01 172.14C119.07 171.93 120.77 171.56 121.79 171.31C122.82 171.07 124.37 170.66 125.26 170.41C126.14 170.16 127.75 169.66 128.85 169.31C129.94 168.95 131.66 168.35 132.66 167.97C133.67 167.59 135.31 166.93 136.31 166.5C137.32 166.07 139.24 165.18 140.58 164.53C141.92 163.87 143.88 162.84 144.94 162.25C145.99 161.66 147.58 160.72 148.46 160.17C149.34 159.62 150.93 158.59 151.99 157.87C153.04 157.14 154.54 156.07 155.32 155.49C156.1 154.9 156.97 154.21 157.26 153.96C157.55 153.71 158.04 153.32 158.35 153.09C158.66 152.87 159.09 152.52 159.3 152.32C159.51 152.13 159.86 151.83 160.07 151.67C160.28 151.5 161 150.87 161.67 150.27C162.34 149.66 164.13 147.92 165.64 146.4C167.16 144.88 168.98 142.97 169.68 142.16C170.39 141.35 171.46 140.08 172.06 139.34C172.66 138.6 173.74 137.21 174.44 136.26C175.15 135.31 176.37 133.58 177.14 132.42C177.91 131.25 179.1 129.36 179.79 128.22C180.47 127.07 181.63 124.97 182.36 123.54C183.1 122.11 184.16 119.91 184.72 118.64C185.28 117.37 186.17 115.18 186.7 113.77C187.23 112.36 187.92 110.37 188.24 109.34C188.56 108.32 188.97 106.97 189.15 106.33C189.33 105.7 189.67 104.37 189.92 103.38C190.17 102.4 190.54 100.69 190.76 99.6C190.98 98.51 191.3 96.69 191.47 95.56C191.65 94.44 191.88 92.73 191.99 91.78C192.09 90.83 192.24 89.42 192.32 88.64C192.39 87.87 192.49 84.98 192.53 82.23L192.61 77.23C189.15 74.63 186.79 72.88 185.13 71.66C183.47 70.43 181.45 68.94 180.64 68.34C179.83 67.74 178.16 66.5 176.92 65.59C175.69 64.67 174.04 63.45 173.27 62.88C172.49 62.3 171.18 61.33 170.35 60.72C169.52 60.11 168.76 59.61 168.65 59.61C168.49 59.61 168.46 59.92 168.46 61.63L168.46 63.64C169.8 64.66 170.86 65.44 171.67 66.04C172.48 66.64 174.53 68.15 176.22 69.4C177.91 70.65 180 72.2 180.87 72.85C181.73 73.5 182.95 74.4 183.59 74.86C184.22 75.32 185.7 76.42 186.89 77.3L189.04 78.91C189.1 82.48 189.05 84.58 188.98 85.89C188.9 87.19 188.75 89.15 188.65 90.24C188.54 91.34 188.34 93.04 188.2 94.03C188.06 95.01 187.79 96.6 187.61 97.55C187.43 98.5 187.06 100.26 186.78 101.46C186.5 102.66 186.05 104.45 185.77 105.43C185.5 106.42 184.94 108.21 184.54 109.41C184.15 110.61 183.46 112.51 183.02 113.64C182.57 114.77 181.83 116.55 181.35 117.61C180.88 118.67 179.93 120.63 179.24 121.97C178.55 123.31 177.51 125.21 176.93 126.2C176.34 127.19 175.22 128.98 174.43 130.17C173.64 131.37 172.37 133.19 171.6 134.21C170.84 135.23 169.77 136.62 169.23 137.29C168.69 137.96 167.48 139.37 166.54 140.43C165.6 141.49 164.02 143.16 163.02 144.15C162.02 145.13 160.61 146.49 159.88 147.16C159.15 147.83 158.38 148.52 158.17 148.7C157.96 148.87 157.17 149.53 156.42 150.15C155.68 150.78 154.08 152.02 152.88 152.92C151.69 153.82 149.87 155.1 148.85 155.78C147.82 156.45 146.55 157.27 146.03 157.59C145.5 157.9 144.26 158.62 143.27 159.18C142.28 159.73 140.84 160.51 140.06 160.9C139.29 161.3 137.87 161.98 136.92 162.41C135.97 162.85 134.18 163.61 132.95 164.1C131.71 164.6 129.52 165.4 128.08 165.88C126.63 166.36 124.47 167.02 123.27 167.34C122.07 167.66 120.17 168.12 119.04 168.36C117.91 168.61 116.32 168.93 115.51 169.07C114.7 169.21 113.17 169.44 112.12 169.58C111.06 169.72 109.15 169.94 107.88 170.06C106.09 170.24 104.37 170.29 100.13 170.29C95.89 170.29 94.17 170.24 92.37 170.06C91.1 169.94 89 169.69 87.69 169.52C86.39 169.34 84.17 168.97 82.76 168.69C81.35 168.41 79.1 167.89 77.76 167.55C76.42 167.2 74.57 166.68 73.65 166.4C72.74 166.12 70.89 165.49 69.55 165C68.21 164.51 66.34 163.78 65.38 163.38C64.43 162.97 62.96 162.32 62.12 161.92C61.27 161.52 59.62 160.7 58.46 160.09C57.3 159.48 55.45 158.45 54.36 157.8C53.27 157.15 51.71 156.17 50.9 155.64C50.09 155.1 48.67 154.12 47.76 153.46C46.84 152.79 45.46 151.75 44.68 151.15C43.9 150.54 42.84 149.68 42.31 149.23C41.78 148.78 40.91 148.03 40.38 147.56C39.86 147.09 38.74 146.05 37.9 145.24C37.06 144.43 35.48 142.81 34.37 141.64C33.27 140.48 31.68 138.66 30.83 137.6C29.98 136.55 28.85 135.11 28.32 134.4C27.79 133.7 26.89 132.46 26.32 131.65C25.76 130.84 24.81 129.4 24.2 128.44C23.6 127.49 22.8 126.16 22.41 125.5C22.03 124.83 21.43 123.76 21.09 123.12C20.75 122.49 20.15 121.34 19.77 120.56C19.38 119.78 18.73 118.4 18.31 117.48C17.89 116.57 17.18 114.89 16.73 113.77C16.28 112.64 15.51 110.5 15.02 109.02C14.52 107.54 13.89 105.47 13.61 104.41C13.33 103.35 12.9 101.59 12.64 100.5C12.39 99.41 12.05 97.7 11.87 96.72C11.7 95.73 11.44 94.03 11.29 92.94C11.15 91.84 10.94 89.94 10.83 88.71C10.72 87.47 10.59 84.65 10.55 82.42L10.48 78.39C14.83 75.22 16.46 74.03 16.92 73.69C17.38 73.36 19.23 72.01 21.03 70.7C22.82 69.39 24.53 68.15 24.81 67.93C25.09 67.71 26.65 66.57 28.27 65.39L31.22 63.24C31.27 60.03 31.24 59.1 31.19 59.1C31.13 59.1 30.96 59.17 30.81 59.26Z" />
		<path class="shp3" d="M94.68 60C93.83 60.06 92.39 60.2 91.47 60.31C90.56 60.42 89.35 60.6 88.78 60.71C88.22 60.82 87.38 61.02 86.92 61.16C86.46 61.3 85.97 61.52 85.83 61.64C85.68 61.75 85.46 62.01 85.34 62.2C85.23 62.4 85.16 62.64 85.19 62.75C85.23 62.85 85.56 63.11 85.93 63.32C86.3 63.53 86.92 63.95 87.31 64.26C87.7 64.57 88.17 65.04 88.37 65.32C88.56 65.6 88.75 66.03 88.8 66.27C88.87 66.66 88.82 66.79 88.43 67.23C88.17 67.53 87.67 67.89 87.23 68.09C86.81 68.28 85.98 68.58 85.38 68.75C84.79 68.92 82.94 69.33 81.28 69.65C79.63 69.97 76.74 70.53 74.87 70.89C73 71.25 70.67 71.74 69.68 71.98C68.69 72.22 67.28 72.62 66.54 72.86C65.8 73.1 64.73 73.48 64.17 73.71C63.6 73.93 62.92 74.23 62.66 74.36C62.4 74.5 62.18 74.66 62.18 74.73C62.18 74.82 74.87 74.86 100 74.86C125.13 74.86 137.82 74.82 137.82 74.73C137.82 74.66 137.37 74.4 136.83 74.14C136.28 73.89 135.08 73.43 134.17 73.11C133.25 72.8 131.58 72.31 130.45 72.03C129.32 71.75 127.07 71.27 125.45 70.95C123.83 70.64 121 70.1 119.17 69.74C117.33 69.39 115.31 68.95 114.68 68.77C114.04 68.59 113.21 68.29 112.82 68.12C112.43 67.94 111.93 67.65 111.7 67.48C111.41 67.26 111.26 67.03 111.2 66.69C111.14 66.32 111.19 66.08 111.42 65.64C111.59 65.33 112.02 64.82 112.37 64.51C112.72 64.2 113.43 63.69 113.94 63.38C114.45 63.07 114.87 62.74 114.87 62.65C114.87 62.56 114.72 62.3 114.55 62.07C114.37 61.85 114.01 61.55 113.75 61.41C113.49 61.28 112.81 61.05 112.24 60.91C111.68 60.76 110.41 60.53 109.42 60.39C108.44 60.25 106.68 60.07 105.51 60C104.35 59.92 101.78 59.87 99.81 59.88C97.83 59.89 95.53 59.95 94.68 60ZM168.35 83.85C168.34 83.88 168.25 84.59 168.14 85.44C167.99 86.65 167.99 87.01 168.11 87.12C168.2 87.2 169.63 88.13 171.28 89.18C172.94 90.23 174.5 91.21 174.74 91.36C174.99 91.5 175.24 91.73 175.29 91.86C175.34 91.99 175.37 92.11 175.35 92.12C175.34 92.12 173.85 92.58 172.05 93.12C170.25 93.67 168.39 94.24 167.91 94.39C167.36 94.57 167.05 94.73 167.05 94.86C167.04 94.96 166.96 95.69 166.87 96.46C166.77 97.24 166.7 97.88 166.71 97.89C166.72 97.9 169.67 98.32 173.27 98.82C176.87 99.32 180.24 99.8 180.77 99.87C181.37 99.95 181.75 99.96 181.79 99.88C181.83 99.81 181.93 99.1 182.02 98.3C182.11 97.5 182.15 96.82 182.1 96.78C182.06 96.75 180.58 96.52 178.81 96.27C177.04 96.02 175.58 95.76 175.55 95.69C175.53 95.62 176.65 95.22 178.04 94.79L180.58 94.02L180.83 91.35C179.54 90.53 178.49 89.86 177.67 89.34C176.85 88.81 176.19 88.36 176.22 88.32C176.24 88.29 177.78 88.47 179.64 88.73C181.49 88.98 183.03 89.19 183.04 89.17C183.06 89.16 183.16 88.43 183.26 87.55C183.37 86.67 183.44 85.94 183.42 85.93C183.41 85.92 180.25 85.47 176.41 84.93C172.57 84.39 169.19 83.92 168.9 83.88C168.6 83.84 168.36 83.83 168.35 83.85ZM28.85 84.23C27.54 84.36 26.36 84.56 26.03 84.69C25.71 84.81 25.28 85.06 25.08 85.24C24.88 85.42 24.57 85.8 24.41 86.08C24.25 86.36 23.99 86.94 23.85 87.36C23.7 87.78 23.44 88.76 23.27 89.54C23.09 90.31 22.86 91.19 22.76 91.49C22.65 91.79 22.45 92.1 22.31 92.17C22.17 92.24 21.58 92.33 20.99 92.38L19.94 92.46C19.59 89.3 19.42 87.67 19.33 86.8L19.17 85.21C17.68 85.35 16.94 85.42 16.57 85.47C16.01 85.55 15.9 85.61 15.9 85.82C15.91 85.96 16.12 88.31 16.38 91.03C16.65 93.76 16.89 96.02 16.92 96.07C16.96 96.11 18.4 96.01 20.13 95.84C22.84 95.57 23.36 95.49 23.91 95.21C24.26 95.04 24.72 94.67 24.93 94.39C25.14 94.12 25.47 93.55 25.66 93.13C25.85 92.7 26.19 91.52 26.42 90.5C26.64 89.48 26.91 88.48 27 88.29C27.1 88.09 27.29 87.88 27.44 87.81C27.58 87.74 27.91 87.68 28.17 87.68C28.59 87.67 28.66 87.72 28.74 88.03C28.78 88.22 28.96 89.84 29.12 91.62L29.42 94.86C30.02 94.86 30.71 94.8 31.35 94.73C31.98 94.66 32.56 94.58 32.63 94.55C32.71 94.52 32.57 92.6 32.24 89.27L31.72 84.03C31.23 84 30.08 84.1 28.85 84.23Z" />
		<path class="shp1" d="M39.53 84.83C39.48 84.95 39.48 85.6 39.52 86.27C39.57 86.94 39.66 87.92 39.74 88.45C39.82 88.98 39.97 89.96 40.08 90.63C40.19 91.3 40.45 92.68 40.65 93.7C40.86 94.73 41.2 96.17 41.42 96.91C41.63 97.65 42.07 99.05 42.38 100.02C42.69 100.99 43.3 102.66 43.72 103.74C44.15 104.81 44.98 106.67 45.58 107.87C46.18 109.07 47.02 110.65 47.45 111.39C47.89 112.13 48.56 113.25 48.96 113.87C49.36 114.49 50.34 115.88 51.14 116.95C51.94 118.02 52.88 119.24 53.23 119.66C53.59 120.09 54.52 121.14 55.3 122C56.09 122.87 56.79 123.57 56.86 123.57C56.93 123.57 57.4 123.16 57.9 122.64C58.4 122.13 59.35 121.08 60.02 120.3C60.68 119.53 61.72 118.23 62.32 117.42C62.93 116.61 63.87 115.28 64.4 114.47C64.94 113.66 65.43 112.94 65.48 112.87C65.54 112.8 66.13 111.79 66.79 110.63C67.45 109.46 68.48 107.5 69.07 106.27C69.67 105.03 70.35 103.5 70.6 102.87C70.85 102.24 71.17 101.4 71.31 101.01C71.45 100.62 71.69 99.97 71.84 99.56L72.12 98.82C75.47 98.83 75.64 98.85 75.64 99.06C75.64 99.18 75.57 99.51 75.49 99.79C75.41 100.08 75.12 100.94 74.84 101.72C74.56 102.49 74.13 103.62 73.88 104.22C73.63 104.82 73.11 106.03 72.72 106.91C72.33 107.79 71.73 109.02 71.39 109.63C71.05 110.25 70.77 110.78 70.77 110.82C70.77 110.85 70.47 111.42 70.11 112.07C69.74 112.72 69.22 113.58 68.95 113.99C68.68 114.4 68.46 114.76 68.46 114.79C68.46 114.83 67.96 115.59 67.36 116.49C66.75 117.39 65.69 118.87 65 119.79C64.31 120.71 63.3 121.98 62.75 122.61C62.21 123.25 61.31 124.25 60.75 124.85C60.19 125.45 59.74 126.04 59.74 126.17C59.74 126.29 60.31 126.87 60.99 127.45C61.68 128.04 62.88 128.98 63.65 129.55C64.43 130.11 65.35 130.78 65.71 131.03C66.06 131.28 66.98 131.87 67.76 132.36C68.53 132.84 69.74 133.56 70.45 133.95C71.15 134.34 72.42 135 73.27 135.42C74.12 135.83 74.98 136.25 75.19 136.35C75.4 136.46 76.5 136.9 77.63 137.35C78.76 137.79 80.6 138.45 81.73 138.8C82.86 139.16 84.47 139.62 85.32 139.83C86.17 140.03 87.32 140.3 87.88 140.42C88.45 140.55 88.95 140.6 89 140.54C89.05 140.48 88.98 139.28 88.84 137.87C88.7 136.46 88.44 134.15 88.26 132.74C88.08 131.33 87.76 128.96 87.55 127.48C87.34 126 86.91 123.29 86.6 121.46C86.29 119.62 85.68 116.31 85.25 114.09C84.82 111.87 84.25 109.01 83.97 107.74C83.7 106.47 83.15 104.02 82.76 102.29C82.36 100.57 82.01 99.05 81.98 98.93C81.93 98.72 82.07 98.7 83.72 98.7L85.51 98.7C85.71 99.45 86.11 101.25 86.53 103.19C86.95 105.13 87.7 108.79 88.19 111.33C88.69 113.87 89.36 117.47 89.68 119.34C89.99 121.21 90.48 124.24 90.76 126.07C91.04 127.9 91.42 130.53 91.6 131.9C91.78 133.28 92.07 135.85 92.24 137.61C92.42 139.37 92.56 140.86 92.56 140.91C92.56 140.96 92.69 141.07 92.85 141.15C93.01 141.23 94.01 141.38 95.06 141.47C96.12 141.56 98.05 141.64 99.36 141.64C100.66 141.64 102.68 141.59 103.85 141.52C105.01 141.45 106.19 141.33 106.47 141.26C106.76 141.19 107 141.12 107.02 141.1C107.04 141.08 107.08 140.81 107.11 140.49C107.14 140.18 107.28 138.79 107.43 137.42C107.58 136.04 107.82 133.99 107.96 132.87C108.1 131.74 108.41 129.49 108.66 127.87C108.9 126.24 109.42 123.1 109.8 120.88C110.19 118.66 110.77 115.57 111.08 114.02C111.39 112.47 111.79 110.54 111.97 109.73C112.14 108.92 112.49 107.3 112.75 106.14C113 104.98 113.48 102.85 113.82 101.42L114.42 98.81C117.21 98.8 118 98.85 117.99 98.91C117.98 98.97 117.68 100.29 117.31 101.84C116.95 103.4 116.34 106.05 115.96 107.74C115.59 109.43 114.89 112.75 114.43 115.11C113.96 117.47 113.32 120.91 113.01 122.74C112.7 124.57 112.18 127.89 111.87 130.11C111.55 132.33 111.18 135.19 111.03 136.46C110.89 137.72 110.74 139.18 110.71 139.69C110.64 140.59 110.65 140.62 110.93 140.62C111.09 140.62 112.08 140.42 113.14 140.18C114.2 139.93 115.41 139.64 115.83 139.52C116.26 139.4 117.21 139.11 117.95 138.88C118.69 138.65 119.93 138.23 120.71 137.95C121.48 137.67 122.49 137.29 122.95 137.1C123.41 136.91 124.07 136.63 124.42 136.48C124.78 136.33 126.02 135.73 127.18 135.15C128.34 134.57 129.96 133.69 130.77 133.21C131.58 132.72 132.6 132.1 133.03 131.83C133.46 131.55 134.23 131.04 134.74 130.69C135.26 130.33 136.26 129.59 136.97 129.03C137.69 128.47 138.72 127.64 139.27 127.17C139.82 126.71 140.26 126.26 140.26 126.17C140.26 126.08 139.59 125.27 138.77 124.37C137.95 123.47 136.84 122.2 136.3 121.54C135.76 120.87 134.77 119.57 134.1 118.65C133.43 117.73 132.57 116.48 132.19 115.88C131.81 115.28 131.31 114.5 131.09 114.15C130.86 113.8 130.51 113.22 130.31 112.87C130.1 112.52 129.87 112.12 129.78 111.97C129.7 111.83 129.02 110.47 128.27 108.96C127.52 107.44 126.85 106.1 126.79 105.98C126.72 105.86 126.55 105.45 126.4 105.08C126.25 104.71 125.96 103.98 125.75 103.45C125.54 102.92 125.11 101.74 124.79 100.82C124.48 99.9 124.25 99.08 124.29 98.99C124.34 98.87 124.81 98.84 126.12 98.86L127.87 98.9C128.15 99.69 128.55 100.76 128.94 101.78C129.34 102.8 130.08 104.56 130.61 105.69C131.13 106.82 132.11 108.72 132.77 109.92C133.44 111.12 134.11 112.3 134.26 112.55C134.41 112.79 134.94 113.6 135.43 114.34C135.92 115.08 136.73 116.24 137.23 116.91C137.73 117.58 138.56 118.64 139.08 119.28C139.6 119.91 140.67 121.14 141.46 122.01C142.24 122.87 142.94 123.58 143.01 123.58C143.08 123.58 143.49 123.21 143.92 122.77C144.35 122.33 145.13 121.48 145.66 120.88C146.19 120.28 147.05 119.24 147.58 118.57C148.11 117.9 148.77 117.04 149.06 116.65C149.34 116.26 149.98 115.34 150.47 114.6C150.96 113.86 151.55 112.96 151.77 112.61C151.99 112.26 152.54 111.31 152.99 110.5C153.44 109.69 154.12 108.42 154.49 107.68C154.86 106.94 155.48 105.58 155.86 104.66C156.25 103.75 156.99 101.7 157.52 100.11C158.04 98.53 158.53 96.97 158.61 96.65C158.68 96.34 158.76 95.96 158.79 95.82C158.82 95.68 158.9 95.39 158.97 95.18C159.04 94.97 159.22 94.22 159.36 93.51C159.5 92.81 159.68 91.88 159.74 91.46C159.81 91.04 159.9 90.46 159.94 90.18C159.98 89.9 160.06 89.38 160.12 89.03C160.19 88.67 160.28 87.81 160.33 87.1C160.38 86.4 160.43 85.56 160.44 85.24L160.45 84.67C42.57 84.6 39.61 84.61 39.53 84.83Z" />
		<path class="shp3" d="M68.01 90.99C67.24 91.54 66.04 92.37 65.35 92.85C64.67 93.32 64.12 93.73 64.13 93.77C64.15 93.8 80.26 93.83 99.93 93.83C119.6 93.83 135.72 93.8 135.76 93.77C135.8 93.73 135.72 93.62 135.58 93.52C135.44 93.41 134.51 92.77 133.53 92.1C132.54 91.42 131.44 90.66 131.09 90.42L130.45 89.98L69.42 90L68.01 90.99Z" />
		<path class="shp0" d="M102.06 98.7L98.68 98.77C97 102.84 96.34 104.43 96.13 104.92C95.92 105.41 95.7 105.96 95.64 106.14C95.58 106.32 95.32 106.95 95.07 107.55C94.81 108.15 94.46 109.01 94.28 109.47C94.1 109.93 93.99 110.38 94.03 110.47C94.08 110.58 94.61 110.63 96.03 110.63C97.74 110.63 97.96 110.65 98.03 110.85C98.08 110.97 97.79 112.52 97.39 114.28C97 116.04 96.44 118.52 96.14 119.79C95.85 121.06 95.53 122.44 95.44 122.87C95.34 123.29 95.27 123.75 95.26 123.89C95.26 124.12 95.28 124.13 95.42 123.94C95.51 123.83 95.68 123.6 95.8 123.43C95.92 123.26 96.61 122.24 97.34 121.16C98.06 120.08 98.71 119.11 98.78 118.99C98.85 118.88 99.66 117.66 100.58 116.28C101.5 114.9 102.35 113.62 102.48 113.45C102.6 113.27 103.68 111.65 104.87 109.86C106.06 108.06 107.01 106.54 106.98 106.49C106.95 106.44 106.03 106.4 104.94 106.4C103.74 106.4 102.92 106.34 102.88 106.27C102.85 106.2 103.06 105.61 103.34 104.95C103.63 104.3 104.15 103.1 104.51 102.29C104.86 101.48 105.32 100.44 105.53 99.99C105.75 99.53 105.9 99.04 105.88 98.9C105.85 98.76 105.74 98.64 105.64 98.64C105.53 98.63 103.93 98.66 102.06 98.7Z" />
		<path class="shp3" d="M81.97 98.93C82.01 99.05 82.36 100.57 82.76 102.29C83.15 104.02 83.7 106.47 83.97 107.74C84.25 109.01 84.82 111.87 85.25 114.09C85.68 116.31 86.29 119.62 86.6 121.46C86.91 123.29 87.34 126 87.55 127.48C87.76 128.96 88.08 131.33 88.26 132.74C88.44 134.15 88.7 136.46 88.84 137.87C88.97 139.28 89.08 140.48 89.06 140.55C89.05 140.61 89.36 140.74 89.74 140.83C90.13 140.92 90.93 141.04 91.51 141.1C92.41 141.18 92.57 141.17 92.57 141.01C92.57 140.9 92.42 139.37 92.24 137.61C92.07 135.85 91.78 133.28 91.6 131.9C91.42 130.53 91.04 127.9 90.76 126.07C90.48 124.24 89.99 121.21 89.68 119.34C89.36 117.47 88.69 113.87 88.19 111.33C87.7 108.79 86.95 105.13 86.53 103.19C86.11 101.25 85.71 99.45 85.64 99.18L85.51 98.7C82.04 98.7 81.9 98.72 81.97 98.93ZM114.41 98.9C114.39 98.97 114.02 100.52 113.6 102.36C113.17 104.19 112.71 106.24 112.57 106.91C112.43 107.58 112.17 108.82 111.98 109.66C111.8 110.51 111.39 112.47 111.08 114.02C110.77 115.57 110.19 118.66 109.8 120.88C109.42 123.1 108.9 126.24 108.66 127.87C108.41 129.49 108.1 131.74 107.96 132.87C107.82 133.99 107.58 136.04 107.43 137.42C107.29 138.79 107.14 140.19 107.11 140.52C107.08 140.86 107.11 141.16 107.18 141.2C107.25 141.23 107.75 141.2 108.3 141.13C108.85 141.06 109.6 140.93 109.97 140.84C110.34 140.76 110.65 140.66 110.65 140.62C110.65 140.59 110.68 140.15 110.71 139.66C110.74 139.17 110.89 137.72 111.03 136.46C111.18 135.19 111.55 132.33 111.87 130.11C112.18 127.89 112.7 124.57 113.01 122.74C113.32 120.91 113.96 117.47 114.43 115.11C114.89 112.75 115.59 109.43 115.96 107.74C116.34 106.05 116.95 103.4 117.31 101.84C117.68 100.29 117.98 98.97 117.99 98.91C118 98.85 117.21 98.79 116.23 98.79C115.15 98.77 114.44 98.82 114.41 98.9ZM32.04 101.08C31.24 101.39 28.76 102.31 26.54 103.14C24.32 103.96 22.3 104.74 22.05 104.86C21.8 104.99 21.36 105.34 21.06 105.65C20.77 105.95 20.4 106.49 20.25 106.84C20.06 107.28 19.97 107.75 19.97 108.32C19.96 109.05 20.1 109.52 21.14 112.36C21.79 114.12 22.36 115.64 22.41 115.73C22.48 115.87 22.81 115.8 23.97 115.36C24.79 115.06 25.48 114.8 25.51 114.77C25.55 114.75 25.22 113.79 24.79 112.65C24.35 111.5 23.84 110.13 23.65 109.6C23.33 108.72 23.31 108.6 23.48 108.22C23.58 107.97 23.82 107.72 24.04 107.61C24.25 107.52 24.68 107.34 25 107.23C25.32 107.12 25.63 107.03 25.71 107.03C25.78 107.04 26.12 107.84 26.47 108.83C26.83 109.82 27.17 110.62 27.24 110.62C27.31 110.62 28.01 110.39 28.78 110.09C29.56 109.8 30.2 109.56 30.22 109.55C30.24 109.54 29.96 108.74 29.61 107.77C29.26 106.8 28.97 105.95 28.97 105.88C28.97 105.81 29.45 105.58 30.03 105.36C30.61 105.15 31.21 104.94 31.35 104.9C31.52 104.86 31.64 104.91 31.71 105.07C31.76 105.2 32.34 106.71 32.99 108.42C34.14 111.49 34.17 111.54 34.49 111.46C34.66 111.41 35.34 111.16 36 110.9C36.65 110.64 37.19 110.39 37.18 110.34C37.18 110.28 36.37 108.06 35.38 105.4C34.39 102.74 33.56 100.56 33.54 100.55C33.52 100.54 32.85 100.78 32.04 101.08ZM163.91 106.22C163.57 106.92 162.58 108.97 161.69 110.8C160.81 112.62 160.09 114.14 160.1 114.19C160.11 114.24 161.98 115.14 164.26 116.19C166.54 117.24 169.78 118.73 171.47 119.5C173.17 120.26 174.56 120.88 174.57 120.85C174.58 120.83 174.89 120.18 175.24 119.41C175.6 118.63 175.88 117.99 175.87 117.98C175.85 117.97 174.92 117.53 173.81 117.01C172.7 116.5 171.79 116.03 171.79 115.98C171.79 115.92 172 115.48 172.24 114.98L172.69 114.09L177.74 114.15C178.9 111.77 179.2 111.05 179.16 111.01C179.12 110.97 177.8 110.93 176.24 110.91L173.4 110.86C172.99 109.73 172.71 109.33 172.2 108.84C171.56 108.23 171.1 107.98 168.14 106.62C166.31 105.78 164.74 105.06 164.66 105.03C164.57 104.98 164.27 105.45 163.91 106.22Z" />
		<path class="shp1" d="M166.03 109.5C165.93 109.58 165.86 109.7 165.88 109.75C165.9 109.8 165.6 110.5 165.2 111.29C164.81 112.09 164.5 112.75 164.52 112.76C164.54 112.77 165.45 113.19 166.54 113.69C167.63 114.19 168.55 114.6 168.59 114.6C168.63 114.6 168.96 113.98 169.33 113.22C169.81 112.25 169.99 111.75 169.94 111.52C169.9 111.35 169.77 111.11 169.65 110.99C169.52 110.88 168.72 110.46 167.85 110.06C166.99 109.67 166.26 109.34 166.24 109.34C166.22 109.34 166.12 109.41 166.03 109.5Z" />
		<path class="shp3" d="M39.36 116.75C38.97 117.02 36.38 118.82 33.59 120.76C30.8 122.69 28.22 124.47 27.86 124.72C27.49 124.97 27.2 125.25 27.21 125.34C27.23 125.43 27.62 126.05 28.08 126.72C28.54 127.38 28.94 127.93 28.97 127.93C29.01 127.94 29.83 127.39 30.8 126.72C31.77 126.04 32.62 125.48 32.69 125.46C32.76 125.45 33.28 126.09 33.85 126.91C34.41 127.72 34.87 128.45 34.87 128.54C34.87 128.63 34.73 128.8 34.56 128.92C34.4 129.05 33.59 129.61 32.77 130.17C31.95 130.74 31.3 131.26 31.33 131.33C31.36 131.4 31.76 132.02 32.23 132.71L33.08 133.96C34.02 133.32 36.29 131.76 38.72 130.08C41.15 128.4 43.33 126.81 43.56 126.55C43.79 126.29 44.11 125.81 44.26 125.5C44.48 125.04 44.54 124.68 44.54 123.83C44.54 123.02 44.48 122.62 44.31 122.29C44.18 122.04 43.4 120.86 42.57 119.66C41.74 118.46 40.89 117.21 40.66 116.87C40.44 116.54 40.21 116.27 40.16 116.27C40.11 116.27 39.75 116.49 39.36 116.75Z" />
		<path class="shp1" d="M37.44 122.11C36.48 122.78 35.69 123.38 35.67 123.45C35.66 123.52 36.08 124.22 36.62 125.01C37.16 125.81 37.64 126.51 37.68 126.57C37.72 126.63 38.46 126.19 39.32 125.6C40.18 125.02 40.95 124.4 41.02 124.25C41.09 124.09 41.15 123.86 41.16 123.73C41.16 123.61 40.75 122.92 40.26 122.19C39.76 121.47 39.32 120.88 39.26 120.89C39.21 120.89 38.39 121.44 37.44 122.11Z" />
		<path class="shp0" d="M140.61 121.2C140.69 121.34 141.06 121.75 141.43 122.1L142.11 122.74C140.93 121.45 140.56 121.04 140.53 121.01C140.5 120.97 140.54 121.06 140.61 121.2Z" />
		<path class="shp3" d="M156.6 121.64C156.32 121.7 155.89 121.85 155.64 121.97C155.39 122.1 155.07 122.29 154.93 122.4C154.78 122.52 153.67 123.78 152.46 125.21C151.25 126.63 150.25 127.85 150.25 127.9C150.25 127.95 152.38 129.81 154.99 132.03C158.44 134.96 159.93 136.15 160.42 136.35C160.85 136.54 161.37 136.64 161.86 136.65C162.28 136.65 162.89 136.56 163.21 136.45C163.52 136.34 163.97 136.12 164.2 135.97C164.44 135.81 165.62 134.51 166.83 133.08C168.05 131.64 169.06 130.43 169.08 130.39C169.1 130.34 168.86 130.07 168.56 129.79C168.25 129.51 167.51 128.87 166.92 128.36C166.32 127.86 164.45 126.28 162.76 124.85C160.93 123.31 159.42 122.13 159.04 121.96C158.69 121.8 158.11 121.64 157.76 121.6C157.4 121.57 156.88 121.58 156.6 121.64Z" />
		<path class="shp1" d="M156.94 125.14C156.77 125.23 156.23 125.78 155.75 126.36C155.27 126.94 154.87 127.46 154.87 127.51C154.87 127.57 155.72 128.33 156.75 129.21C157.79 130.09 159.28 131.35 160.06 132C161.1 132.87 161.57 133.19 161.83 133.19C162.02 133.19 162.25 133.16 162.34 133.13C162.43 133.09 162.95 132.55 163.49 131.91C164.04 131.27 164.47 130.71 164.44 130.65C164.42 130.6 163.85 130.1 163.18 129.53C162.51 128.97 161.06 127.74 159.96 126.81C158.79 125.82 157.8 125.08 157.6 125.05C157.4 125.01 157.11 125.05 156.94 125.14Z" />
		<path class="shp3" d="M49.04 130.2C48.54 130.8 48.1 131.38 48.04 131.48C47.98 131.6 48.31 131.94 49.13 132.59C49.79 133.11 50.39 133.63 50.48 133.75C50.62 133.93 50.45 134.19 49.33 135.59C48.6 136.49 46.89 138.6 45.51 140.28C44.14 141.96 43.01 143.41 43.01 143.5C43.01 143.59 43.56 144.11 44.23 144.65L45.45 145.63C45.95 144.98 46.64 144.13 47.31 143.32C47.98 142.5 49.57 140.57 50.83 139.02C52.09 137.47 53.16 136.14 53.22 136.07C53.27 135.99 53.86 136.39 54.67 137.06C55.42 137.68 56.08 138.17 56.14 138.15C56.21 138.14 56.7 137.57 57.24 136.9C57.77 136.23 58.17 135.65 58.11 135.6C58.06 135.56 56.24 134.07 54.07 132.3C51.9 130.53 50.08 129.09 50.03 129.09C49.98 129.09 49.53 129.59 49.04 130.2ZM141.78 135.63C139.5 137.32 137.63 138.8 137.63 138.9C137.63 139.01 138.03 139.64 138.53 140.3C139.07 141.03 139.47 141.47 139.55 141.41C139.62 141.35 140.29 140.85 141.03 140.3L142.37 139.29C142.67 139.76 143.34 140.68 144.05 141.64C144.76 142.59 146.31 144.69 147.48 146.29C148.65 147.9 149.67 149.21 149.74 149.21C149.81 149.21 150.42 148.79 151.1 148.28C151.77 147.77 152.32 147.31 152.31 147.25C152.31 147.2 151.08 145.5 149.58 143.47C148.07 141.45 146.46 139.27 145.99 138.63C145.52 138 145.13 137.42 145.13 137.35C145.14 137.28 145.77 136.76 146.55 136.2C147.32 135.63 147.94 135.14 147.92 135.1C147.9 135.06 147.51 134.47 147.04 133.79C146.58 133.11 146.14 132.55 146.07 132.55C145.99 132.55 144.06 133.93 141.78 135.63ZM62.68 140.46C62.56 140.72 62.26 141.39 62 141.94L61.54 142.93C64.02 144.12 64.74 144.5 64.74 144.53C64.74 144.57 64.13 145.88 63.38 147.45C62.63 149.02 61.45 151.5 60.75 152.96C60.06 154.42 59.49 155.65 59.49 155.68C59.49 155.72 60.11 156.04 60.87 156.39C61.62 156.75 62.3 157.03 62.37 157.03C62.44 157.03 62.92 156.14 63.43 155.07C63.94 154 64.83 152.14 65.4 150.94C65.97 149.74 66.75 148.11 67.13 147.32L67.82 145.88C70.3 147.07 71.05 147.4 71.08 147.38C71.11 147.37 71.43 146.73 71.79 145.97C72.14 145.22 72.43 144.55 72.43 144.5C72.43 144.45 70.37 143.43 67.85 142.23C65.33 141.04 63.18 140.04 63.08 140.02C62.95 139.99 62.81 140.15 62.68 140.46ZM129.04 143.19C128.05 143.62 125.92 144.52 124.29 145.2C122.67 145.88 121.33 146.45 121.31 146.47C121.3 146.5 121.73 147.59 122.28 148.91C122.85 150.28 123.44 151.49 123.66 151.76C123.88 152.01 124.31 152.35 124.62 152.51C124.94 152.66 125.54 152.86 125.96 152.94C126.55 153.05 127.27 153.04 128.97 152.91C130.74 152.78 131.29 152.78 131.57 152.9C131.83 153.01 132.04 153.32 132.38 154.05C132.63 154.6 132.81 155.1 132.78 155.17C132.75 155.24 131.93 155.64 130.95 156.05C129.97 156.47 128.5 157.09 127.69 157.44C126.88 157.78 126.2 158.08 126.18 158.09C126.17 158.11 126.42 158.75 126.74 159.53C127.07 160.3 127.37 160.98 127.42 161.04C127.46 161.09 129.03 160.49 130.9 159.71C132.77 158.92 134.96 158 135.77 157.66C136.7 157.27 137.23 156.98 137.2 156.87C137.18 156.78 136.7 155.61 136.14 154.27C135.57 152.93 135.02 151.64 134.9 151.4C134.78 151.17 134.51 150.8 134.29 150.59C134.08 150.37 133.69 150.09 133.43 149.96C133.17 149.83 132.59 149.66 132.15 149.59C131.58 149.5 130.69 149.51 129.1 149.62C127.33 149.75 126.78 149.75 126.51 149.62C126.29 149.53 126.05 149.25 125.9 148.92C125.7 148.48 125.68 148.35 125.82 148.25C125.91 148.18 127.41 147.51 129.15 146.77C130.89 146.03 132.31 145.37 132.31 145.3C132.3 145.23 132.04 144.55 131.73 143.79C131.41 143.04 131.08 142.42 130.99 142.42C130.91 142.42 130.03 142.77 129.04 143.19ZM79.42 147.14C79.39 147.26 79.03 148.85 78.6 150.68C78.18 152.52 77.6 155.08 77.3 156.39C76.87 158.27 76.78 158.9 76.84 159.46C76.88 159.85 77.06 160.46 77.23 160.81C77.4 161.16 77.79 161.68 78.1 161.96C78.4 162.23 78.88 162.56 79.17 162.69C79.45 162.81 80.66 163.14 81.86 163.42C83.06 163.7 84.28 163.98 84.57 164.04L85.11 164.14C85.63 161.86 85.77 161.14 85.75 161.08C85.72 161.02 84.61 160.71 83.27 160.4C81.26 159.94 80.78 159.78 80.54 159.52C80.39 159.35 80.26 159.08 80.25 158.92C80.25 158.76 80.62 157.05 81.07 155.11C81.52 153.17 82.09 150.73 82.32 149.69C82.56 148.66 82.73 147.78 82.69 147.74C82.66 147.7 82.14 147.55 81.54 147.41C80.94 147.27 80.23 147.11 79.96 147.05C79.55 146.95 79.46 146.97 79.42 147.14ZM171.6 150.91L170.58 151.97C172.22 150.38 172.69 149.9 172.69 149.88C172.69 149.86 172.68 149.85 172.66 149.85C172.64 149.85 172.16 150.33 171.6 150.91ZM95.46 151.8C95.41 152.81 95.38 155.74 95.41 158.31L95.45 162.99C96.04 164.06 96.42 164.54 96.67 164.76C96.91 164.97 97.43 165.3 97.82 165.48C98.51 165.8 98.61 165.81 101.51 165.84L104.49 165.87L104.49 162.54C99.51 162.54 99.48 162.54 99.1 162.22C98.73 161.91 98.72 161.87 98.72 160.75L98.72 159.59L102.69 159.59L102.63 156.32L98.72 156.26L98.78 153.38L104.62 153.44L104.62 150.11C101.29 150.1 99.25 150.06 97.94 150.03L95.56 149.96L95.46 151.8Z" />
	</g>
</svg>