<?xml version="1.0" encoding="UTF-8" standalone="no"?>
<svg xmlns:rdf="http://www.w3.org/1999/02/22-rdf-syntax-ns#" xmlns="http://www.w3.org/2000/svg" height="209.25049" width="245.39685" version="1.1" xmlns:cc="http://creativecommons.org/ns#" xmlns:dc="http://purl.org/dc/elements/1.1/" viewBox="0 0 245.39685 209.25049"><defs><clipPath id="clip-path" transform="translate(-0.35381 -0.24492)"><rect width="245.28003" height="208.54487" fill="none"/></clipPath></defs><g clip-path="url(#clip-path)"><path d="M241.32471,100.5643c-1.77991-4.79585-6.47685-14.33808-3.31258-21.95209,2.22486-5.488,4.9936-7.36681,4.79582-15.62357-1.53268-17.799-14.18976-21.606-17.00792-21.95208-6.03189-.64277-9.44335,3.16426-9.54225,6.13077a6.1131,6.1131,0,0,0,3.06538,5.8341s-1.03825-5.14192,3.65869-4.49918a4.96681,4.96681,0,0,1,3.41148,7.169c-3.75756,5.142-9.93777,2.76875-13.69533-1.58212-2.76875-2.7193-8.80062-10.28387-20.41941-10.38275-18.34285-.09888-23.63311,14.68418-36.98235,9.93777-5.0925-1.97766-7.91067-6.67463-4.89472-12.45929,2.42264-3.31261,6.32852-3.95532,8.89948-2.47208,1.97768,1.53268,3.06539,3.807,2.22489,6.1802-.84051,1.681-2.42265,2.126-4.30143,1.08772-1.33493-.98884-1.4338-2.126-.84051-2.7193,1.03828-.74162,1.681-.2472,1.681-.2472-.98883-1.38438-2.07654-1.87878-3.75756-1.08772-3.75757,2.571-3.41148,9.78945,6.77351,10.23443C172.55138,51.07321,179.7204,41.9265,175.6662,27.6873,172.65026,19.97442,161.67421,0,122.51642.2472,83.35863,0,72.3826,19.97442,69.3172,27.6873,65.263,41.9265,72.48146,51.02377,83.95194,52.16093c10.23442-.3461,10.53106-7.66347,6.77351-10.23443-1.681-.79106-2.76874-.2472-3.75757,1.08772,0,0,.64273-.49442,1.681.2472.54386.49442.445,1.681-.88995,2.7193A2.812,2.812,0,0,1,83.507,44.893c-.84051-2.3732.24721-4.64752,2.22488-6.1802,2.57095-1.48324,6.47686-.84053,8.89949,2.47208,3.06539,5.83413.19777,10.53107-4.89471,12.45929-13.34926,4.697-18.63952-10.03665-36.98236-9.93777-11.6188.04944-17.65067,7.66345-20.4194,10.38275-3.75757,4.35087-9.93777,6.72407-13.74478,1.58212a5.02636,5.02636,0,0,1,3.46093-7.169c4.74638-.64274,3.65866,4.49918,3.65866,4.49918a6.11306,6.11306,0,0,0,3.06538-5.8341c-.04944-2.96651-3.51036-6.77354-9.49279-6.13077-2.76874.34608-15.47523,4.15308-16.9585,21.95208C2.126,71.2454,4.84529,73.12418,7.11961,78.61221c3.11482,7.614-1.58212,17.15624-3.31258,21.95209-1.53268,4.252-7.02073,22.39706.14832,33.52143,10.43216,16.06854,27.39066,8.55341,27.539,17.70012.14832,7.31737-10.08612,6.378-8.94895,2.571.93937-3.01594,4.00478-1.58213,4.00478-1.58213-1.63158-4.49919-7.02073-5.53746-10.23443-.19777a10.835,10.835,0,0,0,3.5598,14.5853c11.12436,7.21847,22.39707,2.81816,31.24711-2.37321,8.60285-5.09248,17.00794-10.58051,21.25993-10.6794,6.47684-.14832,8.70173,5.19138,7.169,9.295-1.53268,4.20254-4.9936,12.16265-.34609,18.49118,4.74641,6.27908,11.76713,8.20731,22.84205,10.3333,9.78945,1.87878,18.09564,10.82772,20.46884,16.2663,2.37321-5.43858,10.63-14.38752,20.46885-16.2663,11.02549-2.126,18.09564-4.10366,22.842-10.3333,4.7464-6.32853,1.1866-14.28864-.3461-18.49118-1.53268-4.10366.79107-9.44336,7.169-9.295,4.252.14833,12.65706,5.6858,21.2599,10.6794,8.80062,5.19137,20.12276,9.59168,31.24713,2.37321,4.59806-3.01595,6.67463-9.44336,3.55981-14.5853-3.26317-5.33969-8.60285-4.30142-10.23444.19777,0,0,3.06539-1.38437,3.95533,1.58213,1.1866,3.807-9.04781,4.74641-8.89949-2.571.14832-9.19615,17.10682-1.681,27.48957-17.70012C248.39485,122.86248,242.808,104.76684,241.32471,100.5643Z" transform="translate(-0.35381 -0.24492)" fill="#e03a3e"/></g><path d="M237.71546,101.80034l-.79108-2.07654c-2.22486-5.43859-5.78467-14.58529-2.42264-22.59483a35.62127,35.62127,0,0,1,2.02712-4.30143A15.864,15.864,0,0,0,238.9515,63.137c-1.38438-16.56295-13.49757-18.3923-13.64591-18.44174a9.50288,9.50288,0,0,0-1.681,0,8.2283,8.2283,0,0,1,6.13076,4.54863,8.70592,8.70592,0,0,1-.04944,8.10845l-.14834.2472-.14832.14832a10.386,10.386,0,0,1-8.059,4.44974c-3.90588.14834-8.15786-1.92822-11.47046-5.63635-.29665-.29663-.54385-.64274-.88994-.98881-2.91706-3.06539-7.91067-8.20734-16.76073-8.25677-7.81177-.04944-12.90427,2.9665-17.84843,5.83412-5.83411,3.41146-11.81656,6.92183-20.36995,3.95533l-.04945-.04944h-.04944A13.16759,13.16759,0,0,1,146.14952,49.59c-.84051-2.22489-1.33492-5.8341.98884-10.28387l.14832-.34608.19777-.19778c3.41147-4.59807,9.34447-6.13075,13.84365-3.4609l.19777.14831.14832.14832c3.55981,2.66987,4.84529,6.67463,3.51037,10.48163l-.14833.19779-.09888.19776a8.13116,8.13116,0,0,1-.69218,1.08772,12.27674,12.27674,0,0,0,6.67461-4.697c2.37321-3.4609,2.81819-8.35562,1.236-14.04143-3.807-9.49279-15.228-25.16579-49.59-24.968-34.31251-.19776-45.783,15.4258-49.54055,24.968C71.44318,34.51028,71.83872,39.405,74.21193,42.8659a12.58574,12.58574,0,0,0,6.72406,4.697,8.12921,8.12921,0,0,1-.69219-1.08772l-.14832-.19776-.09889-.19779c-1.33491-3.807,0-7.76232,3.46091-10.48163l.19778-.14832.19775-.14831c4.49921-2.571,10.4322-1.08773,13.84368,3.4609l.19776.19778.14833.34608A12.4883,12.4883,0,0,1,99.03163,49.59a13.59357,13.59357,0,0,1-7.76235,7.46569l-.04943.04944c-8.5534,3.01594-14.58529-.49443-20.37-3.95533-4.94416-2.86762-10.0861-5.88356-17.84844-5.83412-8.85.04943-13.84366,5.19138-16.76071,8.25677-.34609.34607-.64275.69218-.93939.98881-3.26314,3.65869-7.51513,5.78469-11.47046,5.63635a10.09632,10.09632,0,0,1-8.00958-4.44974l-.14832-.14832-.14831-.2472a8.43322,8.43322,0,0,1,0-8.10845A8.26668,8.26668,0,0,1,21.606,44.69524a9.5031,9.5031,0,0,0-1.681,0c-.14832,0-12.16263,1.87879-13.64589,18.44174a16.20867,16.20867,0,0,0,2.42264,9.69056A44.41407,44.41407,0,0,1,10.77827,77.129c3.26314,7.96009-.29664,17.1068-2.42262,22.59483-.29666.79106-.5933,1.53269-.84052,2.07654-2.6204,7.26793-5.63635,21.75433-.2472,30.20885,4.94416,7.51514,11.32213,8.8995,16.909,10.13554,4.94418,1.03827,11.12439,2.42264,11.27271,9.54224a9.02132,9.02132,0,0,1-5.043,8.40508,9.32265,9.32265,0,0,1-9.59168-.98883,5.66546,5.66546,0,0,1-1.7799-2.91707,7.36859,7.36859,0,0,0,3.11482,7.76234c7.56458,4.94417,16.0191,4.15311,27.29179-2.47208l4.10367-2.42263c8.89948-5.33971,14.63472-8.65229,18.93616-8.75117,4.10364-.09889,7.46567,1.4338,9.54222,4.30141a10.74364,10.74364,0,0,1,1.28549,10.0861l-.34609.98883c-1.43382,3.85646-3.65869,9.74-.49443,13.8931,3.70813,4.99361,9.34447,6.823,20.5183,8.94895,8.25674,1.58213,15.47522,7.51513,19.77666,12.90427,4.30142-5.488,11.47046-11.32214,19.8261-12.90427,11.17381-2.17543,16.76071-3.95534,20.51828-8.94895,3.11482-4.20253.98883-10.03664-.49441-13.8931l-.34611-.98883a11.18034,11.18034,0,0,1,1.236-10.0861,10.90492,10.90492,0,0,1,9.54224-4.30141c4.30142.14832,9.9872,3.41146,18.9856,8.75117l4.10365,2.42263c11.27269,6.62519,19.67777,7.41625,27.24233,2.47208a7.33584,7.33584,0,0,0,3.11483-7.76234,6.24375,6.24375,0,0,1-1.77991,2.91707c-2.32373,2.0271-6.378,2.47208-9.59166.98883A8.7417,8.7417,0,0,1,210.127,151.687c.09889-7.1196,6.27909-8.45452,11.22325-9.54224,5.63635-1.236,12.01431-2.6204,16.909-10.13554C243.45069,123.60411,240.3853,109.06827,237.71546,101.80034Z" transform="translate(-0.35381 -0.24492)" fill="#c4ced4"/><path d="M234.2051,103.13526c-.14835-.54385-.49442-1.236-.79109-1.97766-2.3732-6.03188-6.27908-16.06854-2.3732-25.46245a51.00821,51.00821,0,0,1,2.22488-4.59807c1.4338-2.66985,2.07654-3.9059,2.0271-7.7129a24.56358,24.56358,0,0,0-1.33492-6.13077,8.56889,8.56889,0,0,1-.88993,1.92823l-.14835.24722-.09888.19776-.14832.19776-.14832.19778a14.11306,14.11306,0,0,1-10.92661,5.98242c-4.9936.14835-10.28387-2.37318-14.33807-6.82294a8.02924,8.02924,0,0,1-.88995-.98882c-2.71928-2.81819-6.82295-7.07017-14.09087-7.11961-6.7735-.04944-11.22325,2.52152-15.92021,5.29027-5.88356,3.4609-13.29981,7.76232-23.48479,4.252l-.04942-.04944a.38266.38266,0,0,1-.14834-.04944h-.04944a16.8608,16.8608,0,0,1-9.93778-9.59169,15.97786,15.97786,0,0,1,1.1866-13.3987l.29667-.5933.19776-.24719.14833-.2472c4.59807-6.08133,12.657-8.059,18.78781-4.44977l.19778.0989.19775.14832.19778.14832.19777.14832a13.44539,13.44539,0,0,1,4.74639,6.47687c1.13716-2.91707.5933-6.378-.09888-9.04783-3.46091-8.504-14.04143-22.54541-46.03018-22.34762C90.82431,7.41622,80.2438,21.45766,76.78288,29.96163c-.74162,2.66984-1.236,6.13076-.14833,9.04783a14.16409,14.16409,0,0,1,4.7464-6.47687l.19776-.14832.19777-.14832.19777-.14832.19777-.0989c6.13076-3.55978,14.18976-1.58212,18.78782,4.44977l.14833.2472.19777.24719.29665.5933a15.8825,15.8825,0,0,1,1.08771,13.3987,16.86076,16.86076,0,0,1-9.93777,9.59169h-.04945s0,.04944-.14832.04944l-.04944.04944c-10.185,3.55978-17.60123-.74164-23.48478-4.252-4.6475-2.76875-9.09726-5.33971-15.92022-5.29027-7.21847,0-11.32212,4.30142-14.04142,7.11961-.29664.34608-.64273.64274-.93939.98882-3.95532,4.44976-9.34447,6.97129-14.28864,6.82294a14.21515,14.21515,0,0,1-10.97606-5.98242l-.14832-.19778-.14832-.19776-.29664-.445a9.499,9.499,0,0,1-.84052-1.92823,25.07426,25.07426,0,0,0-1.33492,6.13077c-.04944,3.807.54386,4.99361,2.02712,7.7129.64272,1.236,1.43378,2.71929,2.22486,4.59807,3.90589,9.39391-.04944,19.43057-2.42264,25.46245-.29666.69218-.54386,1.43381-.79106,1.97766-2.22488,6.13077-5.24083,19.67778-.64274,26.84682,4.00476,6.22966,9.14669,7.36681,14.53583,8.55341,4.89474,1.03827,14.04144,3.01594,14.23921,13.15147a12.4872,12.4872,0,0,1-6.92184,11.66823c4.30144.04944,9.19615-1.58213,15.12915-5.09248l4.10366-2.42265c9.78945-5.83411,15.52468-9.09727,20.76548-9.24558,5.33971-.14832,9.88834,1.92822,12.70652,5.88355a14.64744,14.64744,0,0,1,1.7799,13.547,7.607,7.607,0,0,1-.39553.93939c-1.236,3.31259-2.91707,7.81177-1.03828,10.3333,2.71929,3.60923,6.82294,5.29025,18.244,7.51513,6.72407,1.33493,13.547,5.29025,19.08448,10.976,5.488-5.68579,12.36042-9.64111,19.035-10.976,11.47048-2.22488,15.52468-3.85645,18.244-7.51513,1.92823-2.52153.24721-7.02071-.98883-10.3333-.14832-.445-.34609-.79108-.39553-.98883v.04944a14.75935,14.75935,0,0,1,1.73046-13.547,14.57475,14.57475,0,0,1,12.657-5.88355c5.29026.14831,11.12437,3.46091,20.815,9.24558l2.0271,1.23605a16.99838,16.99838,0,0,1,2.07655,1.33492l-.04944-.14832c5.98243,3.46091,10.82772,5.19137,15.12913,5.14192a12.67417,12.67417,0,0,1-6.92182-11.66822c.19777-10.13554,9.295-12.1132,14.23919-13.20092,5.43859-1.13716,10.48163-2.22487,14.53586-8.504C239.4459,122.813,236.43,109.266,234.2051,103.13526Z" transform="translate(-0.35381 -0.24492)" fill="#002b5c"/><path d="M122.26919,13.94256c-13.49757,0-24.177,3.2137-24.02864,7.169s10.92661,7.169,24.02864,7.169c13.15149,0,23.88032-3.2137,23.97921-7.169C146.44616,17.10682,135.61844,13.94256,122.26919,13.94256Zm.14833,11.02546c-10.63,0-19.2328-2.22486-19.33169-4.84526-.09888-2.66986,8.55341-4.84528,19.33169-4.84528,10.72883,0,19.38112,2.22486,19.28224,4.84528C141.65032,22.842,132.998,24.968,122.41752,24.968Z" transform="translate(-0.35381 -0.24492)" fill="#e03a3e"/><path d="M113.17193,16.06854c-.29665,4.7464,8.94893,5.98244,10.77827,3.51036-2.86761.14832-4.00477-1.13716-3.55979-3.01594,2.0271-8.20731,28.28062-6.32853,28.92336,4.4003.49442,7.91067-12.36041,3.55981-22.59483,25.66023,8.8995-19.13392,27.48955-18.14508,27.63789-24.67139C154.65348,8.65229,113.963,4.89473,113.17193,16.06854Z" transform="translate(-0.35381 -0.24492)" fill="#c4ced4"/><path d="M147.53389,108.92c-.89-2.42263-.89-6.18021,2.86761-6.18021-2.66985-3.46091-8.3062.54386-4.05421,6.92184,1.33492,1.97766,2.22487,5.43858,2.52152,10.82772.5933,11.32214-12.80539,11.02549-9.39392,28.03342a13.56723,13.56723,0,0,0-1.58213-1.7799c-2.571-2.66985-5.43857-4.64752-6.32853-7.31737-2.86761-8.40508,7.56457-8.70173,2.7193-22.842-5.63636-16.118-22.39708-2.37319-30.95047-19.33168-7.169-14.38753,6.13075-31.84042,16.909-43.50866-2.27431,2.37321-4.10365,4.30143-3.90588,4.00479C107.43671,66.499,90.62655,81.18319,98.6361,99.37772c5.43858,12.21208,24.32528,6.18021,26.79737,19.38112,2.571,13.44813-9.69056,9.09727-15.37636,22.7926-.98883,2.47209-3.55979,5.73524-5.29025,8.10843a23.35635,23.35635,0,0,0-3.807,12.21209v.59331a5.01482,5.01482,0,0,1-4.59807-4.4992,10.145,10.145,0,0,1-.14833-1.82934,4.87628,4.87628,0,0,1,.14833-1.18659c1.236-5.63636,9.98721-8.80062,10.9266-15.7719.98883-7.07014-8.70172-8.059-11.76711-7.07014,0,0,5.43858,1.73045,5.43858,6.82294,0,4.252-5.68578,6.378-7.07015,14.38752-.64274,3.65868-.24721,8.75116,7.21848,10.97605.93939,6.378,5.933,16.5135,21.45768,16.46406,17.60122-.04944,21.65544-13.05259,21.65544-18.83727a25.13207,25.13207,0,0,0-.89-6.378c-5.14194-23.58367,4.89472-16.66184,8.55341-27.24235.09887-.34609.24719-.69218.34609-1.08771C154.45572,118.95661,148.6216,111.73813,147.53389,108.92Z" transform="translate(-0.35381 -0.24492)" fill="#c4ced4"/><path d="M123.55469,160.1415V164.789a15.87444,15.87444,0,0,1,11.81655,8.40507,16.74465,16.74465,0,0,0,3.95533-8.25675C135.3218,161.9214,130.17986,160.33926,123.55469,160.1415Zm-2.27432-2.32376V153.8624a22.31959,22.31959,0,0,1-6.97127-1.4338,9.07008,9.07008,0,0,0-5.53747-.64274,17.37633,17.37633,0,0,0-3.362,10.23442v.49441A29.80044,29.80044,0,0,1,121.28037,157.81774Zm12.311-8.85a17.37195,17.37195,0,0,0-10.08608-4.10367v6.57575a19.35827,19.35827,0,0,0,6.62517-1.48325A15.18923,15.18923,0,0,1,133.59133,148.96769Zm-12.311,18.19452c-4.44975.445-8.10844,3.90589-10.13554,7.614a17.59141,17.59141,0,0,0,10.13554,4.30142Z" transform="translate(-0.35381 -0.24492)" fill="#002b5c"/><path d="M140.61205,28.92337a10.458,10.458,0,0,0-1.03828.54386h-.14832c-6.03189,3.41146-9.93777,10.67939-9.93777,10.67939-.39553-4.252-3.90589-9.09727-3.90589-9.09727l-3.16427.09888a21.71977,21.71977,0,0,1-3.16426,8.949,20.18422,20.18422,0,0,0-11.71767-10.33331c-.04945,0-5.98244-2.07654-5.98244-2.07654s.04944,0,.14832.09888l-.54386-.2472s15.92022,11.76709,6.47686,26.55014c0,0,7.96009-2.76872,11.27269-9.59166,0,0,2.07655,6.62518-4.15309,14.68417,0,0,9.74-5.24083,13.44813-13.547a16.25864,16.25864,0,0,1-3.21371,10.63c16.66183-4.54863,7.02071-21.80376,19.23279-28.97281Zm-29.46723,21.5071c3.51037-9.39391-1.87878-16.76072-4.44974-19.57888,4.7464,1.681,9.98721,6.18021,11.76711,11.22325A21.00219,21.00219,0,0,1,111.14482,50.43047Zm8.059,3.75759c2.52152-4.252,1.681-9.14671.8405-11.91546,1.38436-2.32374,3.60924-6.52628,4.10367-10.08609,0,0,3.65867,3.31261,4.10365,10.08609C123.8019,52.01261,119.20382,54.18806,119.20382,54.18806ZM128.4,53.24865c1.53269-3.16426,1.58214-7.91067,1.33492-10.77827v-.04944a34.37167,34.37167,0,0,1,7.02072-8.70172C134.58017,40.04774,135.07459,49.78775,128.4,53.24865Zm83.75415,17.99676a1.38189,1.38189,0,0,0-1.63155.14832,3.96628,3.96628,0,0,0-1.08773,2.07655,9.64465,9.64465,0,0,0-3.51035-2.86761H205.875a4.688,4.688,0,0,0-1.8788-.39554,7.46686,7.46686,0,0,1,.98885,3.06539,4.1067,4.1067,0,0,1-.88995,2.42263,3.06191,3.06191,0,0,0,2.42264-2.37319v-.49442a7.40539,7.40539,0,0,1,2.571,3.65869l2.07653.34609C211.06639,76.83232,209.97869,73.27252,212.15411,71.24541ZM138.931,63.08754a1.36283,1.36283,0,0,0-1.58213.445,4.25024,4.25024,0,0,0-.74163,2.22485,9.07171,9.07171,0,0,0-3.95533-2.22485h-.04944a5.3285,5.3285,0,0,0-1.92822-.09888,7.13351,7.13351,0,0,1,1.53268,2.76872,4.46,4.46,0,0,1-.54386,2.6204,3.20321,3.20321,0,0,0,2.02713-2.76872v-.49442a6.909,6.909,0,0,1,3.06537,3.16426h2.07655C138.78271,68.72389,137.15113,65.46075,138.931,63.08754Zm36.14185,2.96651c-.49441-.49442-7.36681-.79109-7.36681-.79109l-.14832,1.1866a1.86545,1.86545,0,0,1,1.38436-.54383c.29665,0,.98883.09888,1.681.14832v.04944c-1.53268,1.236-.98882,4.74639-.98882,4.74639l2.571.09888s-1.681-2.52152,0-4.64751c.64272.0989,1.08769.14831,1.3349.19775a2.43672,2.43672,0,0,1,1.33492.93941S175.51786,66.54847,175.07288,66.05405Zm-56.06683-2.6204a2.10937,2.10937,0,0,0-2.02711.44495c-1.4338,1.33492-.79106,4.79585-.79106,4.79585h2.571C118.85773,68.57556,116.78118,65.75738,119.00605,63.43365Zm-17.799,6.22963,2.62042-.14833s-2.22488-3.16426-.19778-5.63635a2.19073,2.19073,0,0,0-1.97766.54386,3.03478,3.03478,0,0,0-.69218,2.17545l-2.71929.14832A1.98838,1.98838,0,0,0,97.054,65.16411a2.69827,2.69827,0,0,0-2.22486.04941,4.16084,4.16084,0,0,1,1.7799,2.22489,3.8077,3.8077,0,0,1-.39554,2.6204,3.35169,3.35169,0,0,0,2.02711-2.32376l2.71929-.14832A14.275,14.275,0,0,0,101.20705,69.66328Zm-38.4656,4.54863,3.362-.39552s-2.76873-3.75758-4.252-4.64753c-1.13716-.74162-1.7799-1.03827-2.42263-.04944A35.016,35.016,0,0,0,56.759,74.90409l1.43381-.14833s.14832-.49442.34609-1.1866l3.75757-.39553A2.634,2.634,0,0,1,62.74145,74.21191Zm-3.70813-1.82934a6.03759,6.03759,0,0,1,.98884-1.681c.34609-.39553,1.08772.445,1.7799,1.38437Zm130.32819-4.697c-2.52151-.29665-4.59808.64275-4.74639,1.92823-.19778,1.33492,1.58213,2.71928,4.10365,3.06537,2.571.34609,4.64753-.64273,4.79585-1.92822C193.66293,69.41607,191.93248,67.98227,189.36151,67.68561Zm1.92822,2.81818a2.11347,2.11347,0,0,1-2.42263,1.53269,1.96735,1.96735,0,0,1-1.87878-2.07655,2.08463,2.08463,0,0,1,2.42264-1.53269A1.99568,1.99568,0,0,1,191.28973,70.50379ZM154.30739,67.389c-.14832-.54385-2.126-1.08771-2.126-1.08771h4.40031a1.45364,1.45364,0,0,0-.34609,1.08771c.04945.54386.19777,1.58213.19777,1.58213a9.1469,9.1469,0,0,1-3.11482.34609c-2.42265-.04943-4.84529-1.236-4.84529-2.76871,0-1.48327,2.07655-2.71931,4.49919-2.71931a3.82241,3.82241,0,0,1,3.3126,1.4338,8.34993,8.34993,0,0,0-3.0654-.69218,2.45925,2.45925,0,0,0-2.6204,2.02713,2.44675,2.44675,0,0,0,2.7193,2.126,5.17257,5.17257,0,0,0,.84051-.19777A1.47849,1.47849,0,0,0,154.30739,67.389ZM82.51811,68.77333c.93939.14832,2.02711.88995,1.63158,1.73046-.54386,1.1866-2.3732,1.77989-4.64752,1.58213a2.76293,2.76293,0,0,1-2.571-1.5327,5.955,5.955,0,0,0,1.87877.69219,4.27856,4.27856,0,0,0,2.91707-.29665c.29665-.24721.29665-.54386,0-.74163l-3.06539-.54385c-1.53269-.19777-2.37319-1.28548-1.73045-2.07655a4.25862,4.25862,0,0,1,3.46091-1.18658c2.42264.19776,3.06538,1.03826,3.06538,1.03826s-3.41147-.49442-4.00477.29664c-.19776.19777,0,.49442.445.64275Zm-43.16256,6.1802S38.4656,77.37618,38.26784,77.92c-.24721.49441-.24721.64274-1.58214.19776-2.52152-.93939-4.89472-4.84528-4.89472-4.84528l3.01594-.445s.98883,2.7193,3.01594,3.60925l1.73046-4.7464s2.571,4.252,3.31259,3.85645c1.08772-.49441,1.73046-3.46092,1.63158-4.59808l1.28548-.14832a8.98851,8.98851,0,0,1-2.3732,6.27909,1.4549,1.4549,0,0,1-1.681.39553A14.65933,14.65933,0,0,1,39.35555,74.95353Zm84.19912,92.25812v11.866a17.04179,17.04179,0,0,0,10.03666-4.10366A13.274,13.274,0,0,0,123.55467,167.21165Zm-8.45451-17.00792a20.69687,20.69687,0,0,0,6.1802,1.33492V144.9629a16.84459,16.84459,0,0,0-10.13554,4.30145A12.87168,12.87168,0,0,1,115.10016,150.20373Zm15.92021,1.97766a23.901,23.901,0,0,1-7.4657,1.681v3.95532c6.5263.19778,11.81655,1.681,16.0191,4.44974v-.29664a16.84634,16.84634,0,0,0-3.65868-10.58051A9.006,9.006,0,0,0,131.02037,152.18139Zm-9.74,12.60764V160.1415a27.71715,27.71715,0,0,0-15.57413,5.043,16.2247,16.2247,0,0,0,3.6587,7.71291C112.1831,168.24993,116.63285,165.18455,121.28036,164.789Z" transform="translate(-0.35381 -0.24492)" fill="#fff"/><path d="M31.346,81.23263s-6.13077,3.60923-9.44336,6.18021a12.03212,12.03212,0,0,1,2.76874,3.01593,53.41981,53.41981,0,0,1,8.35563-4.9936A38.0478,38.0478,0,0,0,31.346,81.23263ZM42.12429,84.8913c7.76234,0,8.00954,7.36681,8.00954,7.36681,2.126-7.56456,6.77351-8.35564,8.70173-8.00955,1.681.29665,8.10843,1.43382,10.0861,12.60763-.88995-15.27747-8.94894-16.71128-10.77828-17.00793-2.02711-.34609-6.72406.49442-8.85006,8.059A7.74128,7.74128,0,0,0,41.086,80.491c-4.79584,0-7.31736,5.78468-7.56457,6.32854.5933,1.77989,1.1866,4.49918,1.1866,4.49918S37.18012,84.8913,42.12429,84.8913Z" transform="translate(-0.35381 -0.24492)" fill="#c4ced4"/><path d="M58.58835,133.29468c-.24721,1.2855-.19776,2.37321-.49441,3.70813,0,0,9.19614-8.65229,10.67939-24.67137C66.30125,125.92789,58.58835,133.29468,58.58835,133.29468ZM26.3524,113.07305h0c-.29665,8.65229,1.48325,17.99676,11.22325,24.47362.19777-1.03827.49442-3.75756.49442-3.75756C29.51666,128.05387,26.84681,120.58818,26.3524,113.07305Zm18.44174,15.62356a12.86547,12.86547,0,0,0-.49442,3.75758s3.65868,2.81817,7.81178,2.47208a12.59759,12.59759,0,0,0,.49442-3.75758C48.45282,131.46534,44.79414,128.69661,44.79414,128.69661Z" transform="translate(-0.35381 -0.24492)" fill="#e03a3e"/><path d="M68.87222,96.85617c-1.97767-11.22325-8.40508-12.36041-10.03666-12.60761-1.92822-.34609-6.57573.445-8.75117,8.00955,0,0-.19776-7.36681-8.00954-7.36681-4.99361,0-7.41625,6.42742-7.41625,6.42742s-.54386-2.66985-1.13716-4.49919c-.19777-.59331-.49442-1.18661-.5933-1.43382a51.607,51.607,0,0,0-8.3062,4.99362s3.31259,3.41147,2.42264,10.13553A65.31524,65.31524,0,0,0,26.3524,113.073c.49442,7.46569,3.21371,14.98082,11.66823,20.66661-8.45452-16.21686-1.33493-40.98713,1.92822-41.48154,2.76874-.445,6.13077,2.42263,4.84529,36.4385,0,0,3.65868,2.81817,7.81178,2.47208,0,0,.69218-19.035.34608-26.89627-.2472-4.79583-1.18659-12.50873,4.05422-12.657,4.40031-.19777,6.82295,17.30458,1.58213,41.6793,0,0,7.76234-7.31735,10.23442-20.86437a45.97472,45.97472,0,0,0,.69219-7.66346A44.82418,44.82418,0,0,0,68.87222,96.85617Z" transform="translate(-0.35381 -0.24492)" fill="#fff"/><path d="M220.70752,115.29791h-.0989c.445,8.00955-4.99361,16.21687-12.50872,16.85961-6.67463.54386-8.8995-3.31259-9.14671-5.73523-.34609,3.65868,2.07655,10.185,9.69056,9.54224C216.45554,135.17347,221.8941,125.1368,220.70752,115.29791Z" transform="translate(-0.35381 -0.24492)" fill="#e03a3e"/><path d="M209.53371,83.21028c4.10364-.49441,6.52629,2.17545,6.378,4.59808-.04944.34609-.14832.69219-.19776.98884.98882-1.38437,2.42262-8.85006-4.64753-9.59168-3.60923-.29665-8.20731,3.01593-9.295,9.93777A9.19842,9.19842,0,0,1,209.53371,83.21028Z" transform="translate(-0.35381 -0.24492)" fill="#c4ced4"/><path d="M220.60864,115.29791c-.49442-9.44334-6.47687-15.72243-10.63-21.30934-3.01594-3.95533-1.38436-6.5263-.39553-7.169,1.236-.69218,3.26314-.445,3.60925,1.03828.19775.88995,0,2.81817-1.43383,3.06538,0,0,3.06538.49441,3.90591-2.02711a3.232,3.232,0,0,0,.19776-1.03827c.19776-2.32377-2.27433-4.99361-6.32853-4.54864a8.976,8.976,0,0,0-7.76234,5.933,13.65912,13.65912,0,0,0-.74163,5.43858c.24721,5.88356,5.83412,11.2727,8.35564,14.437,2.37319,3.01594,4.94415,9.44336,2.66985,14.58529-1.87878,4.1531-4.35086,4.49919-5.83411,4.59808-1.53269.09888-3.95534-1.43381-3.46091-3.31259.54386-1.87879,3.01594-2.37321,3.41147-1.92823,0,0-1.58213-1.53269-3.11482-1.43381a4.19134,4.19134,0,0,0-4.05422,3.95534v.88995c.29665,2.42263,2.42263,6.32852,9.1467,5.78466C215.615,131.56422,221.0536,123.258,220.60864,115.29791Z" transform="translate(-0.35381 -0.24492)" fill="#fff"/><path d="M141.502,79.99658c-.14832,1.28549-.19777,2.71929-.29665,4.1531a15.49862,15.49862,0,0,0,7.46569-2.07655l.49442-4.30142A15.23155,15.23155,0,0,1,141.502,79.99658Zm-9.54224,2.66985c.04944-2.32375.04944-3.75756.04944-3.75756A38.61887,38.61887,0,0,0,125.384,78.365a31.61077,31.61077,0,0,0-1.5327,11.12437,35.18786,35.18786,0,0,1,1.43382-6.87239A20.80362,20.80362,0,0,1,131.95975,82.66643ZM142.88636,69.515s-5.488,4.252-10.6794,5.58692c0,0-.14833,1.58213-.19777,3.807a35.62916,35.62916,0,0,0,10.13554-4.94417C142.3425,72.03648,142.88636,69.515,142.88636,69.515Z" transform="translate(-0.35381 -0.24492)" fill="#c4ced4"/><path d="M139.376,124.5435c-6.67463.19777-7.66346-6.52629-8.00955-10.28386v-.24721c-.04945,1.92824-.04945,3.41148,0,4.00478.34609,3.75757,1.33492,10.63,8.00955,10.33331,6.67462-.34609,6.47685-9.04782,6.32853-11.2727C145.80342,119.3027,144.32018,124.34575,139.376,124.5435Z" transform="translate(-0.35381 -0.24492)" fill="#e03a3e"/><path d="M141.502,79.99658a44.51587,44.51587,0,0,1,.69218-6.03188,34.24721,34.24721,0,0,1-10.13554,4.94417s0,1.43381-.04944,3.807a18.68585,18.68585,0,0,0-6.62518-.04944,29.29774,29.29774,0,0,0-1.38437,6.87239,16.33663,16.33663,0,0,1,7.96011-1.77989c-.14833,9.78944-.69219,23.287-.49442,26.25352v.19775c.34609,3.75757,1.28548,10.48164,7.96011,10.33332,4.94417-.19777,6.5263-5.29026,6.378-7.4657,0,0-.54385,2.571-2.62041,2.3732-2.07655-.14832-2.86761-.84051-3.2137-5.68579-.19777-3.06538.49441-15.228,1.08771-26.20407,5.83412-1.38437,7.66346-5.488,7.66346-5.488a14.27305,14.27305,0,0,1-7.46569,2.07655C141.30423,82.71587,141.40311,81.28207,141.502,79.99658Z" transform="translate(-0.35381 -0.24492)" fill="#fff"/><path d="M165.28344,81.13374c.2472-1.33492.54385-2.76872.8405-4.252,0,0-8.8995,2.81817-11.02548,3.65868,0,0-.04945,1.58213-.19777,4.05422,0,.19775.04944.34609.04944.49441v-.39553A44.45317,44.45317,0,0,1,165.28344,81.13374Z" transform="translate(-0.35381 -0.24492)" fill="#c4ced4"/><path d="M168.99156,119.05548c.09888,2.17544-1.43381,7.31737-6.378,7.4657-6.67462.19776-8.00954-7.56458-8.35563-11.37158,0-.19778-.04944-.49443-.04944-.79108a37.32346,37.32346,0,0,0,.14832,4.59808c.34609,3.70812,1.63157,11.56935,8.30619,11.32214S169.041,121.18147,168.99156,119.05548Z" transform="translate(-0.35381 -0.24492)" fill="#e03a3e"/><path d="M168.99156,119.05548s-.5933,2.62041-2.62041,2.42264c-2.07656-.2472-3.06539-2.126-3.70813-5.98243-.84051-4.79585-1.33492-14.48641,2.66986-34.26307a41.28088,41.28088,0,0,0-10.33331,3.46091v.39555c-.14832,3.01593-.98883,23.23757-.79106,29.26944,0,.29665.04944.54386.04944.79108.34609,3.75756,1.681,11.61878,8.35563,11.37158C167.50831,126.32341,169.041,121.18147,168.99156,119.05548Z" transform="translate(-0.35381 -0.24492)" fill="#fff"/><path d="M160.09206,73.27251a2.81819,2.81819,0,0,1,2.86761,2.76873,5.02728,5.02728,0,0,0,.9394-3.31258,3.08858,3.08858,0,0,0-3.06539-2.91706c-3.75756,0-4.1531,4.9936-3.75756,5.488,0,.04944.09888.09888.09888.14834A2.98242,2.98242,0,0,1,160.09206,73.27251Z" transform="translate(-0.35381 -0.24492)" fill="#c4ced4"/><path d="M162.95967,76.04124a2.85925,2.85925,0,0,0-2.86762-2.81817,2.92416,2.92416,0,0,0-2.86761,2.17543,3.94185,3.94185,0,0,0-.14833.74164,2.94188,2.94188,0,0,0,5.88356,0Z" transform="translate(-0.35381 -0.24492)" fill="#fff"/><path d="M192.1797,123.75244c-2.37321,4.00478-6.47686,4.35088-9.74,3.11484a13.136,13.136,0,0,1-5.78467-4.64751c-1.1866-1.73047-2.7193-5.78468-3.2137-11.6188-.04944,8.00955,1.92822,13.29981,3.362,15.37636a13.08385,13.08385,0,0,0,5.78466,4.64751c3.26316,1.236,7.41625.98883,9.74-3.06538a11.58521,11.58521,0,0,0,.79108-7.76234A5.97492,5.97492,0,0,1,192.1797,123.75244Z" transform="translate(-0.35381 -0.24492)" fill="#e03a3e"/><path d="M188.42213,79.8977c3.60923-.445,7.9601,2.47208,7.1196,8.00955l-.14833.84051c1.08772-2.07655,3.51035-10.82772-4.79584-12.65706-4.10366-.88995-12.70651,2.71929-15.37635,16.61239l-.29665,1.63157v-.04943C177.9405,83.01254,184.91177,80.29324,188.42213,79.8977Z" transform="translate(-0.35381 -0.24492)" fill="#c4ced4"/><path d="M188.42213,79.8977c-3.46092.39554-10.48163,3.11484-13.49757,14.33809-.19777.88995-.445,1.73045-.64274,2.71929a52.22725,52.22725,0,0,0-.84051,13.64589c.49442,5.88356,2.02711,9.88833,3.2137,11.6188a13.42669,13.42669,0,0,0,5.78467,4.6475c3.26316,1.236,7.36681.88995,9.74-3.11483a6.20863,6.20863,0,0,0,.88995-3.95533c-.445-2.91705-3.3126-4.6475-3.3126-4.6475,2.17543,3.26314.84051,6.52629-3.06538,6.87238-4.54864.49441-6.08133-10.38275-5.63635-22.10042.445-11.66822,4.59808-15.228,6.27909-15.62355,1.73046-.34609,3.807.5933,3.90589,2.42264.04944,1.53269-.29665,2.6204-1.236,3.2137-.98884.64274-2.81817,0-2.81817,0a3.78016,3.78016,0,0,0,2.66984,3.46091c1.1866.34609,4.59808,0,5.63635-4.64751l.14833-.88995C196.38223,82.36978,192.0808,79.50217,188.42213,79.8977Z" transform="translate(-0.35381 -0.24492)" fill="#fff"/><path d="M113.86413,77.27729c3.2137-.29664,5.2408,1.73046,5.53745,3.75757.49442-3.41147-1.53269-7.66346-5.63635-7.51514-3.55979.14833-8.35563,2.22489-8.25675,10.28387a12.80345,12.80345,0,0,0,.3461,2.71929C106.349,79.69993,110.65041,77.5245,113.86413,77.27729Z" transform="translate(-0.35381 -0.24492)" fill="#c4ced4"/><path d="M110.99651,124.84014c-6.27909.29665-8.00954-3.95532-8.059-6.22964-.445,4.05421,1.33493,10.28387,8.059,9.98722,6.823-.29665,12.01431-8.94894,11.81656-17.60123C122.12089,118.06665,117.2756,124.5435,110.99651,124.84014Z" transform="translate(-0.35381 -0.24492)" fill="#e03a3e"/><path d="M113.91357,87.75892c-2.571-4.00477-1.03829-6.47685-.0989-6.97127,1.08773-.64274,2.91707-.34609,3.21372,1.08771.14832.84051-.04945,2.71929-1.43381,2.91706a3.02111,3.02111,0,0,0,3.807-2.86761,6.6018,6.6018,0,0,0,0-.98884c-.34609-2.0271-2.37319-3.95532-5.58691-3.75756-3.2137.29665-7.46568,2.3732-8.00954,9.19615-.04944.49442-.04944.98883-.04944,1.53269.04944,5.78467,4.89472,11.17381,7.07015,14.38752,2.02712,3.01593,4.252,9.39391,1.97767,14.33808-1.82935,3.95533-4.10366,4.252-5.43858,4.252-1.38437.04944-3.5598-1.53269-3.01594-3.362.49442-1.87878,2.76873-2.22487,3.06538-1.73046a4.97174,4.97174,0,0,0-2.71929-1.58214,3.9385,3.9385,0,0,0-3.85645,3.75757v.54386c.04944,2.3732,1.7799,6.5263,8.10843,6.22964,6.22965-.29665,11.07493-6.7735,11.76711-13.84366.04944-.69218.14832-1.38436.14832-2.126C122.71417,99.7238,117.47336,93.29638,113.91357,87.75892Z" transform="translate(-0.35381 -0.24492)" fill="#fff"/><path d="M88.69832,126.81783c-4.44975,3.21371-12.311,3.26315-13.8931-1.08771a6.57567,6.57567,0,0,1-.49443-3.3126c-2.42263,11.47047,9.74,11.32215,14.2392,8.20732,5.3397-3.5598,10.63-13.8931,10.77828-31.44489C98.43832,114.35854,93.49416,123.35691,88.69832,126.81783Z" transform="translate(-0.35381 -0.24492)" fill="#e03a3e"/><path d="M75.74461,83.70472a20.56026,20.56026,0,0,1,7.51513-3.46092v0c.04944-1.38437.14832-2.91706.29665-4.49919a26.078,26.078,0,0,0-8.60285,3.75756,70.20217,70.20217,0,0,0,.69218,17.354l.04945-.14833A91.68129,91.68129,0,0,1,75.74461,83.70472ZM97.59782,73.668c-3.95534,1.13717-8.25676,4.99362-8.25676,4.99362s.29665,1.681.64274,4.15309c0,0,4.1531-3.65868,8.10843-4.89472A40.00987,40.00987,0,0,1,97.59782,73.668Z" transform="translate(-0.35381 -0.24492)" fill="#c4ced4"/><path d="M97.99335,77.96947c-3.85645,1.236-8.059,4.89472-8.059,4.89472s2.66986,14.28865-.09887,25.01748c0,0-9.09727,6.62518-6.57575-27.34123v-.19777a22.0226,22.0226,0,0,0-7.51512,3.46091,92.24822,92.24822,0,0,0-.04945,13.05261c.74163,9.24559,3.46092,19.77666,12.16265,18.78781,0,0-1.92823,9.54224-6.97127,9.74-2.47209.09887-3.01595-2.62041-2.76874-3.85645a3.29055,3.29055,0,0,1,1.82935-2.3732,3.69419,3.69419,0,0,0-2.17544-.34609,4.14007,4.14007,0,0,0-3.5598,3.60923,7.803,7.803,0,0,0,.49442,3.3126c1.58213,4.35086,9.44335,4.30142,13.8931,1.08772,4.84528-3.46093,9.78945-12.45931,10.58051-27.68733A92.40646,92.40646,0,0,0,97.99335,77.96947Z" transform="translate(-0.35381 -0.24492)" fill="#fff"/></svg>